<?xml version="1.0" encoding="UTF-8" standalone="no"?>
<!-- Created with Inkscape (http://www.inkscape.org/) -->

<svg
   width="730.00006"
   height="730.08722"
   id="svg3767"
   version="1.1"
   inkscape:version="1.2.2 (b0a8486541, 2022-12-01)"
   sodipodi:docname="centerline.svg"
   xmlns:inkscape="http://www.inkscape.org/namespaces/inkscape"
   xmlns:sodipodi="http://sodipodi.sourceforge.net/DTD/sodipodi-0.dtd"
   xmlns="http://www.w3.org/2000/svg"
   xmlns:svg="http://www.w3.org/2000/svg"
   xmlns:rdf="http://www.w3.org/1999/02/22-rdf-syntax-ns#"
   xmlns:cc="http://creativecommons.org/ns#"
   xmlns:dc="http://purl.org/dc/elements/1.1/">
  <defs
     id="defs3769" />
  <sodipodi:namedview
     id="base"
     pagecolor="#ffffff"
     bordercolor="#666666"
     borderopacity="1.0"
     inkscape:pageopacity="0.0"
     inkscape:pageshadow="2"
     inkscape:zoom="0.98994949"
     inkscape:cx="284.86302"
     inkscape:cy="387.3935"
     inkscape:document-units="px"
     inkscape:current-layer="layer1"
     showgrid="false"
     fit-margin-top="10"
     fit-margin-left="10"
     fit-margin-bottom="10"
     fit-margin-right="10"
     inkscape:window-width="1366"
     inkscape:window-height="720"
     inkscape:window-x="0"
     inkscape:window-y="25"
     inkscape:window-maximized="1"
     inkscape:showpageshadow="2"
     inkscape:pagecheckerboard="0"
     inkscape:deskcolor="#d1d1d1" />
  <metadata
     id="metadata3772">
    <rdf:RDF>
      <cc:Work
         rdf:about="">
        <dc:format>image/svg+xml</dc:format>
        <dc:type
           rdf:resource="http://purl.org/dc/dcmitype/StillImage" />
      </cc:Work>
    </rdf:RDF>
  </metadata>
  <g
     inkscape:label="Layer 1"
     inkscape:groupmode="layer"
     id="layer1"
     transform="translate(-110.79682,-66.509399)">
    <path
       id="path943"
       style="fill:none;fill-opacity:1;stroke:#000000;stroke-opacity:1;stroke-width:1.5;stroke-dasharray:none"
       d="M 475.77534 76.509399 C 474.97282 76.509399 474.17617 76.547338 473.37495 76.552368 C 473.91698 77.622489 474.24799 78.852372 474.24799 80.132446 C 474.24799 84.490144 470.70725 87.987915 466.34955 87.987915 C 461.99189 87.987915 458.44916 84.490144 458.44916 80.132446 C 458.44916 79.008196 458.72375 77.913722 459.14838 76.944946 C 457.40104 77.025526 455.65076 77.100878 453.9101 77.206665 C 454.5203 78.252291 454.88805 79.453606 454.95893 80.741821 C 455.19815 85.092941 451.84713 88.795566 447.49604 89.03479 C 443.1449 89.274009 439.4423 85.923019 439.20307 81.571899 C 439.13977 80.422204 439.34065 79.305553 439.72651 78.298462 C 437.95733 78.476806 436.20862 78.705562 434.44721 78.90979 C 435.12332 79.926145 435.56977 81.102856 435.71284 82.400024 C 436.19059 86.731453 433.06186 90.607835 428.73041 91.085571 C 424.39901 91.563302 420.52248 88.477542 420.04487 84.146118 C 419.91863 83.001618 420.06115 81.860739 420.39448 80.829712 C 418.64157 81.104277 416.90246 81.402637 415.15815 81.702758 C 415.89127 82.679173 416.42685 83.821554 416.64057 85.107055 C 417.35545 89.405722 414.4372 93.468423 410.13862 94.183227 C 405.83999 94.898032 401.77523 92.022904 401.06049 87.724243 C 400.86827 86.568291 400.98984 85.426303 401.27924 84.364868 C 399.51984 84.740681 397.74764 85.097845 395.99799 85.499633 C 396.80841 86.450031 397.4112 87.605734 397.70112 88.90393 C 398.65075 93.156875 395.97556 97.379994 391.7226 98.329712 C 387.46968 99.279425 383.24464 96.60414 382.29487 92.351196 C 382.04009 91.210397 382.06746 90.063843 382.29487 88.989868 C 380.5742 89.458339 378.85659 89.937659 377.14643 90.431274 C 377.98581 91.329371 378.62303 92.443114 378.97846 93.704712 C 380.1602 97.899082 377.71783 102.25338 373.52338 103.43518 C 369.32912 104.61694 364.97269 102.17449 363.79096 97.980102 C 363.47371 96.854092 363.44821 95.70547 363.61713 94.620727 C 361.93467 95.180537 360.26876 95.782601 358.5976 96.366821 C 359.47972 97.209589 360.18276 98.271572 360.60541 99.507446 C 362.01576 103.63065 359.797 108.13627 355.67377 109.54651 C 351.55059 110.95673 347.08984 108.73803 345.67963 104.61487 C 345.30085 103.50755 345.22528 102.34389 345.33198 101.25354 C 343.67316 101.90922 342.00187 102.5815 340.35541 103.26135 C 341.30023 104.06632 342.04095 105.1282 342.53901 106.35901 C 344.17335 110.39854 342.21334 114.9804 338.17377 116.61487 C 334.1341 118.24934 329.5524 116.29112 327.91791 112.25159 C 327.47935 111.1677 327.30187 110.02971 327.35151 108.93518 C 325.74117 109.67726 324.1479 110.43934 322.55073 111.20471 C 323.53306 111.94311 324.34789 112.93672 324.90815 114.12854 C 326.76189 118.0723 325.05504 122.79235 321.11127 124.64612 C 317.16754 126.4999 312.44739 124.79302 310.5937 120.84924 C 310.10449 119.80852 309.86912 118.69619 309.85151 117.61877 C 308.3018 118.43949 306.76053 119.26416 305.22455 120.10706 C 306.24108 120.79572 307.09098 121.74627 307.71284 122.90002 C 309.78034 126.73607 308.31829 131.52395 304.48237 133.59143 C 300.64627 135.65891 295.85851 134.24193 293.79096 130.40588 C 293.23829 129.38047 292.98837 128.26874 292.91791 127.17737 C 291.39539 128.09396 289.88644 129.03167 288.37885 129.97034 C 289.42138 130.60003 290.31914 131.47855 290.99799 132.58752 C 293.27306 136.30418 292.09555 141.17962 288.37885 143.45471 C 284.66215 145.72979 279.83161 144.55418 277.55659 140.83752 C 276.95481 139.85444 276.64984 138.76599 276.50971 137.69495 C 275.03549 138.69636 273.55974 139.68175 272.10151 140.70471 C 273.17201 141.27743 274.10953 142.11823 274.85151 143.19299 C 277.32726 146.77916 276.42977 151.71534 272.8437 154.19104 C 269.25757 156.66674 264.36418 155.76932 261.88862 152.18323 C 261.22647 151.2241 260.8157 150.16489 260.62299 149.08557 C 259.22031 150.15557 257.81968 151.22377 256.43354 152.31409 C 257.55194 152.83074 258.55256 153.63266 259.35737 154.67151 C 262.02621 158.11632 261.36271 163.0867 257.91791 165.75549 C 254.47316 168.42432 249.54565 167.76089 246.8769 164.31604 C 246.19065 163.43025 245.7396 162.41043 245.48041 161.39221 C 244.1539 162.52408 242.81733 163.64555 241.50776 164.79651 C 242.62852 165.25689 243.62981 166.00113 244.47651 166.97815 C 247.33039 170.2713 246.93971 175.25314 243.64643 178.10706 C 240.3533 180.96093 235.37336 180.61305 232.51948 177.31995 C 231.77382 176.45954 231.25607 175.46387 230.94721 174.44104 C 229.69559 175.63311 228.47235 176.85207 227.23823 178.06213 C 228.36179 178.46032 229.40632 179.15384 230.29291 180.06995 C 233.32322 183.2014 233.25046 188.21139 230.11909 191.24182 C 226.98753 194.27222 221.97552 194.15457 218.94526 191.02307 C 218.163 190.21471 217.61348 189.26306 217.24409 188.27502 C 216.04511 189.54859 214.84623 190.8237 213.66596 192.11487 C 214.81996 192.44432 215.91268 193.03478 216.85151 193.90393 C 220.04907 196.86435 220.24754 201.87806 217.28705 205.07581 C 214.32676 208.27351 209.31293 208.47368 206.11518 205.51331 C 205.28976 204.74914 204.65675 203.82245 204.23823 202.8512 C 203.11152 204.18725 201.98601 205.51203 200.87885 206.86487 C 202.06743 207.11852 203.19493 207.65112 204.19526 208.4801 C 207.55077 211.2605 208.0226 216.25354 205.24213 219.60901 C 202.46185 222.96448 197.47047 223.43629 194.11518 220.65588 C 193.23845 219.92943 192.58386 219.04147 192.10737 218.08166 C 191.05118 219.48305 190.00087 220.89664 188.96479 222.31409 C 190.1577 222.52099 191.33399 222.98959 192.36909 223.75549 C 195.87208 226.34751 196.61923 231.29348 194.02729 234.79651 C 191.43549 238.29949 186.48916 239.00375 182.98627 236.41174 C 182.06429 235.72953 181.33419 234.85811 180.80463 233.92346 C 179.81742 235.39393 178.8444 236.88868 177.87885 238.37463 C 179.0874 238.49376 180.28176 238.88033 181.37104 239.59729 C 185.01093 241.99308 186.0363 246.91043 183.64057 250.55041 C 181.2447 254.19044 176.32552 255.17272 172.68549 252.77698 C 171.72859 252.14721 170.94905 251.3244 170.37299 250.41956 C 169.46623 251.94429 168.55219 253.46219 167.66791 255.00159 C 168.91319 255.04989 170.13827 255.38056 171.28901 256.05041 C 175.05495 258.24275 176.3193 263.10661 174.1269 266.87268 C 171.93478 270.63874 167.11374 271.90096 163.3476 269.70862 C 162.3301 269.11627 161.53757 268.29961 160.90424 267.39612 C 160.06968 268.99336 159.2272 270.5855 158.41596 272.1969 C 159.6611 272.1795 160.93976 272.4646 162.12494 273.06995 C 166.00587 275.05205 167.51132 279.79462 165.52924 283.67541 C 163.54702 287.55623 158.8047 289.10483 154.92377 287.12268 C 153.86674 286.58259 152.99377 285.8157 152.30659 284.93909 C 151.56532 286.57222 150.8853 288.22444 150.16791 289.87073 C 150.38786 289.85493 150.59988 289.82386 150.82221 289.82776 C 151.84656 289.84536 152.88132 290.08545 153.8769 290.52698 C 157.86098 292.29309 159.65898 296.92992 157.89252 300.9137 C 156.12662 304.89738 151.4891 306.69348 147.5058 304.92737 C 146.41964 304.44599 145.53222 303.71313 144.79877 302.87659 C 144.14604 304.55491 143.50742 306.24843 142.87885 307.93909 C 143.09768 307.91199 143.31167 307.90422 143.53315 307.89612 C 144.55736 307.85732 145.61371 308.03342 146.63276 308.41956 C 150.70706 309.96427 152.75948 314.51281 151.21479 318.58752 C 149.66996 322.66226 145.12131 324.71427 141.04682 323.16956 C 139.93617 322.74851 138.98721 322.08958 138.20893 321.2926 C 137.65381 322.99275 137.08085 324.68871 136.55073 326.40002 C 137.0444 326.30522 137.52551 326.26595 138.0351 326.26916 C 138.81143 326.27516 139.56848 326.41456 140.3476 326.66174 C 144.50058 327.98048 146.81715 332.41465 145.49799 336.56799 C 144.17954 340.72139 139.74514 343.03711 135.59174 341.71838 C 134.46615 341.35661 133.48711 340.762 132.66791 340.01526 C 132.21138 341.72873 131.7455 343.44207 131.3144 345.16565 C 131.7888 345.05169 132.2585 345.01414 132.75385 344.98987 C 133.52934 344.95187 134.31986 345.00441 135.11127 345.20862 C 139.33058 346.29735 141.87425 350.63363 140.7851 354.85315 C 139.69666 359.07262 135.4035 361.6157 131.18354 360.52698 C 130.03421 360.23031 129.03305 359.66554 128.17182 358.95471 C 127.81082 360.69169 127.46038 362.4468 127.12494 364.19299 C 127.83283 363.98067 128.54828 363.88958 129.30659 363.88635 C 129.83098 363.88535 130.34483 363.95516 130.87885 364.06213 C 135.15179 364.91757 137.92953 369.08413 137.07416 373.35706 C 136.21865 377.62995 132.0519 380.40976 127.77924 379.55432 C 126.63563 379.32545 125.6133 378.84234 124.72455 378.20081 C 124.46271 379.93979 124.21922 381.69188 123.98237 383.43909 C 124.91106 383.10692 125.87323 382.95878 126.90619 383.00159 C 127.17209 383.01159 127.42196 383.05068 127.69135 383.08948 C 132.00493 383.70906 134.98872 387.72334 134.36909 392.03674 C 133.74959 396.35019 129.78031 399.3321 125.46674 398.71252 C 124.31167 398.54669 123.28743 398.085 122.36713 397.49182 C 122.19675 399.27707 122.03218 401.06613 121.88862 402.85901 C 122.79147 402.48532 123.74722 402.26145 124.76752 402.24768 C 125.03411 402.24468 125.28329 402.26675 125.55463 402.29065 C 129.89557 402.67247 133.13594 406.50439 132.75385 410.84534 C 132.37232 415.18623 128.54229 418.38341 124.20112 418.00159 C 123.06016 417.90118 122.00217 417.52132 121.05854 416.99768 C 120.98774 418.75438 120.88504 420.51574 120.83979 422.27893 C 121.94542 421.75082 123.19926 421.49385 124.5058 421.53674 C 128.86113 421.67972 132.24255 425.34354 132.09955 429.69885 C 131.95669 434.05422 128.33765 437.47853 123.98237 437.33557 C 122.83611 437.29787 121.76573 436.97919 120.79682 436.50549 C 120.82042 438.26686 120.83541 440.03164 120.88471 441.78674 C 121.95766 441.2067 123.15863 440.89956 124.46284 440.87073 C 128.81895 440.77433 132.44069 444.1938 132.53705 448.55041 C 132.63325 452.90714 129.1686 456.52827 124.81244 456.62463 C 123.65338 456.65033 122.58455 456.3983 121.58198 455.97034 C 121.70208 457.735 121.82904 459.49404 121.97455 461.25159 C 123.01091 460.60379 124.20759 460.21735 125.50971 460.11682 C 129.854 459.78129 133.64134 463.05915 133.97651 467.40393 C 134.31237 471.74872 131.07676 475.5352 126.73237 475.87073 C 125.56027 475.96123 124.44938 475.77101 123.41596 475.39026 C 123.63284 477.15532 123.86981 478.91456 124.11323 480.67151 C 125.11886 479.95979 126.29664 479.4917 127.60541 479.31799 C 127.87508 479.28129 128.16709 479.28352 128.43354 479.27502 C 132.43089 479.15199 135.92713 482.03382 136.46479 486.08362 C 137.03834 490.40337 134.0186 494.41241 129.69916 494.98596 C 128.51002 495.14377 127.36712 495.02251 126.29487 494.67932 C 126.60909 496.42911 127.00467 498.17678 127.34369 499.9176 C 128.31455 499.14094 129.44392 498.59191 130.74799 498.34534 C 131.28286 498.24409 131.83701 498.2075 132.36127 498.21448 C 136.03077 498.26918 139.24643 500.88396 139.95502 504.63049 C 140.76486 508.91229 137.95369 513.07262 133.67182 513.88245 C 132.50586 514.10296 131.38888 514.02249 130.31049 513.75159 C 130.72414 515.49614 131.13719 517.21042 131.57612 518.94495 C 132.50634 518.10785 133.63705 517.51959 134.93744 517.19885 C 135.46617 517.06841 135.98365 517.00105 136.50776 516.9801 C 140.17483 516.8333 143.58091 519.25854 144.49409 522.96057 C 145.5378 527.19145 142.96522 531.47353 138.73432 532.51721 C 137.57242 532.80383 136.43159 532.78085 135.33002 532.56018 C 135.84463 534.29781 136.31664 536.07203 136.85737 537.79846 C 137.74835 536.88935 138.87123 536.18888 140.17377 535.79065 C 140.95484 535.55167 141.75333 535.43755 142.52924 535.44104 C 145.89318 535.45684 148.95661 537.64111 149.99213 541.02698 C 151.26646 545.19414 148.92288 549.61591 144.7558 550.89026 C 143.62229 551.23691 142.49438 551.30469 141.39643 551.15198 C 141.99736 552.83348 142.60309 554.50183 143.22846 556.17151 C 144.06078 555.23756 145.11333 554.49447 146.37104 554.03284 C 147.13843 553.75144 147.95102 553.63425 148.72651 553.59534 C 152.08551 553.42671 155.27674 555.42182 156.49604 558.74573 C 157.99758 562.83665 155.91718 567.36951 151.82612 568.87073 C 150.69843 569.28453 149.54378 569.40858 148.42182 569.30627 C 149.12678 570.97993 149.87364 572.62045 150.60346 574.28088 C 151.38817 573.3054 152.38387 572.49849 153.61518 571.96838 C 154.61537 571.5375 155.64538 571.32107 156.66987 571.31409 C 159.74496 571.29409 162.66617 573.07012 163.95893 576.0719 C 165.68238 580.07424 163.85779 584.73508 159.85541 586.45862 C 158.77143 586.9254 157.64812 587.09902 156.53901 587.06799 C 157.32692 588.68271 158.08478 590.31282 158.89643 591.9137 C 159.63073 590.87436 160.60082 590.03186 161.82026 589.42541 C 162.79531 588.9403 163.80693 588.65818 164.83002 588.59534 C 167.89901 588.40661 170.92553 590.03427 172.3808 592.96057 C 174.32154 596.8623 172.7472 601.62537 168.84565 603.56604 C 167.77535 604.09838 166.65302 604.32803 165.52924 604.3512 C 166.40765 605.92504 167.29017 607.50504 168.19135 609.06409 C 168.86182 608.00896 169.77637 607.10652 170.94135 606.44495 C 172.12546 605.77247 173.42126 605.42196 174.6933 605.39807 C 177.49192 605.34527 180.24118 606.76366 181.72065 609.36877 C 183.87227 613.15807 182.54103 617.99612 178.7519 620.14807 C 177.72126 620.73337 176.63403 621.01832 175.52338 621.10901 C 176.48544 622.62967 177.46294 624.14314 178.44721 625.64807 C 179.06084 624.57409 179.9112 623.61189 181.02143 622.89807 C 182.39575 622.0143 183.91022 621.59789 185.42963 621.63245 C 187.9618 621.68995 190.45882 622.96463 191.93159 625.25549 C 194.28831 628.92095 193.19678 633.80888 189.53119 636.16565 C 188.53357 636.80707 187.4489 637.1906 186.34565 637.34338 C 187.38242 638.79884 188.47352 640.22486 189.53119 641.6637 C 190.08393 640.54676 190.90007 639.56168 191.97651 638.78284 C 193.30055 637.82482 194.82093 637.34929 196.33979 637.30041 C 198.87154 637.21891 201.3761 638.36707 202.9726 640.57385 C 205.52712 644.10425 204.75901 649.01529 201.22846 651.56995 C 200.28148 652.2548 199.25203 652.66305 198.17377 652.88049 C 199.28792 654.27645 200.35551 655.69144 201.49018 657.06995 C 201.97505 655.92466 202.72838 654.89447 203.75971 654.05823 C 205.24058 652.8575 207.05379 652.29635 208.82221 652.31213 C 211.09574 652.33183 213.343 653.33194 214.88666 655.23596 C 217.63111 658.62084 217.09382 663.5776 213.70893 666.3219 C 212.80092 667.05815 211.80312 667.52725 210.74213 667.80432 C 211.92737 669.13297 213.11542 670.46607 214.32026 671.77698 C 214.74851 670.62527 215.43957 669.56025 216.41401 668.67737 C 217.82687 667.39718 219.57919 666.70829 221.34565 666.62659 C 223.61681 666.52157 225.89702 667.38407 227.54291 669.20081 C 230.46904 672.42951 230.20549 677.44813 226.97651 680.37463 C 226.10815 681.16143 225.14253 681.7034 224.09565 682.03284 C 225.34092 683.28454 226.62883 684.50911 227.89252 685.74182 C 228.25717 684.57126 228.88866 683.4911 229.81244 682.55627 C 231.34428 681.00716 233.33609 680.21072 235.35541 680.19885 C 237.37464 680.18625 239.39178 680.93626 240.94135 682.46838 C 244.04021 685.53165 244.09291 690.54082 241.02924 693.64026 C 240.20542 694.47329 239.26653 695.08783 238.23627 695.47424 C 239.56401 696.67064 240.90419 697.83311 242.24994 699.0094 C 242.54451 697.81942 243.08286 696.67377 243.95307 695.69104 C 245.39749 694.05976 247.34763 693.15169 249.36323 693.02893 C 251.37878 692.90688 253.4507 693.5494 255.08198 694.99377 C 258.34434 697.88261 258.66808 702.86054 255.77924 706.12268 C 255.00135 707.00151 254.0806 707.63855 253.07416 708.08557 C 254.45813 709.20167 255.81773 710.35091 257.2187 711.4469 C 257.44226 710.22243 257.96434 709.04339 258.79096 707.99963 C 260.31275 706.07807 262.58412 705.07683 264.85737 705.03088 C 266.62537 704.99528 268.38039 705.55004 269.87495 706.73401 C 273.29107 709.43907 273.89097 714.40215 271.18549 717.81799 C 270.44424 718.75408 269.56829 719.45857 268.56635 719.95666 C 270.00626 720.99316 271.47366 721.99608 272.92963 723.01135 C 273.09058 721.77585 273.55756 720.56418 274.32612 719.4762 C 275.7401 717.47373 277.90848 716.33003 280.17573 716.15979 C 281.93907 716.02684 283.76695 716.49948 285.32416 717.59924 C 288.88376 720.11298 289.71481 725.0377 287.20112 728.59729 C 286.51068 729.575 285.64576 730.31366 284.66987 730.86682 C 286.19102 731.84019 287.71504 732.79707 289.2519 733.74768 C 289.3381 732.49389 289.71475 731.26475 290.42963 730.12463 C 291.87629 727.81665 294.31418 726.50223 296.84565 726.41565 C 298.36451 726.36365 299.91231 726.76841 301.29682 727.63635 C 304.98908 729.95094 306.09956 734.811 303.7851 738.50354 C 303.15822 739.50317 302.35419 740.29952 301.42768 740.90393 C 303.00269 741.79366 304.55072 742.6995 306.14057 743.56604 C 306.15457 742.3054 306.44991 741.03554 307.10151 739.85706 C 308.55096 737.23509 311.24192 735.73468 314.04096 735.75549 C 315.31319 735.76349 316.60112 736.09815 317.79291 736.75745 C 321.60667 738.86545 323.00085 743.68048 320.89252 747.49377 C 320.31019 748.54744 319.53511 749.36349 318.62299 750.02502 C 320.24785 750.82816 321.87089 751.6462 323.50971 752.42541 C 323.44421 751.15141 323.65943 749.85441 324.2519 748.62854 C 325.55527 745.9306 328.2216 744.31074 331.01752 744.17737 C 332.28835 744.11727 333.58826 744.3697 334.8144 744.96252 C 338.73802 746.85802 340.37632 751.60169 338.48041 755.52502 C 337.95446 756.61389 337.22258 757.51969 336.34174 758.2301 C 338.00023 758.93856 339.68795 759.59658 341.35932 760.28088 C 341.2388 759.02513 341.40924 757.72663 341.92768 756.48401 C 343.1858 753.46724 346.09696 751.65604 349.17182 751.64026 C 350.19673 751.63426 351.22115 751.83221 352.22651 752.25159 C 356.24844 753.92904 358.18121 758.52848 356.50385 762.55041 C 356.03825 763.66679 355.34192 764.58158 354.49604 765.34338 C 356.19148 765.95966 357.89413 766.58445 359.60151 767.17541 C 359.40266 765.91748 359.49669 764.61925 359.95112 763.33557 C 361.04166 760.25457 363.86413 758.28344 366.93354 758.09924 C 367.95663 758.03774 369.00629 758.17128 370.03315 758.53479 C 374.14111 759.98885 376.28599 764.50924 374.83198 768.61682 C 374.43212 769.74647 373.7909 770.69845 372.99995 771.49768 C 374.74217 772.02347 376.48281 772.56762 378.23627 773.06799 C 377.9717 771.8202 377.98617 770.48995 378.36713 769.18323 C 379.36354 765.78577 382.42386 763.60934 385.78705 763.55432 C 386.56324 763.54172 387.35851 763.62913 388.14252 763.85901 C 392.32412 765.08544 394.73794 769.4528 393.51166 773.6344 C 393.17126 774.79505 392.61156 775.79843 391.85346 776.64612 C 393.60967 777.0722 395.36646 777.51219 397.13276 777.91174 C 396.80109 776.68056 396.73589 775.35507 397.04682 774.02893 C 397.85527 770.58218 400.80482 768.20175 404.1601 767.96252 C 404.93433 767.90732 405.72011 767.99251 406.51557 768.17932 C 410.7582 769.17406 413.40317 773.40744 412.40815 777.65002 C 412.13703 778.80606 411.61503 779.82741 410.92377 780.70471 C 412.69535 781.03177 414.46729 781.31964 416.24799 781.62073 C 415.86299 780.43816 415.71078 779.18095 415.9433 777.86877 C 416.60889 774.11442 419.82351 771.4184 423.49213 771.3219 C 424.01624 771.3079 424.57097 771.3579 425.10737 771.45276 C 429.39813 772.2133 432.23914 776.32605 431.47846 780.61682 C 431.26929 781.79674 430.81529 782.84342 430.16987 783.7594 C 431.95532 783.98843 433.74345 784.16838 435.53705 784.37073 C 435.20325 783.49679 435.01362 782.56804 435.01362 781.57776 C 435.01362 777.22006 438.55426 773.67932 442.91205 773.67932 L 442.91205 676.27112 C 442.91237 676.25552 442.91205 676.24385 442.91205 676.22815 C 442.91205 675.02725 441.9912 674.023 440.8183 673.91565 C 330.44425 658.12287 243.8233 568.67811 232.30073 456.97424 C 231.242 445.33701 239.8217 435.02751 251.45893 433.97424 C 263.09616 432.92099 273.40372 441.54014 274.45698 453.17737 C 283.99527 542.99696 352.34264 615.28448 440.20698 630.92737 C 441.45788 631.14416 442.63149 630.33097 442.86909 629.09534 C 442.90949 628.9372 442.89845 628.79568 442.91205 628.65979 L 442.91205 532.03674 L 442.86909 532.03674 C 442.91919 531.03755 442.35708 530.08747 441.34174 529.72424 C 400.81237 515.47785 371.73432 476.94523 371.73432 431.57581 C 371.73432 381.99211 406.43173 340.50292 452.86323 330.06604 C 454.09738 329.75554 454.87491 328.4623 454.5644 327.22815 C 454.2539 325.994 453.01051 325.25945 451.77143 325.56995 C 403.34935 336.52475 367.15229 379.84388 367.15229 431.57581 C 367.15229 473.98089 391.43326 510.72697 426.85346 528.63245 C 437.23568 533.99376 441.29097 546.74828 435.92963 557.13049 C 430.56834 567.51272 417.84514 571.54135 407.47651 566.1637 C 365.03015 544.55933 334.12891 503.46473 326.60932 454.66174 C 326.39132 453.41713 325.2333 452.59175 323.99018 452.78479 C 322.74693 452.97785 321.85789 454.10498 322.02729 455.35901 C 330.83187 512.55959 370.84103 559.51722 424.06049 578.31799 C 435.10434 582.15658 440.96905 594.22336 437.15229 605.26721 C 433.33551 616.31105 421.27035 622.14101 410.22651 618.31604 C 333.16566 591.25333 277.90619 517.88309 277.9062 431.57385 C 277.9062 331.16203 352.68019 248.21968 449.58979 235.40784 C 461.17697 233.90064 471.82479 242.06289 473.33198 253.65002 C 474.83913 265.2372 466.63204 275.88307 455.04487 277.39026 C 386.75568 286.48992 332.45682 339.89066 322.02729 407.74573 C 321.82689 409.00246 322.69048 410.16447 323.94721 410.36487 C 325.20394 410.56527 326.40892 409.74464 326.60932 408.48791 C 337.71826 336.073 400.25146 280.61877 475.77534 280.61877 C 549.90941 280.61877 611.57265 334.05978 624.33002 404.5387 C 626.27564 416.06202 618.55178 426.98718 607.04877 428.95666 C 595.53158 430.9286 584.58718 423.19066 582.60932 411.67346 C 574.72394 369.19327 542.0897 335.43355 500.25776 325.7887 C 500.24056 325.7847 500.23189 325.74757 500.21479 325.74377 C 500.07528 325.68067 499.93241 325.64797 499.77729 325.61291 C 498.53631 325.33096 497.31119 326.07507 497.02924 327.31604 C 496.74728 328.55702 497.5324 329.82705 498.77338 330.10901 C 545.16099 340.57842 579.81635 382.0213 579.81635 431.57385 C 579.81635 476.96094 550.73886 515.5493 510.20698 529.76721 C 509.01076 530.2069 508.37621 531.53975 508.81049 532.73596 C 509.24477 533.93218 510.58302 534.5218 511.77924 534.08752 C 511.96167 534.02132 512.11297 533.9747 512.30268 533.87073 C 548.29536 521.02126 575.52817 489.73799 582.60932 451.38831 C 584.61914 439.87768 595.58109 432.18315 607.09174 434.19299 C 618.60238 436.20281 626.3406 447.16481 624.32807 458.67541 C 613.60476 517.75433 568.47392 564.8056 510.47065 578.47229 C 509.23128 578.78305 508.47859 580.02589 508.76752 581.26526 C 509.05645 582.50463 510.27815 583.27652 511.51752 583.0094 C 580.21185 566.87832 631.35541 505.19483 631.35541 431.57385 C 631.35541 352.73209 572.68614 287.59073 496.63471 277.39221 C 485.04054 275.93713 476.80933 265.37506 478.26166 253.78088 C 479.71222 242.20111 490.29544 233.98129 501.89448 235.40784 C 591.26939 247.20169 661.84285 318.6014 672.33588 408.35706 C 672.48063 409.62137 673.64575 410.55454 674.9101 410.40979 C 676.17445 410.26505 677.06266 409.09797 676.91791 407.83362 C 665.17085 307.18264 579.58091 229.07971 475.77534 229.07971 C 371.16086 229.07971 285.13605 308.40518 274.45698 410.19104 C 273.29668 421.81835 262.91241 430.33303 251.2851 429.17541 C 239.65778 428.01786 231.13494 417.62885 232.30073 406.00159 C 244.29624 290.44172 336.67412 198.82267 452.55854 187.92541 C 453.82507 187.80112 454.73356 186.66069 454.60932 185.39416 C 454.48502 184.12768 453.3446 183.17616 452.07807 183.30041 C 325.44815 195.23476 226.36518 301.82131 226.36518 431.57581 C 226.36518 550.71953 309.91821 650.35373 421.63862 675.09338 C 433.0538 677.59728 440.28914 688.87158 437.80659 700.27502 C 435.32095 711.69238 424.04426 718.95005 412.6269 716.46448 C 289.24383 689.22977 195.18972 583.84054 184.99213 454.87854 C 184.89523 453.60942 183.81788 452.64759 182.54877 452.74182 C 181.27965 452.83612 180.31587 453.95903 180.4101 455.22815 C 191.00864 589.46265 291.02111 698.52127 420.9394 722.83752 C 432.43224 724.95832 440.03673 736.01344 437.93745 747.49377 C 435.83557 758.98796 424.81837 766.594 413.32416 764.47034 C 256.13461 735.13316 137.11909 597.26464 137.11909 431.57385 C 137.11909 252.99698 275.34369 106.74036 450.63666 93.87854 C 450.65116 93.87734 450.66699 93.87964 450.68159 93.87854 C 451.39543 93.82408 452.11975 93.820071 452.82026 93.835571 C 463.54221 94.07263 472.55141 102.37829 473.41791 113.29846 C 474.34103 124.932 465.67523 135.1333 454.04096 136.07971 C 308.36153 146.66354 191.88803 262.50029 180.4101 407.92151 C 180.3119 409.19032 181.27996 410.31158 182.54877 410.40979 C 183.80362 410.50699 184.91804 409.5619 185.03705 408.31409 C 185.03805 408.30009 185.03605 408.28502 185.03705 408.27112 C 196.90252 258.04551 322.49934 139.83362 475.77534 139.83362 C 628.38358 139.83362 753.62275 257.01443 766.42573 406.30627 C 767.43034 417.94779 758.82118 428.21378 747.17963 429.21838 C 735.5381 430.22299 725.27213 421.57084 724.26752 409.92932 C 713.97436 290.15142 619.00957 194.58474 499.51557 183.30041 C 498.24918 183.17486 497.10992 184.12782 496.98432 185.39416 C 496.85877 186.66056 497.7687 187.75473 499.0351 187.88245 C 623.32706 199.59794 720.60346 304.21972 720.60346 431.57581 C 720.60346 554.92376 629.35151 656.96506 510.68745 673.91565 C 509.42649 674.0874 508.5528 675.27188 508.72455 676.53284 C 508.89629 677.7938 510.03781 678.66942 511.29877 678.49768 C 511.39946 678.48368 511.50993 678.43559 511.60541 678.40979 C 511.65951 678.39509 511.72701 678.38512 511.77924 678.36682 C 625.40569 661.94283 714.25687 568.97291 724.26752 453.39612 C 725.18093 441.74708 735.35681 433.01786 747.0058 433.93127 C 758.65483 434.84468 767.38206 445.06354 766.4687 456.71252 C 754.71623 594.49918 647.1761 704.94232 510.73237 721.22229 C 509.46782 721.36526 508.58157 722.53196 508.72455 723.79651 C 508.86752 725.06106 509.9913 725.9473 511.2558 725.80432 C 658.19447 708.27089 772.14252 583.23284 772.14252 431.57581 C 772.14252 275.33024 651.18131 147.36254 497.8144 136.08166 C 486.178 135.26896 477.34319 125.20369 478.1308 113.56018 C 478.87018 102.63068 487.79319 94.197382 498.51166 93.835571 C 499.22623 93.811411 499.96472 93.82937 500.6933 93.87854 C 676.09005 106.63478 814.43159 252.92272 814.43159 431.57385 C 814.43159 614.71618 669.03285 763.88448 487.38276 770.01331 C 476.03568 769.94681 466.71972 760.89054 466.39252 749.45862 C 466.38652 749.27992 466.39319 749.11101 466.39252 748.93323 L 466.3476 748.93323 L 466.38666 654.93127 C 466.38066 643.71842 475.14644 634.37051 486.46674 633.80823 C 585.37287 628.66085 665.54046 552.53622 676.91791 455.40198 C 676.92091 455.37318 676.91491 455.34484 676.91791 455.31604 C 676.91891 455.30164 676.91691 455.28522 676.91791 455.27112 C 677.02795 454.02312 676.11816 452.87344 674.86713 452.73987 C 673.60171 452.60483 672.47098 453.52719 672.33588 454.7926 C 661.33899 548.86392 584.08731 622.80049 488.64838 629.05627 C 477.10067 629.67032 467.19752 620.89791 466.43549 609.32581 C 466.40519 608.86467 466.39312 608.42802 466.39252 607.97229 L 466.3476 607.97229 L 466.3476 493.8512 L 466.3476 477.83362 L 466.3476 477.70276 C 466.3476 476.34187 465.26445 475.2594 463.90424 475.2594 C 462.69722 475.2594 461.67287 476.14389 461.46088 477.31018 C 461.35153 477.98051 461.23058 478.62432 461.0683 479.27502 L 458.66791 479.27502 C 457.30636 479.27502 456.22455 480.35749 456.22455 481.71838 C 456.22455 483.07923 457.30636 484.20666 458.66791 484.20666 L 459.23432 484.20666 C 455.28077 492.09722 447.1203 497.51721 437.72065 497.51721 C 424.45375 497.51721 413.71674 486.73621 413.71674 473.47034 C 413.71674 464.16174 419.02792 456.11268 426.76557 452.13049 L 427.33393 453.56995 C 427.78808 454.75877 429.11229 455.37748 430.30073 454.92346 C 431.48987 454.46943 432.10825 453.1006 431.65424 451.91174 L 431.1308 450.60315 L 432.4394 450.12268 C 433.6277 449.66868 434.24705 448.3428 433.79291 447.15393 C 433.33904 445.96502 431.97015 445.34838 430.7812 445.80237 L 429.51557 446.28284 L 428.99213 444.97229 C 428.53798 443.7834 427.21238 443.20967 426.02338 443.6637 C 424.83438 444.11772 424.21781 445.44159 424.67182 446.63049 L 425.01948 447.59143 C 423.13515 448.06681 421.16176 448.33362 419.12885 448.33362 C 405.86488 448.33362 395.08198 437.59563 395.08198 424.32971 C 395.08198 411.06379 405.86488 400.28479 419.12885 400.28479 C 423.33112 400.28479 427.26028 401.395 430.6933 403.29456 L 430.21284 403.99377 C 429.4826 405.03605 429.73814 406.4922 430.7812 407.22229 C 431.82351 407.95252 433.27975 407.6986 434.00971 406.65588 L 434.83979 405.52112 L 435.97455 406.30627 C 437.01663 407.03624 438.47311 406.7825 439.20307 405.73987 C 439.93332 404.69745 439.67916 403.28433 438.63666 402.55432 L 437.45893 401.72424 L 438.28705 400.58948 C 439.01701 399.54706 438.76315 398.09104 437.72065 397.36096 C 436.67801 396.63088 435.22028 396.88481 434.49018 397.92737 L 433.48627 399.36682 C 428.57447 394.97347 425.45698 388.63238 425.45698 381.51721 C 425.45698 368.25129 436.19301 357.47229 449.45893 357.47229 C 461.68459 357.47229 471.74004 366.64308 473.24409 378.46252 L 472.06635 378.46252 C 470.7937 378.46252 469.7519 379.50433 469.7519 380.77698 C 469.7519 382.04963 470.7937 383.08948 472.06635 383.08948 L 473.46284 383.08948 L 473.46284 384.48596 C 473.46284 385.75847 474.50256 386.79846 475.77534 386.79846 C 477.0478 386.79846 478.08784 385.75847 478.08784 384.48596 L 478.08784 383.08948 L 479.48432 383.08948 C 480.75697 383.08948 481.79682 382.04963 481.79682 380.77698 C 481.79682 379.50433 480.75697 378.46252 479.48432 378.46252 L 478.30659 378.46252 C 479.81241 366.64308 489.86414 357.47229 502.08979 357.47229 C 505.40625 357.47229 508.55354 358.13132 511.42963 359.34924 C 512.1487 359.65374 512.84398 360.02564 513.52534 360.39612 C 513.57154 360.42072 513.61015 360.45941 513.6562 360.48401 C 521.07615 364.58136 526.13666 372.45481 526.13666 381.51916 C 526.13666 388.63466 522.985 394.97347 518.06245 399.36682 L 517.05854 397.92737 C 516.32872 396.88484 514.8721 396.62895 513.83002 397.35901 C 512.7871 398.08909 512.53366 399.54706 513.26362 400.58948 L 514.09174 401.72424 L 512.91401 402.55237 C 511.87151 403.28238 511.61583 404.69745 512.34565 405.73987 C 513.07603 406.7825 514.53376 407.03623 515.57612 406.30627 L 516.71088 405.52112 L 517.53901 406.65588 C 518.26897 407.69863 519.72712 407.95252 520.76948 407.22229 C 521.81254 406.49222 522.0657 405.03605 521.33588 403.99377 L 520.55073 402.85901 C 523.78475 401.23075 527.41776 400.28479 531.28705 400.28479 C 544.55157 400.28479 555.33198 411.06379 555.33198 424.32971 C 555.33198 437.59563 544.55129 448.33362 531.28705 448.33362 C 529.60974 448.33362 527.97756 448.13677 526.39838 447.81018 L 526.83588 446.63049 C 527.29003 445.44161 526.67116 444.11772 525.48237 443.6637 C 524.29323 443.20968 522.96958 443.78329 522.51557 444.97229 L 522.0351 446.28088 L 520.72455 445.80237 C 519.53588 445.34838 518.1688 445.96496 517.71479 447.15393 C 517.26078 448.34282 517.87791 449.6687 519.06635 450.12268 L 520.3769 450.60315 L 519.85346 451.91174 C 519.39959 453.1006 520.01589 454.46943 521.20502 454.92346 C 522.3936 455.37748 523.71976 454.75869 524.17377 453.56995 L 524.74018 452.08557 C 532.51917 456.05834 537.8769 464.14067 537.8769 473.47034 C 537.8769 480.01496 535.23226 485.93435 530.98041 490.27307 C 530.92301 490.33157 530.86455 490.38894 530.80659 490.4469 C 530.52994 490.70534 530.25693 490.97747 529.97651 491.23206 C 529.68799 491.49465 529.40664 491.76866 529.10541 492.01721 C 529.01201 492.09961 528.89261 492.15391 528.79877 492.23596 C 524.68494 495.5258 519.49808 497.51721 513.83002 497.51721 C 504.46262 497.51721 496.36375 492.12376 492.40229 484.2926 L 492.92573 484.2926 C 494.2958 484.2926 495.41401 483.13138 495.41401 481.76135 C 495.41401 480.39131 494.2958 479.31799 492.92573 479.31799 L 490.52534 479.31799 C 490.37014 478.69858 490.23918 478.07839 490.13276 477.44104 C 489.98718 476.18907 488.97239 475.21643 487.6894 475.21643 C 486.31187 475.21643 485.20112 476.32524 485.20112 477.70276 C 485.20112 477.78826 485.18712 477.88119 485.20112 477.96448 L 485.20112 493.8512 L 485.20112 607.92932 C 485.20023 607.99122 485.19712 608.0403 485.20112 608.10315 C 485.28482 609.373 486.37463 610.37037 487.64448 610.28674 C 573.91508 604.62309 643.56894 537.79406 653.61323 452.78479 C 654.85373 441.16604 665.25424 432.77872 676.87299 434.01916 C 688.49174 435.25966 696.84159 445.66017 695.59565 457.27893 C 683.29211 563.6262 595.63627 646.96771 487.38276 652.57385 C 486.14318 652.63545 485.18943 653.65642 485.20112 654.88635 C 485.20141 654.91745 485.20012 654.94284 485.20112 654.97424 L 485.20112 748.89026 C 485.23762 750.16235 486.26463 751.1962 487.55854 751.15979 C 658.71399 744.92825 795.57807 604.22957 795.57807 431.57385 C 795.57807 262.91459 664.99525 124.79898 499.42768 112.68713 C 498.15797 112.60123 497.07022 113.55611 496.98432 114.82581 C 496.89842 116.09547 497.85328 117.2282 499.12299 117.31409 C 662.28585 129.27155 790.99604 265.36029 790.99604 431.57385 C 790.99604 592.92998 669.72949 725.9852 513.34955 744.56995 C 501.73425 745.85695 491.27004 737.53153 489.95893 725.93518 C 488.6462 714.32436 497.02589 703.81236 508.63666 702.49963 C 636.10386 687.18438 736.59215 583.95823 747.6601 455.22815 C 747.7595 453.95943 746.79014 452.83935 745.52143 452.73987 C 744.25271 452.64047 743.13263 453.60982 743.03315 454.87854 C 732.31345 579.47618 636.43595 679.70702 513.87299 697.13245 L 513.87299 697.17541 C 502.2951 698.75241 491.57887 690.64193 490.0019 679.06409 C 488.42491 667.4862 496.57831 656.81295 508.1562 655.23596 C 617.61406 639.53246 701.74995 545.37512 701.74995 431.57385 C 701.74995 314.00712 611.94894 217.47671 497.20307 206.69104 C 485.57534 205.53772 477.06539 195.14495 478.2187 183.51721 C 479.37196 171.88948 489.72187 163.37953 501.34955 164.53284 L 501.34955 164.57776 C 629.86285 176.73042 731.96689 279.48832 743.03315 408.31409 C 743.14264 409.582 744.25352 410.51725 745.52143 410.40784 C 746.78933 410.29835 747.76952 409.18941 747.6601 407.92151 C 735.67547 268.28569 618.51476 158.68518 475.77534 158.68518 C 332.4152 158.68518 214.95886 269.24988 203.84565 409.75354 C 202.94378 421.40347 192.75926 430.12023 181.10932 429.21838 C 169.45939 428.3165 160.69692 418.13004 161.60151 406.4801 C 173.78679 251.80898 297.59343 128.57191 452.51362 117.27112 C 453.78224 117.16554 454.70998 116.09432 454.60932 114.82581 C 454.50863 113.55726 453.38966 112.58646 452.12104 112.68713 C 286.55451 124.80006 155.9726 262.91536 155.9726 431.57385 C 155.9726 587.85062 268.07451 717.89918 416.24799 745.7926 C 416.39003 745.8497 416.57198 745.89511 416.72846 745.92346 C 417.98031 746.15238 419.16166 745.34133 419.39057 744.08948 C 419.61949 742.83762 418.8084 741.61332 417.55659 741.3844 C 417.40011 741.3558 417.23114 741.33628 417.07807 741.33948 C 279.06037 715.33505 172.82752 599.32536 161.60151 456.62463 C 160.73073 444.97196 169.49957 434.7966 181.15229 433.93127 C 192.79044 433.06704 202.95822 441.78641 203.84565 453.43909 C 213.43068 573.99716 301.31983 672.5021 416.64057 698.00549 C 417.88405 698.2762 419.11986 697.50287 419.39057 696.2594 C 419.65843 695.02906 418.86522 693.79746 417.64448 693.48791 C 297.43419 666.90907 207.51166 559.7733 207.51166 431.57385 C 207.51166 292.02099 314.05538 177.38608 450.24409 164.53284 C 461.87301 163.38841 472.23415 171.9332 473.37495 183.56213 C 474.51572 195.1911 466.01954 205.55023 454.39057 206.69104 C 347.44358 216.72782 262.20946 301.24175 251.10932 407.87659 C 250.98322 409.14294 251.89375 410.28176 253.1601 410.40784 C 254.42645 410.53394 255.56527 409.58044 255.69135 408.31409 C 267.31461 297.00181 361.38561 210.2262 475.77534 210.2262 C 589.26611 210.2262 682.8667 295.64382 695.68354 405.69495 C 697.01536 417.30385 688.65773 427.80141 677.04877 429.13049 C 665.43982 430.4596 654.94229 422.10469 653.61323 410.49573 C 644.09932 329.3618 580.32111 264.84404 499.55854 254.12854 C 498.29581 253.97039 497.14249 254.87362 496.98432 256.13635 C 496.82617 257.39909 497.7294 258.55435 498.99213 258.71252 C 584.34163 270.07062 650.20893 343.11973 650.20893 431.57385 C 650.20893 514.14233 592.84748 583.30274 515.79487 601.38245 C 504.41521 604.03529 493.04733 596.96522 490.39448 585.58557 C 487.7416 574.20592 494.8137 562.83534 506.1933 560.18518 C 556.88609 548.2402 596.31441 507.06572 605.73823 455.4469 C 605.95712 454.19326 605.11491 453.00369 603.86127 452.78479 C 602.62201 452.56842 601.43754 453.38675 601.19916 454.63831 C 592.92363 499.92306 560.74683 536.83822 518.23823 551.84924 C 507.25484 555.8367 495.08111 550.17828 491.0937 539.19495 C 487.11088 528.22433 492.79163 516.0502 503.74995 512.04846 C 503.7625 512.04446 503.78001 512.05246 503.79291 512.04846 C 514.13215 508.45183 523.53953 502.90145 531.63666 495.85901 C 532.12111 495.47303 532.57481 495.05236 533.03315 494.63635 C 533.56662 494.15204 534.10783 493.67483 534.60346 493.15198 C 550.83079 477.64151 560.96284 455.79403 560.96284 431.57385 C 560.96284 428.14831 560.74463 424.77062 560.35151 421.45081 C 560.35051 421.43681 560.35251 421.41998 560.35151 421.40588 C 560.34851 421.36318 560.35751 421.31758 560.35151 421.27502 C 556.98366 393.32305 540.05496 369.55831 516.36127 356.68713 C 516.15626 356.57583 515.95589 356.4473 515.74995 356.33752 C 515.59669 356.25432 515.42435 356.19928 515.26948 356.11877 C 508.80573 352.72728 501.84253 350.13266 494.54096 348.48206 C 483.17072 345.87454 476.02553 334.55006 478.61127 323.16956 C 481.20018 311.77518 492.57235 304.60251 503.96674 307.1969 C 553.41541 318.36954 591.96473 358.31981 601.17768 408.48791 C 601.41423 409.74226 602.60692 410.57964 603.86127 410.36487 C 605.11563 410.1501 605.953 408.95711 605.73823 407.70276 C 594.49836 346.13755 540.58581 299.47229 475.77534 299.47229 C 409.65512 299.47229 354.93128 348.04627 345.24409 411.45666 C 343.40404 422.99567 332.51745 430.83967 320.97846 428.99963 C 309.43946 427.15964 301.58745 416.31793 303.43549 404.77893 C 315.17824 328.70929 376.03453 268.83714 452.60151 258.6676 C 453.86349 258.50345 454.77346 257.35536 454.60932 256.09338 C 454.44517 254.8314 453.29513 253.92142 452.03315 254.08557 C 364.37966 265.69743 296.75776 340.74658 296.75776 431.57581 C 296.75776 509.62717 346.70831 576.00486 416.37885 600.5094 C 417.58164 600.91967 418.88699 600.3157 419.30268 599.11291 C 419.71389 597.92312 419.08389 596.622 417.9062 596.18909 C 358.16573 575.15954 313.26446 522.46865 303.39252 458.28284 C 301.59682 446.73644 309.51995 435.94301 321.06635 434.15002 C 332.61276 432.35708 343.45111 440.23446 345.24409 451.78088 C 351.77427 494.35977 378.59079 530.27489 415.55073 549.23206 C 415.75386 549.33875 415.89529 549.40141 416.07416 549.49377 C 417.20491 550.07769 418.58791 549.62057 419.17182 548.48987 C 419.75573 547.35913 419.34354 545.97613 418.21284 545.39221 C 376.73415 524.34969 348.29877 481.27464 348.29877 431.57581 C 348.29877 371.00123 390.55292 320.31419 447.1894 307.32776 C 458.51302 304.50412 470.00406 311.3713 472.85151 322.68909 C 475.69891 334.0069 468.8033 345.48265 457.48823 348.3512 C 449.99725 349.99478 442.8889 352.65072 436.27924 356.11877 C 436.00203 356.26278 435.72274 356.40353 435.45112 356.55627 C 435.36562 356.60237 435.27486 356.64078 435.1894 356.68713 C 411.49585 369.55831 394.5652 393.413 391.19721 421.40784 C 390.80423 424.77047 390.58784 428.14831 390.58784 431.57385 C 390.58784 455.79403 400.71974 477.64151 416.94721 493.15198 C 417.4427 493.67483 417.98405 494.15204 418.51752 494.63635 C 418.97572 495.05236 419.42942 495.47303 419.91401 495.85901 C 427.93401 502.83443 437.26478 508.31966 447.49604 511.9176 C 456.2509 514.94458 461.76932 523.16946 461.76557 531.94885 L 461.76557 628.61487 C 461.76857 629.94994 461.63449 631.27074 461.37299 632.63049 C 459.23111 643.769 448.69832 651.15503 437.58784 649.56213 C 341.04124 632.77215 265.95837 553.49703 255.64838 454.85706 C 255.53373 453.56785 254.42753 452.62711 253.1601 452.74182 C 251.89268 452.85648 250.95164 454.00369 251.06635 455.27112 C 261.79412 558.27038 341.71227 640.68639 443.52338 655.23596 C 454.11653 656.71538 461.78362 665.82381 461.76557 676.22815 L 461.76557 769.92541 L 461.76557 774.90002 C 466.12328 774.90002 469.62104 778.44276 469.62104 782.80041 C 469.62104 784.16216 469.30767 785.4332 468.70502 786.55237 C 470.5347 786.58817 472.3667 786.58969 474.20307 786.59729 C 473.7106 785.62713 473.38094 784.5682 473.33198 783.41174 C 473.14764 779.05799 476.52706 775.34566 480.8808 775.16174 C 485.23474 774.97712 488.9445 778.35877 489.12885 782.71252 C 489.18445 784.02399 488.90723 785.26258 488.38666 786.37854 C 490.21816 786.31474 492.06237 786.29637 493.88666 786.20471 C 493.30968 785.23566 492.91171 784.16687 492.79487 782.97424 C 492.37005 778.6374 495.57125 774.80183 499.90815 774.37659 C 500.17922 774.35079 500.42657 774.33222 500.6933 774.33362 C 504.69238 774.34762 508.10751 777.38065 508.5058 781.4469 C 508.63386 782.75432 508.43986 784.01352 507.98237 785.15588 C 509.81628 784.99092 511.6547 784.82517 513.48041 784.63245 C 512.86463 783.70251 512.39549 782.66183 512.21479 781.48987 C 511.55061 777.183 514.49781 773.16381 518.80463 772.49963 C 519.07374 772.45803 519.36853 772.4277 519.63471 772.4137 C 523.62862 772.20674 527.21722 775.05214 527.83979 779.08948 C 528.04509 780.4212 527.91421 781.69484 527.49018 782.88635 C 529.32808 782.61822 531.15955 782.31146 532.98823 782.01526 C 532.31821 781.12497 531.79503 780.12345 531.54877 778.95862 C 530.64745 774.69518 533.35174 770.52205 537.61518 769.62073 C 538.14824 769.50817 538.66124 769.44844 539.18549 769.44495 C 542.85555 769.42105 546.16431 771.95624 546.95307 775.68713 C 547.23473 777.01913 547.17999 778.3088 546.82221 779.52698 C 548.64692 779.15635 550.46286 778.74767 552.27729 778.34924 C 551.54927 777.48898 550.97631 776.49398 550.66401 775.33752 C 549.52821 771.13027 551.99791 766.78428 556.20502 765.64807 C 556.99377 765.43552 557.78682 765.35674 558.56245 765.38635 C 561.92368 765.51329 564.97166 767.81617 565.89448 771.23401 C 566.24562 772.53487 566.2653 773.84813 565.98237 775.07581 C 567.79137 774.60253 569.59491 774.13575 571.39252 773.6344 C 570.60159 772.81017 569.94312 771.82602 569.56049 770.6676 C 568.19385 766.5299 570.44018 762.08321 574.57807 760.71643 C 575.35398 760.46017 576.15931 760.3374 576.93549 760.32385 C 580.29873 760.26495 583.41872 762.37356 584.52924 765.73596 C 584.95635 767.02872 585.06013 768.32565 584.83393 769.57581 C 586.61444 769.00156 588.39003 768.43244 590.15815 767.83166 C 589.32291 767.04826 588.64138 766.08655 588.19526 764.95081 C 586.60169 760.89531 588.59052 756.3312 592.64643 754.73791 C 593.40698 754.43877 594.1847 754.27048 594.95893 754.21448 C 598.31365 753.96939 601.56461 755.89386 602.85932 759.18909 C 603.35731 760.45685 603.53825 761.76507 603.38276 763.03088 C 605.12388 762.36055 606.84834 761.67724 608.57612 760.9801 C 607.70098 760.25028 606.9433 759.33363 606.43745 758.2301 C 604.62197 754.26822 606.35869 749.61589 610.32026 747.80041 C 611.31053 747.3466 612.35241 747.08854 613.3769 747.05823 C 616.4505 746.96693 619.43312 748.71241 620.79487 751.68323 C 621.35592 752.90784 621.57253 754.18459 621.49409 755.43713 C 623.20078 754.66778 624.90731 753.91967 626.59955 753.12463 C 625.69345 752.44355 624.89366 751.57495 624.33002 750.50549 C 622.29827 746.65045 623.74836 741.88881 627.60346 739.85706 C 628.80809 739.22206 630.12811 738.92567 631.40034 738.94104 C 634.19919 738.97654 636.89793 740.52314 638.29487 743.17346 C 638.91569 744.35142 639.21512 745.59601 639.21088 746.83948 C 640.84662 745.98969 642.47888 745.13934 644.09955 744.26526 C 643.17986 743.64102 642.3517 742.83545 641.74213 741.81995 C 639.50002 738.08286 640.71254 733.23924 644.44916 730.99768 C 645.61693 730.29677 646.88703 729.91765 648.15815 729.86291 C 650.95468 729.74351 653.73009 731.13414 655.27143 733.70276 C 655.95671 734.84526 656.3396 736.08277 656.4062 737.32581 C 657.99003 736.38804 659.55114 735.40641 661.11909 734.44495 C 660.17099 733.86959 659.29502 733.10968 658.63276 732.13245 C 656.18746 728.52579 657.16435 723.62462 660.77143 721.17932 C 662.12396 720.26236 663.65798 719.8272 665.17768 719.82581 C 667.71054 719.82181 670.19638 721.06136 671.72455 723.31604 C 672.47097 724.41678 672.90191 725.61556 673.03315 726.8512 C 674.55635 725.8316 676.06578 724.79632 677.57221 723.75354 C 676.59748 723.23697 675.71191 722.50854 674.99799 721.5719 C 672.35703 718.10531 673.01415 713.17003 676.48041 710.52893 C 677.78015 709.53852 679.28536 709.00237 680.80268 708.91565 C 683.3315 708.77181 685.9158 709.84689 687.56635 712.01331 C 688.37285 713.07168 688.89423 714.23512 689.0937 715.46057 C 690.56173 714.35522 692.00671 713.22814 693.45698 712.1012 C 692.45735 711.6342 691.51355 710.9859 690.7519 710.09338 C 687.92325 706.77865 688.31017 701.83819 691.62495 699.0094 C 693.07519 697.7718 694.83147 697.11671 696.59955 697.08752 C 698.87295 697.05022 701.1628 698.01586 702.75385 699.88049 C 703.6063 700.87942 704.17872 702.00133 704.45502 703.19885 C 705.84555 702.02717 707.22934 700.85655 708.60151 699.6637 C 707.57914 699.25703 706.61657 698.63387 705.80854 697.78674 C 702.80072 694.63359 702.91706 689.66519 706.07026 686.65784 C 707.44988 685.34162 709.19318 684.60343 710.95698 684.4762 C 713.22474 684.31316 715.55038 685.14612 717.24213 686.91956 C 718.14855 687.87013 718.77771 688.97322 719.11909 690.15002 C 720.45268 688.89418 721.77568 687.62901 723.08979 686.35315 C 722.05079 686.00248 721.06261 685.45148 720.20893 684.65002 C 717.03143 681.66836 716.83422 676.69858 719.81635 673.52112 C 721.30742 671.9323 723.34092 671.09917 725.35932 671.03479 C 727.37757 670.97109 729.40136 671.6824 730.99018 673.17346 C 731.95735 674.08106 732.63723 675.14688 733.04096 676.31604 C 734.30339 674.98935 735.55091 673.64637 736.79291 672.30041 C 735.73405 672.01161 734.72142 671.5244 733.82612 670.77307 C 730.48858 667.97095 730.06334 662.98184 732.86518 659.64416 C 734.44101 657.76672 736.70284 656.7891 738.97651 656.80823 C 740.74479 656.82223 742.49092 657.4575 743.95112 658.68323 C 744.95653 659.52715 745.70205 660.56446 746.17573 661.69495 C 747.36429 660.29954 748.54367 658.87636 749.71088 657.46252 C 748.63922 657.22791 747.59162 656.80979 746.6562 656.10901 C 743.16853 653.49612 742.47304 648.55552 745.08588 645.06799 C 746.55558 643.1063 748.75026 642.03224 751.02143 641.92541 C 752.78775 641.84231 754.60106 642.35463 756.1269 643.49768 C 757.1786 644.2856 757.99745 645.26887 758.52729 646.37659 C 759.62907 644.92854 760.7208 643.47863 761.80073 642.01331 C 760.71466 641.83893 759.63215 641.43948 758.65815 640.79065 C 755.03139 638.37481 754.06066 633.46422 756.47651 629.83752 C 757.98642 627.57087 760.44559 626.36105 762.97846 626.34534 C 764.49829 626.33534 766.06955 626.7499 767.42963 627.65588 C 768.53536 628.39248 769.41254 629.35543 770.00385 630.44885 C 771.02623 628.93928 772.01594 627.39089 773.01557 625.86487 C 771.91091 625.75482 770.80445 625.41723 769.78705 624.81799 C 766.03241 622.60643 764.78256 617.75049 766.99409 613.99573 C 768.37632 611.64896 770.79409 610.31244 773.32221 610.15588 C 774.83911 610.06188 776.40838 610.37342 777.81635 611.20276 C 778.95961 611.87612 779.91454 612.7619 780.56635 613.81995 C 781.50106 612.25998 782.40306 610.68238 783.3144 609.10706 C 782.20649 609.05976 781.09118 608.82059 780.04291 608.27893 C 776.17152 606.27843 774.6381 601.50187 776.63862 597.63049 C 778.01391 594.96893 780.73466 593.4111 783.53315 593.35315 C 784.80524 593.32675 786.07729 593.60105 787.28705 594.2262 C 788.46711 594.83597 789.45427 595.69118 790.16596 596.71252 C 791.02007 595.08986 791.8676 593.46317 792.69721 591.82581 C 791.57591 591.84451 790.42847 591.66064 789.33784 591.17151 C 785.36131 589.38824 783.58391 584.71594 785.36713 580.73987 C 786.59314 578.00626 789.20886 576.28452 791.99995 576.0719 C 793.26849 575.9751 794.55433 576.212 795.79682 576.76916 C 797.0199 577.31765 798.04107 578.136 798.80854 579.12659 C 799.57868 577.44355 800.33359 575.76109 801.07807 574.06409 C 799.97048 574.14009 798.8242 574.00837 797.71674 573.58362 C 793.64817 572.02302 791.61721 567.43937 793.17768 563.37073 C 794.34824 560.31922 797.1748 558.41243 800.24799 558.30823 C 801.27233 558.27343 802.32842 558.44343 803.34565 558.83362 C 804.59678 559.31352 805.66769 560.06662 806.48823 561.01526 C 807.16184 559.29574 807.8486 557.59734 808.49604 555.86487 C 807.37646 556.01097 806.19211 555.92767 805.04877 555.56018 C 800.90017 554.22703 798.65315 549.75774 799.98627 545.60901 C 800.98618 542.49742 803.7323 540.42794 806.79487 540.15393 C 807.81586 540.06263 808.85532 540.17021 809.89252 540.50354 C 811.1683 540.91349 812.29296 541.60893 813.16596 542.51135 C 813.74433 540.75112 814.36057 539.00237 814.91205 537.2301 C 813.78918 537.44546 812.59831 537.45014 811.41987 537.14221 C 807.20364 536.04061 804.68938 531.71386 805.79096 527.49768 C 806.68599 524.07203 809.67493 521.76172 813.0351 521.60706 C 813.81045 521.57146 814.6 521.66222 815.39057 521.86877 C 816.6871 522.20751 817.82707 522.84909 818.7519 523.70081 C 819.23106 521.91287 819.69655 520.13255 820.14838 518.33362 C 819.06635 518.59156 817.90692 518.65749 816.74409 518.42151 C 812.47353 517.55478 809.72506 513.39531 810.59174 509.12463 C 811.35005 505.38786 814.64644 502.80174 818.31635 502.79651 C 818.84075 502.79561 819.35291 502.81902 819.88666 502.92737 C 821.19961 503.19383 822.36941 503.7406 823.33393 504.5426 C 823.70535 502.76421 824.03609 500.96345 824.3808 499.17541 C 823.32621 499.48471 822.17986 499.60615 821.02143 499.43713 C 816.70926 498.808 813.71457 494.80187 814.3437 490.48987 C 814.89416 486.71682 818.05465 483.93515 821.7187 483.7262 C 822.24207 483.6963 822.7519 483.73479 823.29096 483.81409 C 824.6053 484.00585 825.82196 484.52136 826.82612 485.25354 C 827.10055 483.44395 827.32126 481.61693 827.5683 479.79846 C 826.54098 480.15815 825.4056 480.33776 824.24995 480.23401 C 819.9097 479.84436 816.70407 475.97852 817.0937 471.63831 C 817.45898 467.56932 820.86224 464.52668 824.86127 464.4801 C 825.12786 464.4771 825.42015 464.4557 825.69135 464.4801 C 826.99182 464.59685 828.20133 464.99744 829.22651 465.65784 C 829.39777 463.85893 829.56063 462.05431 829.70502 460.24768 C 828.69831 460.66009 827.5919 460.89862 826.43354 460.85901 C 822.07835 460.7101 818.64579 457.05203 818.79487 452.6969 C 818.93452 448.61391 822.18169 445.37097 826.17182 445.10315 C 826.43786 445.08545 826.68466 445.09515 826.95698 445.10315 C 828.24983 445.14725 829.47456 445.47505 830.5351 446.06409 C 830.6073 444.26389 830.70846 442.45898 830.75385 440.65198 C 829.77742 441.12247 828.68063 441.41264 827.52338 441.43713 C 823.16671 441.52933 819.54133 438.06926 819.44916 433.71252 C 819.35686 429.35583 822.8171 425.73243 827.17377 425.64026 C 828.46718 425.61286 829.71114 425.89617 830.79682 426.42541 C 830.77112 424.62021 830.76143 422.81189 830.70893 421.01331 C 829.75693 421.54054 828.67885 421.88568 827.52338 421.97424 C 823.17844 422.30726 819.38966 419.03016 819.05659 414.68518 C 818.72352 410.3402 821.95768 406.5514 826.30268 406.21838 C 826.5743 406.19758 826.86421 406.16841 827.1308 406.17541 C 828.1435 406.20041 829.12316 406.36505 830.01166 406.74377 C 829.88765 404.94964 829.72467 403.16135 829.57416 401.37463 C 828.64808 401.94979 827.58233 402.35706 826.43354 402.5094 C 822.11354 403.08227 818.14702 400.06556 817.57416 395.74573 C 817.00131 391.42581 820.06099 387.45921 824.3808 386.88635 C 824.65075 386.85055 824.90145 386.80726 825.16791 386.79846 C 826.18731 386.76716 827.1741 386.94569 828.09174 387.27893 C 827.86488 385.45652 827.6469 383.63757 827.39252 381.82385 C 826.49707 382.46068 825.44302 382.9599 824.29487 383.17737 C 820.01328 383.98833 815.8967 381.17381 815.08588 376.89221 C 814.27492 372.61067 817.08931 368.45122 821.37104 367.64026 C 821.90619 367.53888 822.4171 367.50242 822.94135 367.5094 C 823.69029 367.5194 824.42649 367.64674 825.12299 367.85901 C 824.79864 366.06919 824.47017 364.27023 824.11909 362.48987 C 823.26171 363.16998 822.2411 363.69423 821.10932 363.97424 C 816.87925 365.02079 812.59728 362.39969 811.55073 358.16956 C 810.50417 353.93937 813.08224 349.70243 817.31245 348.65588 C 817.84112 348.52516 818.35893 348.41546 818.88276 348.39416 C 819.63334 348.36356 820.35495 348.47883 821.0644 348.65588 C 820.63247 346.85116 820.21518 345.03964 819.7558 343.24573 C 818.93156 343.98185 817.95659 344.60162 816.83198 344.9469 C 812.66616 346.22585 808.24773 343.87637 806.9687 339.71057 C 805.68977 335.54481 808.03938 331.16921 812.20502 329.89026 C 812.72578 329.73036 813.25555 329.59092 813.77729 329.54065 C 814.52801 329.46835 815.28212 329.49164 816.0019 329.62854 C 815.47361 327.86341 814.94353 326.10271 814.38862 324.34924 C 813.60142 325.14488 812.62821 325.81115 811.50776 326.22424 C 807.41916 327.73166 802.8903 325.64299 801.38276 321.55432 C 799.87535 317.46564 801.96394 312.93869 806.05268 311.43127 C 806.81937 311.14863 807.59011 310.99096 808.36518 310.95081 C 808.85985 310.92511 809.36655 310.92797 809.84955 310.99377 C 809.22727 309.27055 808.57769 307.55413 807.92963 305.84338 C 807.19427 306.66315 806.25586 307.3423 805.17963 307.80823 C 801.1806 309.53951 796.52417 307.70574 794.79291 303.70666 C 793.06169 299.70768 794.8954 295.05118 798.89448 293.31995 C 799.89425 292.88711 800.92425 292.67438 801.94916 292.66565 C 802.17712 292.66465 802.42229 292.69102 802.64838 292.70862 C 801.92153 290.99994 801.21948 289.29797 800.46674 287.60315 C 799.77263 288.47718 798.86649 289.25349 797.80463 289.78479 C 793.90741 291.73462 789.19209 290.14678 787.24213 286.24963 C 785.2923 282.35254 786.88016 277.63888 790.77729 275.68909 C 791.75164 275.20164 792.76606 274.9243 793.78901 274.85901 C 794.0021 274.84501 794.23118 274.85601 794.4433 274.85901 C 793.63398 273.21651 792.83377 271.55543 791.99995 269.92737 C 791.35651 270.81963 790.48317 271.61701 789.4687 272.1969 C 785.68539 274.35934 780.89469 273.05639 778.73237 269.27307 C 776.56999 265.48974 777.87289 260.65621 781.6562 258.49377 C 782.79823 257.84098 784.04882 257.49435 785.27924 257.4469 C 784.38016 255.85221 783.45213 254.26831 782.52924 252.68909 C 781.9388 253.60436 781.14652 254.45965 780.17377 255.08948 C 776.51577 257.45785 771.63207 256.38992 769.26362 252.73206 C 766.89526 249.07416 767.96104 244.19032 771.61909 241.8219 C 772.71363 241.11316 773.93606 240.71978 775.15424 240.6012 C 774.17492 239.06937 773.18947 237.53482 772.18745 236.01916 C 771.64909 236.96616 770.89621 237.82358 769.96088 238.50549 C 766.43974 241.07261 761.4869 240.28071 758.91987 236.7594 C 756.35278 233.23808 757.14463 228.33036 760.66596 225.76331 C 761.70687 225.0045 762.87854 224.51687 764.07026 224.3219 C 763.02132 222.86534 761.99803 221.39852 760.92768 219.95862 C 760.44307 220.9177 759.7183 221.80831 758.83198 222.53284 C 755.45813 225.29076 750.50598 224.77198 747.74799 221.39807 C 744.99 218.02416 745.46399 213.07202 748.83784 210.31409 C 749.8354 209.49861 750.98006 208.95699 752.1562 208.69885 C 751.03282 207.30761 749.89573 205.92619 748.7519 204.55237 C 748.32081 205.53348 747.67124 206.44716 746.83198 207.21448 C 743.6158 210.15481 738.64344 209.90722 735.70307 206.69104 C 732.76269 203.47485 732.9654 198.50252 736.18159 195.56213 C 737.12889 194.69594 738.25551 194.06171 739.41205 193.7301 C 738.21816 192.40774 737.00245 191.10655 735.78901 189.80237 C 735.41164 190.79287 734.78717 191.74828 733.99995 192.55237 C 730.95134 195.66609 725.98487 195.73409 722.87104 192.68323 C 719.75715 189.63462 719.68913 184.62318 722.74018 181.5094 C 723.63283 180.59765 724.71285 179.9286 725.83979 179.54651 C 724.5571 178.27379 723.30179 177.00278 721.99995 175.74963 C 721.68276 176.7698 721.13466 177.77454 720.38471 178.63049 C 717.51304 181.90816 712.53344 182.24438 709.2558 179.37268 C 705.97822 176.50098 705.64196 171.52143 708.51362 168.24377 C 709.36517 167.27188 710.40282 166.56113 711.52534 166.1051 C 710.1863 164.91528 708.86674 163.69672 707.50971 162.52698 C 707.24925 163.56537 706.7292 164.59702 706.02729 165.49377 C 703.34136 168.92526 698.37288 169.53329 694.94135 166.84729 C 691.50981 164.16129 690.90177 159.19282 693.58784 155.76135 C 694.38598 154.74151 695.41129 153.95356 696.51362 153.44885 C 695.10329 152.32801 693.66392 151.23211 692.23627 150.13245 C 692.03257 151.17904 691.6189 152.21428 690.97065 153.14416 C 688.47856 156.71897 683.54741 157.59904 679.9726 155.10706 C 676.39764 152.61498 675.51762 147.68377 678.00971 144.10901 C 678.75596 143.03852 679.72388 142.23016 680.80268 141.66565 C 679.31639 140.61266 677.8096 139.59857 676.30659 138.56799 C 676.15803 139.62685 675.81425 140.69851 675.21674 141.66565 C 672.9263 145.37284 668.09973 146.53037 664.39252 144.23987 C 660.68537 141.94937 659.52777 137.08182 661.8183 133.37463 C 662.5042 132.2644 663.43969 131.3764 664.48041 130.75549 C 662.94721 129.7918 661.40235 128.81541 659.85346 127.87463 C 659.77396 128.96924 659.45111 130.08159 658.89448 131.1051 C 656.81255 134.93332 652.02921 136.32961 648.20112 134.24768 C 644.37284 132.16574 642.93363 127.38254 645.01557 123.55432 C 645.64175 122.40285 646.53106 121.45188 647.54682 120.76135 C 645.97115 119.88869 644.38116 119.03638 642.79096 118.18713 C 642.76876 119.26764 642.49653 120.37658 642.00385 121.41565 C 640.13698 125.35316 635.42376 127.03646 631.48627 125.16956 C 627.54883 123.30257 625.86731 118.58944 627.73432 114.65198 C 628.30052 113.45783 629.14322 112.46978 630.13471 111.72815 C 628.49874 110.93728 626.8529 110.18203 625.20307 109.41565 C 625.24137 110.49481 625.02745 111.61929 624.59174 112.68713 C 622.94538 116.7219 618.32773 118.65572 614.29291 117.0094 C 610.25813 115.36309 608.32624 110.78831 609.9726 106.75354 C 610.47218 105.52911 611.25276 104.49733 612.19721 103.6969 C 610.4981 102.98922 608.80408 102.28507 607.09174 101.60315 C 607.19843 102.69706 607.08194 103.85619 606.69916 104.96252 C 605.27867 109.08217 600.82462 111.27175 596.70502 109.8512 C 592.58534 108.43061 590.39567 103.93373 591.81635 99.814087 C 592.24188 98.579973 592.99082 97.518093 593.86909 96.671508 C 592.1427 96.062896 590.41419 95.465 588.67573 94.882446 C 588.83633 95.953307 588.77229 97.088455 588.45698 98.198852 C 587.26645 102.39079 582.91634 104.84448 578.72455 103.65393 C 574.53266 102.46338 572.07894 98.070451 573.26948 93.87854 C 573.62626 92.622388 574.26968 91.492237 575.10346 90.605102 C 573.36328 90.099203 571.61626 89.600586 569.86518 89.120727 C 570.08787 90.194032 570.07656 91.341675 569.82221 92.482055 C 568.86531 96.733407 564.64772 99.417406 560.39643 98.460571 C 556.145 97.503735 553.50398 93.286137 554.46088 89.03479 C 554.75234 87.739452 555.35468 86.577804 556.16205 85.630493 C 554.38265 85.218757 552.58445 84.837625 550.79487 84.452758 C 551.07691 85.510338 551.12098 86.660698 550.92573 87.812133 C 550.20555 92.109906 546.14539 94.991313 541.8476 94.271118 C 537.54985 93.550918 534.66843 89.49076 535.38862 85.192993 C 535.60499 83.901649 536.1411 82.725535 536.87299 81.745727 C 535.09558 81.437598 533.29215 81.154275 531.5058 80.87268 C 531.83872 81.903391 531.93767 83.046652 531.81049 84.19104 C 531.32911 88.522059 527.41296 91.609902 523.08198 91.12854 C 518.75095 90.647173 515.66127 86.77597 516.14252 82.444946 C 516.28671 81.147876 516.77693 79.969448 517.45307 78.952758 C 515.65695 78.742824 513.84516 78.52443 512.04096 78.34143 C 512.42232 79.343638 512.58441 80.478077 512.52143 81.614868 C 512.28039 85.965871 508.53649 89.275838 504.18549 89.03479 C 499.8344 88.793736 496.52648 85.09283 496.76752 80.741821 C 496.83862 79.460365 497.25534 78.248339 497.85737 77.206665 C 496.05565 77.0962 494.25415 77.028514 492.44526 76.944946 C 492.86933 77.913191 493.10151 79.008964 493.10151 80.132446 C 493.10151 84.490144 489.55877 87.987915 485.20112 87.987915 C 480.84342 87.987915 477.30268 84.490144 477.30268 80.132446 C 477.30268 78.854593 477.63542 77.621106 478.17573 76.552368 C 477.37447 76.546768 476.57782 76.509399 475.77534 76.509399 z M 475.77534 351.01331 C 482.75804 351.01331 489.51833 351.87571 495.98041 353.54456 C 486.84902 355.52067 479.36896 361.84248 475.77534 370.2594 C 472.18461 361.85552 464.7252 355.53091 455.61323 353.54456 C 462.07489 351.88921 468.82165 351.01331 475.77534 351.01331 z M 423.09955 370.39026 C 421.65085 373.81531 420.83002 377.56641 420.83002 381.51916 C 420.83002 386.88821 422.31944 391.88735 424.88862 396.18127 C 423.20246 395.87145 421.4722 395.70081 419.69526 395.70081 C 411.78975 395.70081 404.62802 398.90095 399.44721 404.08166 C 404.29705 390.90681 412.56216 379.33876 423.09955 370.39026 z M 528.58002 370.69495 C 538.64958 379.42806 546.51474 390.62771 551.27534 403.33948 C 546.1698 398.61337 539.3593 395.70081 531.85346 395.70081 C 530.07653 395.70081 528.34961 395.87142 526.6601 396.18127 C 529.2318 391.88735 530.71869 386.88821 530.7187 381.51916 C 530.7187 377.68344 529.94861 374.03802 528.58002 370.69495 z M 394.90815 438.6012 C 399.56745 446.66396 408.02912 452.25278 417.86323 452.87268 C 412.46274 458.0798 409.09174 465.37597 409.09174 473.47034 C 409.09174 474.95262 409.22211 476.41204 409.4394 477.83362 C 401.39954 466.53792 396.18415 453.1358 394.90815 438.6012 z M 555.9433 439.82385 C 554.54376 453.59533 549.64913 466.30456 542.19721 477.13635 C 542.35117 475.9345 542.45893 474.71401 542.45893 473.47034 C 542.45893 465.37597 539.08788 458.0798 533.68745 452.87268 C 543.02426 452.28411 551.15831 447.23382 555.9433 439.82385 z M 461.76557 489.00745 L 461.76557 510.9137 C 452.8001 509.35025 444.35198 506.30698 436.62885 502.05627 C 436.98901 502.07027 437.35714 502.09924 437.72065 502.09924 C 447.80614 502.09924 456.66595 496.8882 461.76557 489.00745 z M 489.82807 489.05041 C 494.93342 496.90307 503.76409 502.09924 513.83002 502.09924 C 514.14982 502.09924 514.47367 502.06667 514.79096 502.05627 C 507.14533 506.29356 498.7388 509.34593 489.82807 510.9137 L 489.82807 489.05041 z " />
    <path
       style="fill:none;stroke:none;stroke-width:2"
       d="m 453.7458,774.46714 c -0.92454,-34.48888 -1.84907,-68.97777 -2.77361,-103.46665 -20.25626,-13.80274 -47.38394,-8.87821 -67.57114,-23.31027 -24.37285,-10.42472 -46.16218,-25.49173 -66.45486,-42.31859 -18.25723,-20.89717 -37.57264,-41.02586 -50.07145,-66.10488 -15.07199,-19.53808 -17.12075,-44.58537 -24.20227,-67.50365 1.05342,-10.61894 -5.58627,-25.38917 8.5473,-28.94993 13.94917,2.50236 13.97585,15.20918 15.67447,26.69055 3.98779,37.17972 26.71702,68.23709 45.55986,99.37062 20.34355,19.51407 42.66087,37.42209 66.63778,52.00062 19.86707,6.75616 39.76699,17.27385 60.34275,19.4754 15.56847,-1.0134 12.72452,-14.23847 12.29645,-25.86125 -0.20208,-29.49372 -0.40415,-58.98743 -0.60623,-88.48115 -16.32646,-8.90789 -33.98036,-16.0849 -45.1304,-31.7424 -12.5761,-12.18044 -17.63158,-30.28412 -24.46265,-45.85407 -2.10739,-15.32412 -0.43692,-30.19209 5.32834,-44.56565 2.46245,-13.18973 7.93154,-24.72426 18.15136,-33.64344 11.73069,-18.92346 36.01722,-22.0139 52.39681,-34.68504 11.58956,-10.05982 -1.19166,-22.15777 -13.40577,-17.98083 -16.54621,7.43981 -34.74386,14.70925 -48.70718,26.26439 -13.40897,16.67417 -27.01543,34.37207 -33.18746,54.96346 -4.90134,29.76786 -5.29187,61.25573 8.41461,88.90087 12.26406,23.36475 36.09959,37.4427 55.62265,54.34787 4.98946,11.98113 -9.31973,23.11375 -18.43356,12.3625 -24.61303,-10.92233 -42.52806,-32.26522 -56.91927,-54.42215 -8.92337,-17.38559 -10.67577,-37.50177 -21.02685,-54.12081 -13.59834,-6.32622 -16.23493,10.42669 -16.03358,20.45719 10.64867,39.23508 31.46895,77.63706 66.62713,99.83808 12.99477,11.6175 30.58866,15.62814 43.81434,26.70544 9.21237,10.81357 -4.94335,23.04894 -15.10703,14.94506 -22.30066,-11.01487 -44.27197,-22.53707 -62.68894,-39.53417 -20.62127,-19.80421 -39.86055,-42.4687 -47.17306,-70.7788 -7.76016,-20.96257 -11.16869,-43.67688 -11.77637,-65.87646 1.00332,-19.6754 0.45041,-39.6558 9.35843,-57.78196 8.66118,-30.11698 27.18504,-56.91099 49.3384,-78.72519 22.68393,-22.12067 51.96946,-36.79943 82.21029,-45.4099 11.56889,-2.24323 23.14002,-4.55272 34.48013,-0.007 3.32056,15.12186 -8.75272,17.9261 -20.88989,20.36704 -25.23369,5.03713 -50.80838,13.56419 -68.71476,32.96365 -28.57755,22.8888 -51.48587,54.85275 -58.32818,91.21855 -3.73679,8.78371 -0.40667,29.67412 10.91281,24.85593 13.67925,-1.69826 10.57278,-17.75688 14.8624,-27.48806 4.18943,-19.4315 13.17327,-36.99417 26.79143,-51.48117 15.28974,-17.73246 35.57122,-30.57949 56.64277,-40.21094 26.9681,-11.67344 57.15856,-10.13686 85.53158,-6.17952 25.09129,8.497 49.28449,20.63967 67.30449,40.50362 14.92415,14.0929 24.30653,32.17729 31.16793,51.30925 3.53967,10.45588 9.67564,27.23214 -3.67759,32.92503 -11.9107,3.10267 -14.8837,-14.57089 -18.50873,-23.4434 -7.63419,-25.66553 -25.17345,-46.98211 -47.95095,-60.74956 -10.38366,-9.90105 -24.93482,-11.89392 -37.82602,-17.03671 -12.87903,1.73471 -18.71482,19.59302 -2.84634,21.37649 19.3587,7.60016 36.90746,19.30929 51.91442,33.41874 11.96227,18.1207 22.61014,38.56183 19.46071,60.93996 0.94648,15.76527 -3.34845,32.45815 -11.55082,45.6959 -10.99046,17.28462 -27.49014,28.80296 -44.09762,40.18442 -12.58821,2.34676 -14.26696,20.48602 -3.76391,23.44033 15.05537,2.86985 26.27978,-9.74801 37.47359,-17.85443 13.51892,-12.61122 28.8781,-23.8259 34.98017,-42.06564 6.85579,-10.81002 8.20459,-25.73637 15.71698,-35.1957 9.76928,-9.35584 25.33036,2.7109 18.56046,13.76127 -9.28448,23.55462 -18.62535,48.2452 -37.47136,65.90782 -18.6684,19.45117 -42.40461,34.61881 -68.15494,42.93057 -13.63353,0.85287 -16.6831,19.40264 -6.25281,23.19926 20.44191,1.362 37.4816,-13.32836 56.04142,-20.00194 15.35601,-9.08347 29.31364,-19.72456 39.43699,-34.63661 15.93942,-16.09178 26.27013,-36.45808 34.21864,-57.36352 7.95215,-25.77486 9.12552,-53.00189 3.40585,-79.35913 -7.25349,-34.79574 -22.99377,-69.48981 -51.49036,-92.03135 -13.2179,-11.54697 -28.27922,-21.96129 -44.23765,-29.06116 -17.44631,-5.49346 -35.01086,-10.66965 -51.54536,-18.6095 -5.25252,-13.62543 4.26147,-20.36647 17.08899,-17.19498 21.76286,4.70375 42.55124,11.97526 61.83451,23.21272 17.39254,8.47863 32.17194,22.26052 45.15234,36.42191 17.43925,19.79348 32.11513,42.00785 39.5237,67.51748 8.33797,15.63164 4.34098,35.51233 17.50514,48.74377 16.02749,0.98465 14.64036,-12.17435 14.59778,-24.24134 -5.97199,-26.44833 -14.74479,-52.94741 -29.91443,-75.58296 -19.72589,-28.02162 -42.68537,-54.18513 -72.17323,-72.2082 -20.48151,-11.27435 -41.99703,-21.02 -65.46894,-23.853 -23.72895,-5.10022 -47.98384,-8.3943 -72.05218,-3.66376 -30.91578,1.09552 -57.44965,19.39859 -84.93206,31.74133 -19.654,14.77256 -38.10105,30.80338 -53.18722,50.33797 -14.91132,15.91978 -22.21931,37.33485 -31.57548,56.74269 -9.29567,18.23896 -9.26633,39.21744 -17.55276,57.85623 -16.71446,5.04385 -16.08965,-7.80238 -15.41563,-20.69937 2.7361,-27.33574 11.61499,-54.13689 23.86476,-78.76942 15.47655,-27.05586 37.66404,-49.21778 59.33047,-71.17801 24.97524,-16.11113 51.38638,-30.62672 79.36125,-40.52657 18.97422,-5.47753 39.48049,-6.62429 56.92834,-16.41649 3.17333,-13.38403 -9.99196,-18.68697 -21.06605,-15.78785 -28.9649,4.16778 -56.61467,15.96318 -83.45714,27.30551 -23.45654,11.67395 -44.58486,27.84401 -64.0811,45.08798 -16.96605,18.52568 -34.43518,36.68506 -45.30585,59.64881 -10.57139,18.07969 -17.53704,38.37916 -24.00353,58.14393 -4.55516,30.58429 -9.91045,61.72324 -7.17595,92.59456 5.89998,30.04525 11.44349,60.51926 26.42424,87.61169 8.63325,23.20156 24.20283,42.86961 39.54323,61.88487 25.99341,25.82248 55.6633,47.91491 89.27346,62.79511 15.28904,7.26838 31.83455,11.59757 48.15662,15.95973 10.60848,6.93191 6.05269,23.85646 -5.73425,24.01584 -19.06952,-4.91839 -38.23159,-12.90596 -56.41451,-20.99599 -35.08968,-18.40285 -68.6833,-40.56517 -95.37064,-70.144 -15.90644,-20.10323 -31.46447,-41.30759 -43.95794,-63.61258 -11.09841,-33.22331 -23.46474,-66.66996 -24.7009,-102.03599 -3.98902,-11.49617 -20.87069,-11.39189 -23.01716,1.0832 -3.97238,10.8556 -0.26696,24.15214 1.9695,35.437 9.45555,34.05211 17.26098,69.4241 38.45207,98.51896 16.47696,27.39011 36.71441,52.53882 61.1351,73.26059 23.94636,23.42611 54.3493,38.9615 84.62219,52.44878 23.83815,10.44174 50.57883,14.50266 72.63041,28.62429 -1.45879,13.63373 -17.28163,14.25889 -27.55001,10.09684 -33.53414,-7.73521 -65.89358,-20.52123 -95.86053,-37.20848 -32.77662,-22.18141 -65.76367,-45.67172 -88.72092,-78.5053 -19.97586,-21.98177 -33.36051,-48.5187 -46.60807,-74.80069 -9.11425,-30.91004 -21.89454,-61.02185 -23.37324,-93.5944 -5.23706,-32.28374 -3.42271,-65.35287 4.60947,-97.01651 6.08091,-36.04985 19.57707,-70.37843 37.33955,-102.22313 14.42766,-25.89778 33.91096,-48.94464 53.07435,-71.3739 27.76494,-25.8558 58.89078,-47.66511 92.65476,-64.98896 33.6603,-16.89352 71.33338,-24.70874 108.668,-28.56036 10.53921,-1.86042 27.71248,10.85608 13.46629,18.42538 -15.81597,6.29077 -34.75337,6.14522 -51.35409,11.88602 -28.70197,5.71473 -54.99651,19.48331 -81.27736,31.71853 -23.37208,15.05737 -46.43126,30.51307 -65.84866,50.60507 -19.92702,17.22628 -33.15432,40.72835 -49.01646,61.47741 -13.55643,25.45242 -24.86077,51.81752 -32.54015,79.6517 -5.6576,18.19382 -9.10681,37.48304 -5.2696,56.40716 6.76291,10.63606 23.11232,-0.28923 22.31721,-9.85447 3.20481,-27.32211 7.36403,-55.21542 17.435,-81.01759 12.95729,-29.73016 31.86417,-55.97229 52.88993,-80.46295 21.31959,-25.2678 49.05261,-44.76041 77.9132,-60.53213 26.65692,-13.88632 56.17528,-21.14537 85.02877,-28.65112 35.23805,-4.2652 71.05134,-6.70263 105.98372,1.1798 28.64171,5.84683 56.62798,16.90576 81.51039,32.16069 31.11217,19.27807 60.18578,42.1871 82.4294,71.51141 30.84101,38.85702 51.70421,86.30372 55.5725,136.05996 0.30734,7.89639 2.63673,25.88506 -9.02653,24.37586 -15.59079,-0.22398 -11.59033,-18.95155 -13.99412,-29.73886 -2.37176,-21.9659 -11.78792,-42.68494 -19.09576,-63.3493 -18.09263,-36.62728 -44.77412,-68.37435 -74.97792,-95.57569 -34.85536,-30.34741 -79.87709,-46.06713 -124.63393,-54.62324 -8.94617,-2.32003 -27.27753,-1.13047 -24.28979,11.43824 0.68099,12.55012 19.54693,8.45218 28.39893,13.52186 27.1774,7.61476 55.52465,12.70954 79.38642,28.62391 26.84678,16.55896 52.19504,36.47628 69.32224,63.43783 19.49036,26.22425 32.03847,57.37651 40.49415,88.70387 5.99338,36.14645 4.06745,72.94824 -3.29742,108.73889 -8.67807,28.23921 -18.48266,56.87982 -37.37067,80.18218 -15.76851,21.58014 -35.01835,40.55712 -57.37988,55.3206 -25.27955,18.98337 -55.41537,29.94345 -86.17526,36.26957 -11.21424,2.01417 -21.15107,5.94223 -21.44508,18.88647 9.2875,9.0715 20.19335,7.13451 31.3901,3.21874 34.3733,-7.47973 65.92533,-24.16007 96.85224,-40.46071 18.46011,-16.13654 37.94105,-31.32395 51.07271,-52.41478 17.69838,-22.6742 32.25668,-48.05438 39.57515,-76.02528 8.08006,-22.88455 12.40156,-46.77546 18.9654,-70.08624 12.47197,-4.96843 22.6225,4.91947 19.85982,17.63952 -3.76582,31.66935 -14.3723,62.72819 -27.66829,91.59554 -18.46288,33.6042 -41.42588,64.53803 -69.51441,90.72945 -29.17345,26.65739 -65.77597,44.24061 -102.75749,57.27342 -16.90815,5.4867 -34.9287,8.2209 -51.79143,12.45747 -11.82367,6.65341 -1.79712,24.2918 10.29403,19.66879 27.46993,-1.70102 53.51526,-12.29579 78.77421,-22.39544 26.09083,-12.67677 52.17513,-26.5783 74.80984,-44.66968 20.12246,-18.70267 40.34282,-37.31826 55.4139,-60.51396 18.10723,-24.6628 30.88313,-53.21696 41.32943,-81.85803 9.97329,-33.69284 15.7933,-69.00884 15.63724,-104.0579 -3.92549,-35.05588 -9.01567,-70.29339 -23.40525,-102.80005 -9.67424,-22.64655 -19.99302,-45.07272 -36.7224,-63.48835 -23.94505,-32.72421 -51.69648,-63.68167 -88.12476,-82.69797 -31.35973,-20.75084 -67.44185,-33.90623 -104.03203,-41.60396 -13.72854,-1.72147 -29.87825,-1.80849 -41.38226,-8.81955 -10.91401,-10.34939 6.82071,-18.95199 16.3825,-16.01686 44.57446,2.40831 86.46944,18.75786 127.02263,36.25285 19.64677,10.05611 36.95846,24.85034 54.7681,37.90483 22.80237,19.51081 41.95319,42.37601 60.04713,66.21209 15.59668,25.55165 31.56327,51.15827 40.12182,80.11251 9.06781,26.59232 11.72305,55.18819 15.06615,83.00025 3.97601,43.6327 -4.85268,87.17962 -15.52782,129.20814 -10.98533,33.05993 -26.04633,64.68052 -47.69791,92.13189 -18.78017,26.7339 -44.69607,47.73435 -70.34827,67.59654 -26.87316,17.34838 -55.75856,31.79167 -84.86486,44.74165 -29.38961,7.49814 -59.1843,16.67488 -89.58873,16.98454 -12.27815,1.55776 -21.86129,-6.58845 -17.72652,-19.21796 0.2893,-30.88628 0.57859,-61.77256 0.86789,-92.65884 14.68184,-9.16496 32.39854,-3.39962 48.01649,-10.05001 26.5161,-5.74162 52.43172,-15.45729 73.68104,-32.68518 23.73807,-17.01719 42.87629,-39.92417 60.27481,-63.08735 13.27254,-27.35468 21.28419,-56.7105 27.69273,-86.32942 -3.39635,-10.89492 -19.9655,-15.25942 -24.57801,-3.24131 -4.09524,27.74919 -12.19859,54.70227 -26.87759,78.78596 -8.84338,17.10316 -25.21235,29.00297 -37.84433,43.27852 -22.12147,19.51956 -49.55386,32.37173 -77.63484,40.70349 -15.06001,2.00832 -33.22433,9.12095 -45.19683,-3.76963 -0.30418,-59.5298 -0.60837,-119.05961 -0.91255,-178.58941"
       id="centerline"
       inkscape:label="centerline" />
  </g>
</svg>
