<?xml version="1.0" encoding="UTF-8" standalone="no"?>
<!-- Created with Inkscape (http://www.inkscape.org/) -->

<svg
   width="730"
   height="730.00012"
   id="svg3767"
   version="1.1"
   inkscape:version="1.2.2 (b0a8486541, 2022-12-01)"
   sodipodi:docname="centerline1.svg"
   xmlns:inkscape="http://www.inkscape.org/namespaces/inkscape"
   xmlns:sodipodi="http://sodipodi.sourceforge.net/DTD/sodipodi-0.dtd"
   xmlns="http://www.w3.org/2000/svg"
   xmlns:svg="http://www.w3.org/2000/svg"
   xmlns:rdf="http://www.w3.org/1999/02/22-rdf-syntax-ns#"
   xmlns:cc="http://creativecommons.org/ns#"
   xmlns:dc="http://purl.org/dc/elements/1.1/">
  <defs
     id="defs3769" />
  <sodipodi:namedview
     id="base"
     pagecolor="#ffffff"
     bordercolor="#666666"
     borderopacity="1.0"
     inkscape:pageopacity="0.0"
     inkscape:pageshadow="2"
     inkscape:zoom="0.98994949"
     inkscape:cx="54.548238"
     inkscape:cy="386.38335"
     inkscape:document-units="px"
     inkscape:current-layer="layer1"
     showgrid="false"
     fit-margin-top="10"
     fit-margin-left="10"
     fit-margin-bottom="10"
     fit-margin-right="10"
     inkscape:window-width="1366"
     inkscape:window-height="720"
     inkscape:window-x="0"
     inkscape:window-y="25"
     inkscape:window-maximized="1"
     inkscape:showpageshadow="2"
     inkscape:pagecheckerboard="0"
     inkscape:deskcolor="#d1d1d1" />
  <metadata
     id="metadata3772" />
  <rdf:RDF>
    <cc:Work
       rdf:about="">
      <dc:format>image/svg+xml</dc:format>
      <dc:type
         rdf:resource="http://purl.org/dc/dcmitype/StillImage" />
    </cc:Work>
  </rdf:RDF>
  <g
     inkscape:label="Layer 1"
     inkscape:groupmode="layer"
     id="layer1">
    <path
       style="fill:none;stroke:none;stroke-width:1;stroke-dasharray:none"
       d="m 343.55217,709.84672 c -0.92454,-34.48888 -1.84907,-68.97777 -2.77361,-103.46665 -20.25626,-13.80274 -47.38394,-8.87821 -67.57114,-23.31027 -24.37285,-10.42472 -46.16218,-25.49173 -66.45486,-42.31859 -18.25723,-20.89717 -37.57264,-41.02586 -50.07145,-66.10488 -15.07199,-19.53808 -17.12075,-44.58537 -24.20227,-67.50365 1.05342,-10.61894 -5.58627,-25.38917 8.5473,-28.94993 13.94917,2.50236 13.97585,15.20918 15.67447,26.69055 3.98779,37.17972 26.71702,68.23709 45.55986,99.37062 20.34355,19.51407 42.66087,37.42209 66.63778,52.00062 19.86707,6.75616 39.76699,17.27385 60.34275,19.4754 15.56847,-1.0134 12.72452,-14.23847 12.29645,-25.86125 -0.20208,-29.49372 -0.40415,-58.98743 -0.60623,-88.48115 -16.32646,-8.90789 -33.98036,-16.0849 -45.1304,-31.7424 -12.5761,-12.18044 -17.63158,-30.28412 -24.46265,-45.85407 -2.10739,-15.32412 -0.43692,-30.19209 5.32834,-44.56565 2.46245,-13.18973 7.93154,-24.72426 18.15136,-33.64344 11.73069,-18.92346 36.01722,-22.0139 52.39681,-34.68504 11.58956,-10.05982 -1.19166,-22.15777 -13.40577,-17.98083 -16.54621,7.43981 -34.74386,14.70925 -48.70718,26.26439 -13.40897,16.67417 -27.01543,34.37207 -33.18746,54.96346 -4.90134,29.76786 -5.29187,61.25573 8.41461,88.90087 12.26406,23.36475 36.09959,37.4427 55.62265,54.34787 4.98946,11.98113 -9.31973,23.11375 -18.43356,12.3625 -24.61303,-10.92233 -42.52806,-32.26522 -56.91927,-54.42215 -8.92337,-17.38559 -10.67577,-37.50177 -21.02685,-54.12081 -13.59834,-6.32622 -16.23493,10.42669 -16.03358,20.45719 10.64867,39.23508 31.46895,77.63706 66.62713,99.83808 12.99477,11.6175 30.58866,15.62814 43.81434,26.70544 9.21237,10.81357 -4.94335,23.04894 -15.10703,14.94506 -22.30066,-11.01487 -44.27197,-22.53707 -62.68894,-39.53417 -20.62127,-19.80421 -39.86055,-42.4687 -47.17306,-70.7788 -7.76016,-20.96257 -11.16869,-43.67688 -11.77637,-65.87646 1.00332,-19.6754 0.45041,-39.6558 9.35843,-57.78196 8.66118,-30.11698 27.18504,-56.91099 49.3384,-78.72519 22.68393,-22.12067 51.96946,-36.79943 82.21029,-45.4099 11.56889,-2.24323 23.14002,-4.55272 34.48013,-0.007 3.32056,15.12186 -8.75272,17.9261 -20.88989,20.36704 -25.23369,5.03713 -50.80838,13.56419 -68.71476,32.96365 -28.57755,22.8888 -51.48587,54.85275 -58.32818,91.21855 -3.73679,8.78371 -0.40667,29.67412 10.91281,24.85593 13.67925,-1.69826 10.57278,-17.75688 14.8624,-27.48806 4.18943,-19.4315 13.17327,-36.99417 26.79143,-51.48117 15.28974,-17.73246 35.57122,-30.57949 56.64277,-40.21094 26.9681,-11.67344 57.15856,-10.13686 85.53158,-6.17952 25.09129,8.497 49.28449,20.63967 67.30449,40.50362 14.92415,14.0929 24.30653,32.17729 31.16793,51.30925 3.53967,10.45588 9.67564,27.23214 -3.67759,32.92503 -11.9107,3.10267 -14.8837,-14.57089 -18.50873,-23.4434 -7.63419,-25.66553 -25.17345,-46.98211 -47.95095,-60.74956 -10.38366,-9.90105 -24.93482,-11.89392 -37.82602,-17.03671 -12.87903,1.73471 -18.71482,19.59302 -2.84634,21.37649 19.3587,7.60016 36.90746,19.30929 51.91442,33.41874 11.96227,18.1207 22.61014,38.56183 19.46071,60.93996 0.94648,15.76527 -3.34845,32.45815 -11.55082,45.6959 -10.99046,17.28462 -27.49014,28.80296 -44.09762,40.18442 -12.58821,2.34676 -14.26696,20.48602 -3.76391,23.44033 15.05537,2.86985 26.27978,-9.74801 37.47359,-17.85443 13.51892,-12.61122 28.8781,-23.8259 34.98017,-42.06564 6.85579,-10.81002 8.20459,-25.73637 15.71698,-35.1957 9.76928,-9.35584 25.33036,2.7109 18.56046,13.76127 -9.28448,23.55462 -18.62535,48.2452 -37.47136,65.90782 -18.6684,19.45117 -42.40461,34.61881 -68.15494,42.93057 -13.63353,0.85287 -16.6831,19.40264 -6.25281,23.19926 20.44191,1.362 37.4816,-13.32836 56.04142,-20.00194 15.35601,-9.08347 29.31364,-19.72456 39.43699,-34.63661 15.93942,-16.09178 26.27013,-36.45808 34.21864,-57.36352 7.95215,-25.77486 9.12552,-53.00189 3.40585,-79.35913 -7.25349,-34.79574 -22.99377,-69.48981 -51.49036,-92.03135 -13.2179,-11.54697 -28.27922,-21.96129 -44.23765,-29.06116 -17.44631,-5.49346 -35.01086,-10.66965 -51.54536,-18.6095 -5.25252,-13.62543 4.26147,-20.36647 17.08899,-17.19498 21.76286,4.70375 42.55124,11.97526 61.83451,23.21272 17.39254,8.47863 32.17194,22.26052 45.15234,36.42191 17.43925,19.79348 32.11513,42.00785 39.5237,67.51748 8.33797,15.63164 4.34098,35.51233 17.50514,48.74377 16.02749,0.98465 14.64036,-12.17435 14.59778,-24.24134 -5.97199,-26.44833 -14.74479,-52.94741 -29.91443,-75.58296 -19.72589,-28.02162 -42.68537,-54.18513 -72.17323,-72.2082 -20.48151,-11.27435 -41.99703,-21.02 -65.46894,-23.853 -23.72895,-5.10022 -47.98384,-8.3943 -72.05218,-3.66376 -30.91578,1.09552 -57.44965,19.39859 -84.93206,31.74133 -19.654,14.77256 -38.10105,30.80338 -53.18722,50.33797 -14.91132,15.91978 -22.21931,37.33485 -31.57548,56.74269 -9.29567,18.23896 -9.26633,39.21744 -17.55276,57.85623 -16.71446,5.04385 -16.08965,-7.80238 -15.41563,-20.69937 2.7361,-27.33574 11.61499,-54.13689 23.86476,-78.76942 15.47655,-27.05586 37.66404,-49.21778 59.33047,-71.17801 24.97524,-16.11113 51.38638,-30.62672 79.36125,-40.52657 18.97422,-5.47753 39.48049,-6.62429 56.92834,-16.41649 3.17333,-13.38403 -9.99196,-18.68697 -21.06605,-15.78785 -28.9649,4.16778 -56.61467,15.96318 -83.45714,27.30551 -23.45654,11.67395 -44.58486,27.84401 -64.0811,45.08798 -16.96605,18.52568 -34.43518,36.68506 -45.30585,59.64881 -10.57139,18.07969 -17.53704,38.37916 -24.00353,58.14393 -4.55516,30.58429 -9.91045,61.72324 -7.17595,92.59456 5.89998,30.04525 11.44349,60.51926 26.42424,87.61169 8.63325,23.20156 24.20283,42.86961 39.54323,61.88487 25.99341,25.82248 55.6633,47.91491 89.27346,62.79511 15.28904,7.26838 31.83455,11.59757 48.15662,15.95973 10.60848,6.93191 6.05269,23.85646 -5.73425,24.01584 -19.06952,-4.91839 -38.23159,-12.90596 -56.41451,-20.99599 -35.08968,-18.40285 -68.6833,-40.56517 -95.37064,-70.144 -15.90644,-20.10323 -31.46447,-41.30759 -43.95794,-63.61258 -11.098412,-33.22331 -23.464742,-66.66996 -24.700902,-102.03599 -3.98902,-11.49617 -20.87069,-11.39189 -23.01716,1.0832 -3.97238,10.8556 -0.26696,24.15214 1.9695,35.437 9.45555,34.05211 17.26098,69.4241 38.452072,98.51896 16.47696,27.39011 36.71441,52.53882 61.1351,73.26059 23.94636,23.42611 54.3493,38.9615 84.62219,52.44878 23.83815,10.44174 50.57883,14.50266 72.63041,28.62429 -1.45879,13.63373 -17.28163,14.25889 -27.55001,10.09684 -33.53414,-7.73521 -65.89358,-20.52123 -95.86053,-37.20848 -32.77662,-22.18141 -65.76367,-45.67172 -88.72092,-78.5053 -19.975862,-21.98177 -33.360512,-48.5187 -46.608072,-74.80069 -9.11425,-30.91004 -21.89454,-61.02185 -23.37324,-93.5944 -5.23706,-32.28374 -3.42271,-65.35287 4.60947,-97.01651 6.08091,-36.04985 19.57707,-70.37843 37.33955,-102.22313 14.42766,-25.89778 33.910962,-48.94464 53.074352,-71.3739 27.76494,-25.8558 58.89078,-47.66511 92.65476,-64.98896 33.6603,-16.89352 71.33338,-24.70874 108.668,-28.56036 10.53921,-1.86042 27.71248,10.85608 13.46629,18.42538 -15.81597,6.29077 -34.75337,6.14522 -51.35409,11.88602 -28.70197,5.71473 -54.99651,19.48331 -81.27736,31.71853 -23.37208,15.05737 -46.43126,30.51307 -65.84866,50.60507 -19.92702,17.22628 -33.15432,40.72835 -49.01646,61.47741 -13.556432,25.45242 -24.860772,51.81752 -32.540152,79.6517 -5.6576,18.19382 -9.10681,37.48304 -5.2696,56.40716 6.76291,10.63606 23.11232,-0.28923 22.31721,-9.85447 3.20481,-27.32211 7.36403,-55.21542 17.435002,-81.01759 12.95729,-29.73016 31.86417,-55.97229 52.88993,-80.46295 21.31959,-25.2678 49.05261,-44.76041 77.9132,-60.53213 26.65692,-13.88632 56.17528,-21.14537 85.02877,-28.65112 35.23805,-4.2652 71.05134,-6.70263 105.98372,1.1798 28.64171,5.84683 56.62798,16.90576 81.51039,32.16069 31.11217,19.27807 60.18578,42.1871 82.4294,71.51141 30.84101,38.85702 51.70421,86.30372 55.5725,136.05996 0.30734,7.89639 2.63673,25.88506 -9.02653,24.37586 -15.59079,-0.22398 -11.59033,-18.95155 -13.99412,-29.73886 -2.37176,-21.9659 -11.78792,-42.68494 -19.09576,-63.3493 -18.09263,-36.62728 -44.77412,-68.37435 -74.97792,-95.57569 -34.85536,-30.34741 -79.87709,-46.06713 -124.63393,-54.62324 -8.94617,-2.32003 -27.27753,-1.13047 -24.28979,11.43824 0.68099,12.55012 19.54693,8.45218 28.39893,13.52186 27.1774,7.61476 55.52465,12.70954 79.38642,28.62391 26.84678,16.55896 52.19504,36.47628 69.32224,63.43783 19.49036,26.22425 32.03847,57.37651 40.49415,88.70387 5.99338,36.14645 4.06745,72.94824 -3.29742,108.73889 -8.67807,28.23921 -18.48266,56.87982 -37.37067,80.18218 -15.76851,21.58014 -35.01835,40.55712 -57.37988,55.3206 -25.27955,18.98337 -55.41537,29.94345 -86.17526,36.26957 -11.21424,2.01417 -21.15107,5.94223 -21.44508,18.88647 9.2875,9.0715 20.19335,7.13451 31.3901,3.21874 34.3733,-7.47973 65.92533,-24.16007 96.85224,-40.46071 18.46011,-16.13654 37.94105,-31.32395 51.07271,-52.41478 17.69838,-22.6742 32.25668,-48.05438 39.57515,-76.02528 8.08006,-22.88455 12.40156,-46.77546 18.9654,-70.08624 12.47197,-4.96843 22.6225,4.91947 19.85982,17.63952 -3.76582,31.66935 -14.3723,62.72819 -27.66829,91.59554 -18.46288,33.6042 -41.42588,64.53803 -69.51441,90.72945 -29.17345,26.65739 -65.77597,44.24061 -102.75749,57.27342 -16.90815,5.4867 -34.9287,8.2209 -51.79143,12.45747 -11.82367,6.65341 -1.79712,24.2918 10.29403,19.66879 27.46993,-1.70102 53.51526,-12.29579 78.77421,-22.39544 26.09083,-12.67677 52.17513,-26.5783 74.80984,-44.66968 20.12246,-18.70267 40.34282,-37.31826 55.4139,-60.51396 18.10723,-24.6628 30.88313,-53.21696 41.32943,-81.85803 9.97329,-33.69284 15.7933,-69.00884 15.63724,-104.0579 -3.92549,-35.05588 -9.01567,-70.29339 -23.40525,-102.80005 -9.67424,-22.64655 -19.99302,-45.07272 -36.7224,-63.48835 -23.94505,-32.72421 -51.69648,-63.68167 -88.12476,-82.69797 -31.35973,-20.75084 -67.44185,-33.90623 -104.03203,-41.60396 -13.72854,-1.72147 -29.87825,-1.80849 -41.38226,-8.81955 -10.91401,-10.34939 6.82071,-18.95199 16.3825,-16.01686 44.57446,2.40831 86.46944,18.75786 127.02263,36.25285 19.64677,10.05611 36.95846,24.85034 54.7681,37.90483 22.80237,19.51081 41.95319,42.37601 60.04713,66.21209 15.59668,25.55165 31.56327,51.15827 40.12182,80.11251 9.06781,26.59232 11.72305,55.18819 15.06615,83.00025 3.97601,43.6327 -4.85268,87.17962 -15.52782,129.20814 -10.98533,33.05993 -26.04633,64.68052 -47.69791,92.13189 -18.78017,26.7339 -44.69607,47.73435 -70.34827,67.59654 -26.87316,17.34838 -55.75856,31.79167 -84.86486,44.74165 -29.38961,7.49814 -59.1843,16.67488 -89.58873,16.98454 -12.27815,1.55776 -21.86129,-6.58845 -17.72652,-19.21796 0.2893,-30.88628 0.57859,-61.77256 0.86789,-92.65884 14.68184,-9.16496 32.39854,-3.39962 48.01649,-10.05001 26.5161,-5.74162 52.43172,-15.45729 73.68104,-32.68518 23.73807,-17.01719 42.87629,-39.92417 60.27481,-63.08735 13.27254,-27.35468 21.28419,-56.7105 27.69273,-86.32942 -3.39635,-10.89492 -19.9655,-15.25942 -24.57801,-3.24131 -4.09524,27.74919 -12.19859,54.70227 -26.87759,78.78596 -8.84338,17.10316 -25.21235,29.00297 -37.84433,43.27852 -22.12147,19.51956 -49.55386,32.37173 -77.63484,40.70349 -15.06001,2.00832 -33.22433,9.12095 -45.19683,-3.76963 -0.30418,-59.5298 -0.60837,-119.05961 -0.91255,-178.58941"
       id="centerline"
       inkscape:label="centerline" />
  </g>
</svg>
