<?xml version="1.0" encoding="UTF-8" standalone="no"?>
<!-- Created with Inkscape (http://www.inkscape.org/) -->

<svg
   width="730" height="730" viewBox="0 0 730 730" id="svg3767"
   version="1.1"
   inkscape:version="1.2.2 (b0a8486541, 2022-12-01)"
   sodipodi:docname="centerline.svg"
   xmlns:inkscape="http://www.inkscape.org/namespaces/inkscape"
   xmlns:sodipodi="http://sodipodi.sourceforge.net/DTD/sodipodi-0.dtd"
   xmlns="http://www.w3.org/2000/svg"
   xmlns:svg="http://www.w3.org/2000/svg"
   xmlns:rdf="http://www.w3.org/1999/02/22-rdf-syntax-ns#"
   xmlns:cc="http://creativecommons.org/ns#"
   xmlns:dc="http://purl.org/dc/elements/1.1/">
  <defs
     id="defs3769" />
  <sodipodi:namedview
     id="base"
     pagecolor="#ffffff"
     bordercolor="#666666"
     borderopacity="1.0"
     inkscape:pageopacity="0.0"
     inkscape:pageshadow="2"
     inkscape:zoom="0.98994949"
     inkscape:cx="54.548238"
     inkscape:cy="386.38335"
     inkscape:document-units="px"
     inkscape:current-layer="layer1"
     showgrid="false"
     fit-margin-top="10"
     fit-margin-left="10"
     fit-margin-bottom="10"
     fit-margin-right="10"
     inkscape:window-width="1366"
     inkscape:window-height="720"
     inkscape:window-x="0"
     inkscape:window-y="25"
     inkscape:window-maximized="1"
     inkscape:showpageshadow="2"
     inkscape:pagecheckerboard="0"
     inkscape:deskcolor="#d1d1d1" />
  <metadata
     id="metadata3772" />
  <rdf:RDF>
    <cc:Work
       rdf:about="">
      <dc:format>image/svg+xml</dc:format>
      <dc:type
         rdf:resource="http://purl.org/dc/dcmitype/StillImage" />
    </cc:Work>
  </rdf:RDF>
  <g
     inkscape:label="Layer 1"
     inkscape:groupmode="layer"
     id="layer1">
    <path
       style="fill:none;stroke:none;stroke-width:1;stroke-dasharray:none"
       d="m 343.55217,709.84672 c -0.92454,-34.48888 -1.84907,-68.97777 -2.77361,-103.46665 -20.25626,-13.80274 -47.38394,-8.87821 -67.57114,-23.31027 -24.37285,-10.42472 -46.16218,-25.49173 -66.45486,-42.31859 -18.25723,-20.89717 -37.57264,-41.02586 -50.07145,-66.10488 -15.07199,-19.53808 -17.12075,-44.58537 -24.20227,-67.50365 1.05342,-10.61894 -5.58627,-25.38917 8.5473,-28.94993 13.94917,2.50236 13.97585,15.20918 15.67447,26.69055 3.98779,37.17972 26.71702,68.23709 45.55986,99.37062 20.34355,19.51407 42.66087,37.42209 66.63778,52.00062 19.86707,6.75616 39.76699,17.27385 60.34275,19.4754 15.56847,-1.0134 12.72452,-14.23847 12.29645,-25.86125 -0.20208,-29.49372 -0.40415,-58.98743 -0.60623,-88.48115 -16.32646,-8.90789 -33.98036,-16.0849 -45.1304,-31.7424 -12.5761,-12.18044 -17.63158,-30.28412 -24.46265,-45.85407 -2.10739,-15.32412 -0.43692,-30.19209 5.32834,-44.56565 2.46245,-13.18973 7.93154,-24.72426 18.15136,-33.64344 11.73069,-18.92346 36.01722,-22.0139 52.39681,-34.68504 11.58956,-10.05982 -1.19166,-22.15777 -13.40577,-17.98083 -16.54621,7.43981 -34.74386,14.70925 -48.70718,26.26439 -13.40897,16.67417 -27.01543,34.37207 -33.18746,54.96346 -4.90134,29.76786 -5.29187,61.25573 8.41461,88.90087 12.26406,23.36475 36.09959,37.4427 55.62265,54.34787 4.98946,11.98113 -9.31973,23.11375 -18.43356,12.3625 -24.61303,-10.92233 -42.52806,-32.26522 -56.91927,-54.42215 -8.92337,-17.38559 -10.67577,-37.50177 -21.02685,-54.12081 -13.59834,-6.32622 -16.23493,10.42669 -16.03358,20.45719 10.64867,39.23508 31.46895,77.63706 66.62713,99.83808 12.99477,11.6175 30.58866,15.62814 43.81434,26.70544 9.21237,10.81357 -4.94335,23.04894 -15.10703,14.94506 -22.30066,-11.01487 -44.27197,-22.53707 -62.68894,-39.53417 -20.62127,-19.80421 -39.86055,-42.4687 -47.17306,-70.7788 -7.76016,-20.96257 -11.16869,-43.67688 -11.77637,-65.87646 1.00332,-19.6754 0.45041,-39.6558 9.35843,-57.78196 8.66118,-30.11698 27.18504,-56.91099 49.3384,-78.72519 22.68393,-22.12067 51.96946,-36.79943 82.21029,-45.4099 11.56889,-2.24323 23.14002,-4.55272 34.48013,-0.007 3.32056,15.12186 -8.75272,17.9261 -20.88989,20.36704 -25.23369,5.03713 -50.80838,13.56419 -68.71476,32.96365 -28.57755,22.8888 -51.48587,54.85275 -58.32818,91.21855 -3.73679,8.78371 -0.40667,29.67412 10.91281,24.85593 13.67925,-1.69826 10.57278,-17.75688 14.8624,-27.48806 4.18943,-19.4315 13.17327,-36.99417 26.79143,-51.48117 15.28974,-17.73246 35.57122,-30.57949 56.64277,-40.21094 26.9681,-11.67344 57.15856,-10.13686 85.53158,-6.17952 25.09129,8.497 49.28449,20.63967 67.30449,40.50362 14.92415,14.0929 24.30653,32.17729 31.16793,51.30925 3.53967,10.45588 9.67564,27.23214 -3.67759,32.92503 -11.9107,3.10267 -14.8837,-14.57089 -18.50873,-23.4434 -7.63419,-25.66553 -25.17345,-46.98211 -47.95095,-60.74956 -10.38366,-9.90105 -24.93482,-11.89392 -37.82602,-17.03671 -12.87903,1.73471 -18.71482,19.59302 -2.84634,21.37649 19.3587,7.60016 36.90746,19.30929 51.91442,33.41874 11.96227,18.1207 22.61014,38.56183 19.46071,60.93996 0.94648,15.76527 -3.34845,32.45815 -11.55082,45.6959 -10.99046,17.28462 -27.49014,28.80296 -44.09762,40.18442 -12.58821,2.34676 -14.26696,20.48602 -3.76391,23.44033 15.05537,2.86985 26.27978,-9.74801 37.47359,-17.85443 13.51892,-12.61122 28.8781,-23.8259 34.98017,-42.06564 6.85579,-10.81002 8.20459,-25.73637 15.71698,-35.1957 9.76928,-9.35584 25.33036,2.7109 18.56046,13.76127 -9.28448,23.55462 -18.62535,48.2452 -37.47136,65.90782 -18.6684,19.45117 -42.40461,34.61881 -68.15494,42.93057 -13.63353,0.85287 -16.6831,19.40264 -6.25281,23.19926 20.44191,1.362 37.4816,-13.32836 56.04142,-20.00194 15.35601,-9.08347 29.31364,-19.72456 39.43699,-34.63661 15.93942,-16.09178 26.27013,-36.45808 34.21864,-57.36352 7.95215,-25.77486 9.12552,-53.00189 3.40585,-79.35913 -7.25349,-34.79574 -22.99377,-69.48981 -51.49036,-92.03135 -13.2179,-11.54697 -28.27922,-21.96129 -44.23765,-29.06116 -17.44631,-5.49346 -35.01086,-10.66965 -51.54536,-18.6095 -5.25252,-13.62543 4.26147,-20.36647 17.08899,-17.19498 21.76286,4.70375 42.55124,11.97526 61.83451,23.21272 17.39254,8.47863 32.17194,22.26052 45.15234,36.42191 17.43925,19.79348 32.11513,42.00785 39.5237,67.51748 8.33797,15.63164 4.34098,35.51233 17.50514,48.74377 16.02749,0.98465 14.64036,-12.17435 14.59778,-24.24134 -5.97199,-26.44833 -14.74479,-52.94741 -29.91443,-75.58296 -19.72589,-28.02162 -42.68537,-54.18513 -72.17323,-72.2082 -20.48151,-11.27435 -41.99703,-21.02 -65.46894,-23.853 -23.72895,-5.10022 -47.98384,-8.3943 -72.05218,-3.66376 -30.91578,1.09552 -57.44965,19.39859 -84.93206,31.74133 -19.654,14.77256 -38.10105,30.80338 -53.18722,50.33797 -14.91132,15.91978 -22.21931,37.33485 -31.57548,56.74269 -9.29567,18.23896 -9.26633,39.21744 -17.55276,57.85623 -16.71446,5.04385 -16.08965,-7.80238 -15.41563,-20.69937 2.7361,-27.33574 11.61499,-54.13689 23.86476,-78.76942 15.47655,-27.05586 37.66404,-49.21778 59.33047,-71.17801 24.97524,-16.11113 51.38638,-30.62672 79.36125,-40.52657 18.97422,-5.47753 39.48049,-6.62429 56.92834,-16.41649 3.17333,-13.38403 -9.99196,-18.68697 -21.06605,-15.78785 -28.9649,4.16778 -56.61467,15.96318 -83.45714,27.30551 -23.45654,11.67395 -44.58486,27.84401 -64.0811,45.08798 -16.96605,18.52568 -34.43518,36.68506 -45.30585,59.64881 -10.57139,18.07969 -17.53704,38.37916 -24.00353,58.14393 -4.55516,30.58429 -9.91045,61.72324 -7.17595,92.59456 5.89998,30.04525 11.44349,60.51926 26.42424,87.61169 8.63325,23.20156 24.20283,42.86961 39.54323,61.88487 25.99341,25.82248 55.6633,47.91491 89.27346,62.79511 15.28904,7.26838 31.83455,11.59757 48.15662,15.95973 10.60848,6.93191 6.05269,23.85646 -5.73425,24.01584 -19.06952,-4.91839 -38.23159,-12.90596 -56.41451,-20.99599 -35.08968,-18.40285 -68.6833,-40.56517 -95.37064,-70.144 -15.90644,-20.10323 -31.46447,-41.30759 -43.95794,-63.61258 -11.098412,-33.22331 -23.464742,-66.66996 -24.700902,-102.03599 -3.98902,-11.49617 -20.87069,-11.39189 -23.01716,1.0832 -3.97238,10.8556 -0.26696,24.15214 1.9695,35.437 9.45555,34.05211 17.26098,69.4241 38.452072,98.51896 16.47696,27.39011 36.71441,52.53882 61.1351,73.26059 23.94636,23.42611 54.3493,38.9615 84.62219,52.44878 23.83815,10.44174 50.57883,14.50266 72.63041,28.62429 -1.45879,13.63373 -17.28163,14.25889 -27.55001,10.09684 -33.53414,-7.73521 -65.89358,-20.52123 -95.86053,-37.20848 -32.77662,-22.18141 -65.76367,-45.67172 -88.72092,-78.5053 -19.975862,-21.98177 -33.360512,-48.5187 -46.608072,-74.80069 -9.11425,-30.91004 -21.89454,-61.02185 -23.37324,-93.5944 -5.23706,-32.28374 -3.42271,-65.35287 4.60947,-97.01651 6.08091,-36.04985 19.57707,-70.37843 37.33955,-102.22313 14.42766,-25.89778 33.910962,-48.94464 53.074352,-71.3739 27.76494,-25.8558 58.89078,-47.66511 92.65476,-64.98896 33.6603,-16.89352 71.33338,-24.70874 108.668,-28.56036 10.53921,-1.86042 27.71248,10.85608 13.46629,18.42538 -15.81597,6.29077 -34.75337,6.14522 -51.35409,11.88602 -28.70197,5.71473 -54.99651,19.48331 -81.27736,31.71853 -23.37208,15.05737 -46.43126,30.51307 -65.84866,50.60507 -19.92702,17.22628 -33.15432,40.72835 -49.01646,61.47741 -13.556432,25.45242 -24.860772,51.81752 -32.540152,79.6517 -5.6576,18.19382 -9.10681,37.48304 -5.2696,56.40716 6.76291,10.63606 23.11232,-0.28923 22.31721,-9.85447 3.20481,-27.32211 7.36403,-55.21542 17.435002,-81.01759 12.95729,-29.73016 31.86417,-55.97229 52.88993,-80.46295 21.31959,-25.2678 49.05261,-44.76041 77.9132,-60.53213 26.65692,-13.88632 56.17528,-21.14537 85.02877,-28.65112 35.23805,-4.2652 71.05134,-6.70263 105.98372,1.1798 28.64171,5.84683 56.62798,16.90576 81.51039,32.16069 31.11217,19.27807 60.18578,42.1871 82.4294,71.51141 30.84101,38.85702 51.70421,86.30372 55.5725,136.05996 0.30734,7.89639 2.63673,25.88506 -9.02653,24.37586 -15.59079,-0.22398 -11.59033,-18.95155 -13.99412,-29.73886 -2.37176,-21.9659 -11.78792,-42.68494 -19.09576,-63.3493 -18.09263,-36.62728 -44.77412,-68.37435 -74.97792,-95.57569 -34.85536,-30.34741 -79.87709,-46.06713 -124.63393,-54.62324 -8.94617,-2.32003 -27.27753,-1.13047 -24.28979,11.43824 0.68099,12.55012 19.54693,8.45218 28.39893,13.52186 27.1774,7.61476 55.52465,12.70954 79.38642,28.62391 26.84678,16.55896 52.19504,36.47628 69.32224,63.43783 19.49036,26.22425 32.03847,57.37651 40.49415,88.70387 5.99338,36.14645 4.06745,72.94824 -3.29742,108.73889 -8.67807,28.23921 -18.48266,56.87982 -37.37067,80.18218 -15.76851,21.58014 -35.01835,40.55712 -57.37988,55.3206 -25.27955,18.98337 -55.41537,29.94345 -86.17526,36.26957 -11.21424,2.01417 -21.15107,5.94223 -21.44508,18.88647 9.2875,9.0715 20.19335,7.13451 31.3901,3.21874 34.3733,-7.47973 65.92533,-24.16007 96.85224,-40.46071 18.46011,-16.13654 37.94105,-31.32395 51.07271,-52.41478 17.69838,-22.6742 32.25668,-48.05438 39.57515,-76.02528 8.08006,-22.88455 12.40156,-46.77546 18.9654,-70.08624 12.47197,-4.96843 22.6225,4.91947 19.85982,17.63952 -3.76582,31.66935 -14.3723,62.72819 -27.66829,91.59554 -18.46288,33.6042 -41.42588,64.53803 -69.51441,90.72945 -29.17345,26.65739 -65.77597,44.24061 -102.75749,57.27342 -16.90815,5.4867 -34.9287,8.2209 -51.79143,12.45747 -11.82367,6.65341 -1.79712,24.2918 10.29403,19.66879 27.46993,-1.70102 53.51526,-12.29579 78.77421,-22.39544 26.09083,-12.67677 52.17513,-26.5783 74.80984,-44.66968 20.12246,-18.70267 40.34282,-37.31826 55.4139,-60.51396 18.10723,-24.6628 30.88313,-53.21696 41.32943,-81.85803 9.97329,-33.69284 15.7933,-69.00884 15.63724,-104.0579 -3.92549,-35.05588 -9.01567,-70.29339 -23.40525,-102.80005 -9.67424,-22.64655 -19.99302,-45.07272 -36.7224,-63.48835 -23.94505,-32.72421 -51.69648,-63.68167 -88.12476,-82.69797 -31.35973,-20.75084 -67.44185,-33.90623 -104.03203,-41.60396 -13.72854,-1.72147 -29.87825,-1.80849 -41.38226,-8.81955 -10.91401,-10.34939 6.82071,-18.95199 16.3825,-16.01686 44.57446,2.40831 86.46944,18.75786 127.02263,36.25285 19.64677,10.05611 36.95846,24.85034 54.7681,37.90483 22.80237,19.51081 41.95319,42.37601 60.04713,66.21209 15.59668,25.55165 31.56327,51.15827 40.12182,80.11251 9.06781,26.59232 11.72305,55.18819 15.06615,83.00025 3.97601,43.6327 -4.85268,87.17962 -15.52782,129.20814 -10.98533,33.05993 -26.04633,64.68052 -47.69791,92.13189 -18.78017,26.7339 -44.69607,47.73435 -70.34827,67.59654 -26.87316,17.34838 -55.75856,31.79167 -84.86486,44.74165 -29.38961,7.49814 -59.1843,16.67488 -89.58873,16.98454 -12.27815,1.55776 -21.86129,-6.58845 -17.72652,-19.21796 0.2893,-30.88628 0.57859,-61.77256 0.86789,-92.65884 14.68184,-9.16496 32.39854,-3.39962 48.01649,-10.05001 26.5161,-5.74162 52.43172,-15.45729 73.68104,-32.68518 23.73807,-17.01719 42.87629,-39.92417 60.27481,-63.08735 13.27254,-27.35468 21.28419,-56.7105 27.69273,-86.32942 -3.39635,-10.89492 -19.9655,-15.25942 -24.57801,-3.24131 -4.09524,27.74919 -12.19859,54.70227 -26.87759,78.78596 -8.84338,17.10316 -25.21235,29.00297 -37.84433,43.27852 -22.12147,19.51956 -49.55386,32.37173 -77.63484,40.70349 -15.06001,2.00832 -33.22433,9.12095 -45.19683,-3.76963 -0.30418,-59.5298 -0.60837,-119.05961 -0.91255,-178.58941"
       id="centerline"
       inkscape:label="centerline" />
    <path
       id="path943"
       style="fill:#ffffff;fill-opacity:1;stroke:#000000;stroke-width:1.53887;stroke-dasharray:none;stroke-opacity:1"
       d="m 364.9774,0.76943499 c -0.82334,0 -1.64066,0.03892 -2.46268,0.04408 0.5561,1.09780301 0.8957,2.35949901 0.8957,3.67268501 0,4.47042 -3.63263,8.058669 -8.10343,8.058669 -4.47076,0 -8.10543,-3.588249 -8.10543,-8.058669 0,-1.153331 0.28171,-2.276116 0.71737,-3.269952 -1.79269,0.08267 -3.5884,0.159966 -5.37423,0.268489 0.62603,1.072673 1.00333,2.305064 1.07605,3.626601 0.24542,4.463673 -3.19256,8.262074 -7.65658,8.507487 -4.46406,0.245406 -8.26275,-3.192265 -8.5082,-7.655937 -0.0649,-1.179435 0.14116,-2.32497 0.53703,-3.358112 -1.81509,0.182957 -3.60919,0.417631 -5.41631,0.627141 0.69366,1.042646 1.15169,2.249796 1.29847,3.580517 0.49016,4.443472 -2.71977,8.420126 -7.16364,8.91022 -4.44381,0.490089 -8.42095,-2.675492 -8.91096,-7.118959 -0.12952,-1.174104 0.0167,-2.344495 0.35868,-3.402192 -1.7984,0.281668 -3.58264,0.587744 -5.37222,0.895629 0.75215,1.001672 1.30162,2.173604 1.52089,3.492357 0.73344,4.409863 -2.26055,8.577655 -6.67069,9.310949 -4.4102,0.733295 -8.58045,-2.216205 -9.31373,-6.626061 -0.19722,-1.185854 -0.0725,-2.357382 0.22442,-3.446274 -1.80506,0.385535 -3.62326,0.751938 -5.41831,1.164119 0.83144,0.974982 1.44988,2.160581 1.74732,3.492357 0.97428,4.362958 -1.77034,8.695318 -6.13367,9.669603 -4.3633,0.974279 -8.69799,-1.770208 -9.67242,-6.133165 -0.26139,-1.170309 -0.23331,-2.34652 0,-3.448277 -1.76532,0.480589 -3.52751,0.972308 -5.28205,1.478692 0.86116,0.921328 1.51492,2.063881 1.87958,3.358113 1.2124,4.302868 -1.29335,8.769799 -5.59666,9.982168 -4.30311,1.212329 -8.77261,-1.2933 -9.98501,-5.596185 -0.32548,-1.155137 -0.35165,-2.333471 -0.17834,-3.446273 -1.72612,0.574291 -3.43527,1.191928 -5.1498,1.79126 0.90501,0.864568 1.62629,1.954022 2.05992,3.221866 1.44695,4.229859 -0.82939,8.852027 -5.05963,10.298746 -4.23019,1.4467 -8.80671,-0.8294 -10.25352,-5.059208 -0.38861,-1.135964 -0.46614,-2.329724 -0.35668,-3.448279 -1.70186,0.672641 -3.41653,1.362311 -5.10572,2.059747 0.96934,0.825792 1.72928,1.91514 2.24027,3.177788 1.67676,4.144012 -0.33412,8.844402 -4.47853,10.521142 -4.14451,1.67676 -8.84512,-0.33212 -10.52203,-4.47614 -0.44995,-1.11193 -0.63203,-2.27936 -0.5811,-3.4022 -1.65214,0.76127 -3.28675,1.54307 -4.92538,2.32824 1.00783,0.7575 1.8438,1.77681 2.41861,2.99946 1.90184,4.04577 0.1507,8.88793 -3.89543,10.78964 -4.04608,1.90173 -8.88873,0.1507 -10.79053,-3.89509 -0.50191,-1.06764 -0.74338,-2.20874 -0.76145,-3.31403 -1.58993,0.84194 -3.1712,1.68794 -4.74704,2.55265 1.04291,0.70647 1.91487,1.68161 2.55286,2.8652 2.12116,3.93529 0.62117,8.84702 -3.31431,10.96797 -3.93565,2.12096 -8.84767,0.66733 -10.96888,-3.26795 -0.56701,-1.05193 -0.82342,-2.19242 -0.8957,-3.31202 -1.56204,0.9403 -3.11016,1.90226 -4.65687,2.86522 1.06958,0.64597 1.99065,1.54722 2.68711,2.68488 2.33412,3.8128 1.12605,8.81435 -2.68711,11.14829 -3.81316,2.33393 -8.76907,1.12791 -11.10313,-2.68489 -0.61739,-1.00851 -0.93029,-2.12511 -1.07405,-3.22386 -1.51248,1.02731 -3.02653,2.03819 -4.52261,3.08762 1.09828,0.58753 2.06014,1.45008 2.82137,2.55264 2.54001,3.67894 1.61922,8.7428 -2.05992,11.28254 -3.6792,2.53974 -8.69958,1.6191 -11.23939,-2.05975 -0.67933,-0.98393 -1.10077,-2.07054 -1.29848,-3.17778 -1.43909,1.09768 -2.87607,2.19351 -4.29818,3.31203 1.14743,0.53001 2.17401,1.35267 2.99971,2.4184 2.73811,3.53392 2.05738,8.63286 -1.47682,11.37069 -3.53414,2.73787 -8.58954,2.05728 -11.32755,-1.47668 -0.70406,-0.90871 -1.16682,-1.95491 -1.43274,-2.99946 -1.36093,1.16115 -2.73219,2.31163 -4.07575,3.49236 1.14985,0.47228 2.17712,1.23577 3.0458,2.23807 2.92795,3.37834 2.52713,8.489043 -0.85162,11.416783 -3.3786,2.9277 -8.48779,2.57082 -11.41573,-0.80746 -0.76501,-0.88267 -1.2962,-1.90409 -1.61308,-2.95339 -1.2841,1.22291 -2.53908,2.4734 -3.80524,3.71476 1.15272,0.40849 2.22436,1.11995 3.13397,2.05976 3.10895,3.21245 3.0343,8.35204 -0.17834,11.46085 -3.21283,3.10879 -8.35492,2.98811 -11.46382,-0.2244 -0.80256,-0.82927 -1.36635,-1.80554 -1.745329,-2.81913 -1.23009,1.30651 -2.46009,2.61461 -3.67098,3.93917 1.18394,0.33797 2.30502,0.94371 3.26822,1.83534 3.280549,3.037 3.484169,8.18039 0.44684,11.46087 -3.03711,3.28041 -8.18107,3.48576 -11.46181,0.44881 -0.84685,-0.78393 -1.49628,-1.7346 -1.92567,-2.73097 -1.15595,1.37061 -2.31067,2.72965 -3.44656,4.1175 1.21942,0.2602 2.37619,0.80659 3.40248,1.657 3.4426,2.85233 3.92667,7.97452 1.07404,11.41679 -2.85244,3.44227 -7.97336,3.92628 -11.41572,1.07395 -0.89949,-0.74524 -1.57107,-1.65617 -2.05993,-2.64081 -1.0836,1.43764 -2.16117,2.88779 -3.22414,4.34192 1.22388,0.21225 2.43069,0.69297 3.49265,1.47868 3.59391,2.65907 4.36044,7.73298 1.70124,11.32662 -2.65907,3.5936 -7.73377,4.31607 -11.32757,1.65701 -0.94591,-0.69985 -1.69496,-1.59382 -2.23826,-2.55264 -1.01283,1.50851 -2.01111,3.04192 -3.00171,4.56631 1.23992,0.12221 2.46527,0.51878 3.58282,1.25428 3.73436,2.45777 4.78634,7.50231 2.32843,11.23645 -2.45804,3.73419 -7.50489,4.74188 -11.23939,2.28417 -0.98174,-0.64606 -1.78151,-1.49016 -2.37252,-2.4184 -0.93029,1.56417 -1.86806,3.12133 -2.77528,4.70055 1.27759,0.0496 2.53447,0.38877 3.71508,1.07595 3.86367,2.24905 5.16084,7.23873 2.91154,11.10222 -2.24902,3.86347 -7.19518,5.15834 -11.05906,2.9093 -1.04391,-0.60767 -1.85701,-1.44546 -2.50677,-2.37233 -0.85623,1.63856 -1.72056,3.27189 -2.55286,4.92497 1.27745,-0.0179 2.5893,0.27462 3.80524,0.89564 3.98165,2.03336 5.52617,6.89861 3.49265,10.87979 -2.03366,3.9812 -6.89906,5.56986 -10.88071,3.53644 -1.08447,-0.55406 -1.9801,-1.34079 -2.68511,-2.24008 -0.76051,1.67538 -1.45818,3.37034 -2.19419,5.05922 0.22567,-0.0162 0.44319,-0.0481 0.67128,-0.0441 1.05094,0.0181 2.11256,0.26436 3.13398,0.71731 4.08747,1.81179 5.93213,6.56857 4.11983,10.6554 -1.81173,4.08673 -6.56961,5.92929 -10.65628,4.11749 -1.11435,-0.49383 -2.02481,-1.24565 -2.77729,-2.10383 -0.66967,1.72174 -1.32486,3.45906 -1.96974,5.19346 0.2245,-0.0278 0.44404,-0.0358 0.67128,-0.0441 1.05079,-0.0398 2.13455,0.14084 3.18005,0.53697 4.18004,1.58467 6.28573,6.25087 4.70094,10.43098 -1.58491,4.18014 -6.25162,6.28524 -10.43185,4.70057 -1.13948,-0.43195 -2.11306,-1.10792 -2.91154,-1.92552 -0.56954,1.74413 -1.15736,3.48397 -1.70125,5.23954 0.50649,-0.0973 1.00009,-0.13754 1.5229,-0.13425 0.79648,0.006 1.57318,0.14917 2.37252,0.40274 4.26076,1.35285 6.63746,5.90173 5.28405,10.1625 -1.35266,4.26084 -5.90215,6.63646 -10.16334,5.28361 -1.15481,-0.37112 -2.15925,-0.98111 -2.99972,-1.74717 -0.46837,1.75779 -0.94634,3.51546 -1.38863,5.28362 0.48671,-0.11691 0.96861,-0.15543 1.47681,-0.18033 0.79562,-0.039 1.60665,0.0149 2.4186,0.22441 4.32882,1.11689 6.9385,5.56534 5.82109,9.894 -1.11669,4.32863 -5.52127,6.93749 -9.85075,5.82061 -1.17916,-0.30435 -2.2062997,-0.88373 -3.0898897,-1.61295 -0.37037,1.78191 -0.7299,3.58243 -1.07405,5.37379 0.72626,-0.21782 1.46028,-0.31126 2.23827,-0.31457 0.5379997,-10e-4 1.0651897,0.0706 1.6130597,0.18032 4.38384,0.87757 7.23368,5.1519 6.3561,9.53537 -0.87771,4.38341 -5.1526,7.23512 -9.5361497,6.35756 -1.17329,-0.23479 -2.22215,-0.73039 -3.13396,-1.38852 -0.26865,1.78396 -0.51845,3.58137 -0.76145,5.37378 0.95279,-0.34076 1.93993,-0.49273 2.99971,-0.44882 0.2728,0.0103 0.52915,0.0504 0.80553,0.0902 4.4255297,0.6356 7.4867597,4.75373 6.8510497,9.1787 -0.63558,4.42503 -4.70788,7.48407 -9.1333897,6.84846 -1.18505,-0.17012 -2.23587,-0.64375 -3.18006,-1.25227 -0.1748,1.83143 -0.34364,3.66676 -0.49092,5.50602 0.92627,-0.38336 1.90682,-0.61301 2.95361,-0.62714 0.27351,-0.003 0.52915,0.0196 0.80753,0.0441 4.4536097,0.3917 7.7780697,4.32274 7.3860697,8.77597 -0.39144,4.45318 -4.3208597,7.73307 -8.7746997,7.34137 -1.17058,-0.10301 -2.25602,-0.49269 -3.22414,-1.02987 -0.0726,1.80214 -0.17800999,3.60906 -0.22441999,5.41785 1.13431999,-0.54176 2.42069999,-0.80539 3.76113999,-0.76138 4.46837,0.14668 7.9375497,3.90527 7.7908397,8.37324 -0.14657,4.46803 -3.8595297,7.98092 -8.3278497,7.83426 -1.17601,-0.0387 -2.27417,-0.3656 -3.26821999,-0.85155 0.0242,1.80693 0.0396,3.61737 0.0902,5.41786 1.10079999,-0.59505 2.33293999,-0.91013 3.67099999,-0.93971 4.46916,-0.0989 8.1848997,3.40903 8.2837597,7.87834 0.0987,4.46942 -3.4558697,8.18422 -7.9250897,8.28308 -1.18913,0.0264 -2.2857,-0.23219 -3.31429,-0.67122 0.12321,1.81031 0.25347,3.61485 0.40275,5.41787 1.06326,-0.66457 2.291,-1.061 3.62691,-1.16413 4.4570397,-0.3442 8.3426797,3.01845 8.6865397,7.47561 0.34458,4.45718 -2.97501,8.34161 -7.4321497,8.68582 -1.20252,0.0928 -2.34224,-0.10228 -3.40248,-0.4929 0.22251,1.81071 0.46563,3.61546 0.71536,5.41785 1.03174,-0.73013 2.24008,-1.21032 3.58283,-1.38853 0.27666,-0.0376 0.57625,-0.0354 0.84961,-0.0441 4.1010997,-0.12621 7.6880697,2.83017 8.2396897,6.98473 0.58843,4.43148 -2.50967,8.54423 -6.9412197,9.13261 -1.22,0.1619 -2.39257,0.0376 -3.49264,-0.31457 0.32237,1.79505 0.72822,3.58793 1.07604,5.37378 0.99606,-0.79675 2.15473,-1.35998 3.4926497,-1.61293 0.54875,-0.10387 1.11729,-0.1414 1.65515,-0.13424 3.76474,0.0561 7.06385,2.73853 7.79083,6.58197 0.83086,4.39256 -2.05327,8.66051 -6.44626,9.49129 -1.19623,0.22621 -2.3422,0.14365 -3.44857,-0.13425 0.42438,1.78967 0.84815,3.5483 1.29847,5.3277 0.95437,-0.85876 2.11442,-1.46223 3.44856,-1.79127 0.54245,-0.13381 1.07336,-0.20292 1.61108,-0.22441 3.76223,-0.15059 7.25672,2.33738 8.19359,6.13517 1.0708,4.34032 -1.56855,8.73317 -5.90925,9.80385 -1.19205,0.29403 -2.36249,0.27046 -3.49265,0.0441 0.52796,1.78258 1.01222,3.60269 1.56699,5.37378 0.9141,-0.93263 2.06612,-1.65121 3.40247,-2.05975 0.80134,-0.24515 1.62055,-0.36223 2.4166,-0.35865 3.45124,0.0162 6.59418,2.25698 7.65658,5.73044 1.3074,4.27494 -1.097,8.81109 -5.37224,10.11841 -1.16292,0.35562 -2.3201,0.42515 -3.44655,0.26849 0.61652,1.72499 1.23797,3.4365 1.87958,5.14937 0.85391,-0.9581 1.93378,-1.72042 3.22414,-2.19399 0.78731,-0.28868 1.62098,-0.4089 2.4166,-0.44882 3.44618,-0.17299 6.72023,1.87373 7.97117,5.28362 1.54051,4.19674 -0.59388,8.84686 -4.79112,10.3869 -1.15695,0.42451 -2.34157,0.55177 -3.49265,0.44681 0.72326,1.71696 1.4895,3.39991 2.23826,5.1033 0.80508,-1.00072 1.82662,-1.8285 3.08988,-2.37232 1.02616,-0.44203 2.0829,-0.66406 3.13397,-0.67122 3.1549,-0.0205 6.15192,1.80145 7.47823,4.88088 1.76819,4.10587 -0.10376,8.88727 -4.21001,10.6554 -1.11212,0.47885 -2.26458,0.65697 -3.40248,0.62513 0.80836,1.65649 1.58589,3.32877 2.41861,4.97105 0.75336,-1.06622 1.74862,-1.93051 2.99971,-2.55265 1.00036,-0.49765 2.03823,-0.78708 3.08787,-0.85154 3.14864,-0.19361 6.25371,1.47616 7.74675,4.47815 1.9911,4.00266 0.37591,8.88893 -3.6269,10.87981 -1.09807,0.5461 -2.24953,0.7817 -3.40248,0.80547 0.9012,1.61454 1.80663,3.23542 2.7312,4.8348 0.68787,-1.08243 1.62616,-2.00821 2.82137,-2.6869 1.21484,-0.68987 2.54427,-1.04945 3.84932,-1.07395 2.87125,-0.0542 5.69187,1.40091 7.20973,4.07341 2.20746,3.88731 0.84168,8.85051 -3.04579,11.05812 -1.05739,0.60045 -2.17283,0.89277 -3.31231,0.98581 0.98703,1.55999 1.98989,3.1126 2.99971,4.65646 0.62956,-1.10176 1.50198,-2.08884 2.64103,-2.82113 1.40998,-0.90663 2.96376,-1.33381 4.52261,-1.29836 2.59788,0.059 5.15971,1.36665 6.6707,3.71676 2.41788,3.76027 1.29803,8.77465 -2.4627,11.19238 -1.02351,0.65801 -2.13633,1.05146 -3.26822,1.20819 1.06368,1.49311 2.1831,2.95601 3.26822,4.43208 0.56709,-1.14583 1.40441,-2.1564 2.50879,-2.95539 1.3584,-0.98279 2.91824,-1.47063 4.47651,-1.52077 2.59746,-0.0836 5.16702,1.09426 6.80496,3.35812 2.62081,3.62172 1.83278,8.65979 -1.7894,11.28053 -0.97157,0.70258 -2.02773,1.12138 -3.13398,1.34445 1.14307,1.43207 2.23837,2.88366 3.40249,4.29782 0.49744,-1.1749 1.27033,-2.23175 2.32842,-3.08961 1.51931,-1.2318 3.37958,-1.80747 5.19389,-1.79128 2.33254,0.0202 4.63812,1.0462 6.22184,2.99946 2.815679,3.47244 2.26445,8.55743 -1.2083,11.37271 -0.93157,0.75529 -1.95526,1.23653 -3.04379,1.52077 1.216,1.36301 2.43488,2.7306 3.671,4.07542 0.43936,-1.18151 1.14836,-2.27407 2.14809,-3.17979 1.449519,-1.31331 3.247319,-2.02002 5.059629,-2.10383 2.3301,-0.10773 4.66949,0.77707 6.3581,2.64081 3.00206,3.31221 2.73167,8.46066 -0.58111,11.46286 -0.89089,0.80715 -1.88158,1.36314 -2.95563,1.7011 1.2776,1.28408 2.59893,2.54032 3.89542,3.80492 0.37411,-1.20084 1.02199,-2.30894 1.96974,-3.26795 1.5716,-1.58918 3.6151,-2.40622 5.68684,-2.4184 2.07163,-0.0129 4.14111,0.75648 5.7309,2.32824 3.17929,3.14251 3.23336,8.28125 0.0902,11.46086 -0.84521,0.85458 -1.80846,1.48502 -2.86547,1.88142 1.36221,1.22735 2.73717,2.41989 4.11784,3.62661 0.30222,-1.22076 0.85454,-2.39605 1.74733,-3.4042 1.48191,-1.67348 3.48267,-2.60503 5.55057,-2.73097 2.06786,-0.12521 4.19356,0.53394 5.86717,2.01567 3.34703,2.96356 3.67918,8.07026 0.71536,11.41678 -0.79808,0.90157 -1.74272,1.55508 -2.77528,2.01367 1.41989,1.14497 2.81477,2.32394 4.2521,3.44828 0.22936,-1.25615 0.76499,-2.46569 1.61307,-3.53645 1.56128,-1.97127 3.8916,-2.9984 6.22385,-3.04554 1.81389,-0.0365 3.61445,0.53259 5.14779,1.74719 3.50479,2.77502 4.12025,7.86649 1.34456,11.37068 -0.76049,0.96031 -1.65917,1.68303 -2.68712,2.194 1.47728,1.06331 2.98277,2.09217 4.47653,3.1337 0.16512,-1.26745 0.64422,-2.51046 1.43273,-3.62659 1.45068,-2.05427 3.67533,-3.22756 6.00142,-3.40219 1.80911,-0.1364 3.68442,0.34847 5.28205,1.47668 3.65198,2.57876 4.50461,7.63088 1.92568,11.28254 -0.70836,1.003 -1.59573,1.76077 -2.59695,2.32824 1.56063,0.99854 3.1242,1.98017 4.70095,2.95538 0.0884,-1.28623 0.47486,-2.54716 1.2083,-3.71677 1.4842,-2.36768 3.98536,-3.7161 6.58253,-3.80492 1.55828,-0.0533 3.14625,0.36188 4.56669,1.25228 3.78809,2.37445 4.92739,7.36023 2.55286,11.14829 -0.64315,1.02549 -1.46805,1.84244 -2.4186,2.46248 1.61588,0.91275 3.20409,1.84201 4.8352,2.73097 0.0144,-1.29325 0.31737,-2.59595 0.98588,-3.80492 1.48707,-2.6898 4.24787,-4.22902 7.11955,-4.20767 1.30525,0.008 2.6266,0.35152 3.84933,1.02789 3.91273,2.16252 5.3431,7.10211 3.18005,11.01403 -0.59744,1.08092 -1.39264,1.91809 -2.32844,2.59673 1.66704,0.82391 3.3322,1.66312 5.01356,2.46248 -0.0672,-1.30696 0.1536,-2.6375 0.76145,-3.89509 1.33719,-2.76772 4.07272,-4.42948 6.94121,-4.56631 1.30381,-0.0616 2.63745,0.19731 3.89542,0.80546 4.02545,1.94454 5.70626,6.81091 3.76115,10.83573 -0.5396,1.11703 -1.29048,2.04627 -2.19417,2.77505 1.70153,0.72679 3.43305,1.40183 5.14779,2.10383 -0.12364,-1.28823 0.0512,-2.62032 0.58312,-3.89508 1.29076,-3.09481 4.27748,-4.95286 7.43214,-4.96905 1.05152,-0.006 2.10252,0.19691 3.13397,0.62714 4.12632,1.72085 6.10924,6.43926 4.38835,10.56523 -0.47768,1.14525 -1.19209,2.08371 -2.05992,2.86522 1.73945,0.63222 3.48628,1.27317 5.23797,1.87942 -0.204,-1.29047 -0.10754,-2.62228 0.35869,-3.93917 1.11884,-3.1607 4.01456,-5.18282 7.16363,-5.37179 1.04965,-0.0631 2.12655,0.0739 3.18006,0.44682 4.21457,1.49168 6.41512,6.129 4.92337,10.34283 -0.41024,1.15888 -1.0681,2.13548 -1.87958,2.95538 1.78745,0.53939 3.57326,1.09762 5.37223,1.61093 -0.27145,-1.28007 -0.2566,-2.64473 0.13425,-3.98525 1.02227,-3.48535 4.16201,-5.71807 7.61248,-5.77452 0.79634,-0.0129 1.61225,0.0767 2.41661,0.31258 4.29012,1.25815 6.76659,5.73848 5.50849,10.02825 -0.34924,1.19068 -0.92347,2.22001 -1.70124,3.08963 1.80178,0.43709 3.60418,0.88847 5.41632,1.29835 -0.34029,-1.26302 -0.40717,-2.6228 -0.0881,-3.98324 0.82943,-3.53591 3.85552,-5.97791 7.29789,-6.22334 0.79432,-0.0566 1.60049,0.0308 2.4166,0.22242 4.35273,1.02046 7.06635,5.36335 6.04551,9.71568 -0.27816,1.18594 -0.8137,2.23371 -1.5229,3.13371 1.81755,0.33552 3.63548,0.63083 5.4624,0.93971 -0.395,-1.21317 -0.55116,-2.50289 -0.3126,-3.84902 0.68286,-3.85146 3.98091,-6.61722 7.74474,-6.71622 0.53771,-0.0144 1.10684,0.0369 1.65716,0.13425 4.40212,0.78021 7.31686,4.99935 6.53644,9.40111 -0.21459,1.21044 -0.68038,2.2842 -1.34255,3.22387 1.83179,0.23496 3.66633,0.41956 5.50648,0.62715 -0.34247,-0.89655 -0.53702,-1.84933 -0.53702,-2.86523 0,-4.47042 3.63253,-8.10274 8.10342,-8.10274 v -99.9279 c 3.3e-4,-0.016 0,-0.028 0,-0.0441 0,-1.23197 -0.94476,-2.26219 -2.14809,-2.37232 -113.2386,-16.20129 -202.10762,-107.95976 -213.92924,-222.55311 -1.0862,-11.93825 7.71617,-22.51444 19.65541,-23.59495 11.93926,-1.08049 22.51434,7.76161 23.59493,19.69987 9.78584,92.14298 79.90703,166.30039 170.05171,182.34792 1.28337,0.22239 2.48744,-0.61182 2.7312,-1.87942 0.0414,-0.16224 0.0302,-0.30741 0.0441,-0.44682 v -99.12243 h -0.0441 c 0.0514,-1.02504 -0.5253,-1.9997 -1.56699,-2.37232 -41.58123,-14.61491 -71.41394,-54.14426 -71.41394,-100.68727 0,-50.8663 35.59791,-93.4287 83.23445,-104.13556 1.26618,-0.31853 2.06389,-1.64523 1.74532,-2.9113 -0.31856,-1.26607 -1.59422,-2.01963 -2.86545,-1.70109 -49.67879,11.23817 -86.81527,55.67785 -86.81527,108.74795 0,43.50199 24.91114,81.19859 61.2506,99.56723 10.65167,5.5 14.8122,18.58445 9.31172,29.23522 -5.50042,10.65079 -18.55384,14.78363 -29.19157,9.26687 -43.54796,-22.16321 -75.25118,-64.32083 -82.96593,-114.38621 -0.22365,-1.27681 -1.41173,-2.12355 -2.68712,-1.92551 -1.27551,0.19805 -2.18763,1.35434 -2.01383,2.64081 9.03309,58.6802 50.0806,106.85251 104.68127,126.13961 11.33048,3.93787 17.34739,16.31679 13.43157,27.64632 -3.91583,11.32951 -16.29412,17.31028 -27.62458,13.38636 -79.06094,-27.7627 -135.75456,-103.03083 -135.75455,-191.57266 0,-103.00921 76.71461,-188.09705 176.1393,-201.2403 11.8879,-1.54619 22.81206,6.8272 24.35837,18.71405 1.54627,11.88691 -6.87382,22.80816 -18.76171,24.35434 -70.0615,9.33504 -125.76959,64.11712 -136.46979,133.72742 -0.20561,1.28923 0.6804,2.4813 1.96974,2.68689 1.28935,0.20558 2.5256,-0.63628 2.73121,-1.92551 11.39725,-74.28809 75.55338,-131.17678 153.03732,-131.17678 76.05808,0 139.32167,54.82339 152.41014,127.12542 1.99611,11.82139 -5.92821,23.02915 -17.72976,25.04958 -11.81609,2.02295 -23.04454,-5.91515 -25.07373,-17.73027 -8.09003,-43.57904 -41.57122,-78.21204 -84.48882,-88.10637 -0.0177,-0.004 -0.0266,-0.0422 -0.0441,-0.0461 -0.14314,-0.0647 -0.28972,-0.0983 -0.44886,-0.13425 -1.27319,-0.28924 -2.5301,0.47412 -2.81937,1.74719 -0.28928,1.27308 0.51622,2.57596 1.78941,2.86521 47.5915,10.74023 83.14628,53.25513 83.14628,104.08947 0,46.56114 -29.83214,86.14767 -71.41594,100.73336 -1.22727,0.45107 -1.87829,1.81839 -1.43275,3.04555 0.44556,1.22716 1.81854,1.83203 3.04581,1.38652 0.18717,-0.0679 0.34239,-0.11574 0.53703,-0.2224 36.92679,-13.18185 64.86638,-45.27433 72.1313,-84.61602 2.06198,-11.80838 13.30843,-19.70195 25.11782,-17.64011 11.80938,2.0618 19.74842,13.30736 17.68367,25.11571 -11.00162,60.60713 -57.30374,108.8755 -116.81237,122.8957 -1.27154,0.3188 -2.04377,1.59379 -1.74733,2.86523 0.29642,1.27142 1.54983,2.06328 2.82137,1.78925 70.47715,-16.54835 122.94804,-79.82743 122.94804,-155.35279 0,-80.88119 -60.19191,-147.70758 -138.21711,-158.16991 -11.89508,-1.49272 -20.33991,-12.328 -18.84989,-24.22209 1.48821,-11.87931 12.3461,-20.31175 24.24617,-18.8483 91.69446,12.09893 164.09951,85.34555 174.86487,177.42295 0.1485,1.29702 1.34387,2.25433 2.64103,2.10584 1.29716,-0.14849 2.20842,-1.34576 2.05992,-2.64281 -12.05193,-103.25456 -99.8632,-183.37781 -206.36284,-183.37781 -107.32953,0 -195.58695,81.37741 -206.54317,185.7962 -1.19042,11.92808 -11.84419,20.66301 -23.77326,19.47545 -11.9291,-1.1875 -20.67313,-11.84524 -19.47708,-23.77326 12.30683,-118.54911 107.0822,-212.53809 225.97417,-223.71723 1.2994,-0.12751 2.23147,-1.29744 2.10401,-2.59674 -0.12753,-1.29924 -1.29755,-2.27536 -2.59695,-2.14791 C 210.74877,122.56595 109.0943,231.9096 109.0943,365.02052 c 0,122.22564 85.72148,224.43712 200.34138,249.81672 11.71144,2.56866 19.13455,14.13461 16.58757,25.83302 -2.55015,11.71269 -14.1195,19.1581 -25.83318,16.60824 C 173.60485,629.33927 77.109751,521.2239 66.647501,388.92599 c -0.0994,-1.30195 -1.20473,-2.28866 -2.50677,-2.19199 -1.30206,0.0967 -2.29086,1.24869 -2.19418,2.55064 10.8736,137.70679 113.481699,249.58647 246.771769,274.53172 11.79111,2.17566 19.59296,13.51675 17.4392,25.29404 -2.15643,11.79152 -13.45956,19.5943 -25.25208,17.41571 C 139.63634,676.43006 17.532011,534.99524 17.532011,365.01847 c 0,-183.19618 141.811949,-333.236071 321.654299,-346.430593 0.0149,-0.0012 0.0311,0.0011 0.0461,0 0.73236,-0.05587 1.47548,-0.05998 2.19417,-0.04408 11.00022,0.243191 20.24323,8.763697 21.13222,19.96633 0.94708,11.93448 -7.94362,22.39966 -19.87983,23.37055 C 193.21871,72.738277 73.722371,191.57143 61.946551,340.7543 c -0.10075,1.30164 0.89244,2.4519 2.19418,2.55266 1.28742,0.0997 2.43075,-0.86983 2.55285,-2.14992 0.001,-0.0144 -10e-4,-0.0299 0,-0.0441 C 78.867001,187.00139 207.72343,65.731667 364.97741,65.731667 c 156.56889,0 285.0584,120.211973 298.19366,273.365603 1.03068,11.94265 -7.80192,22.4742 -19.7456,23.50478 -11.94366,1.03059 -22.47606,-7.84536 -23.50675,-19.78802 -10.5603,-122.87624 -107.98971,-220.91497 -230.58494,-232.4912 -1.29926,-0.12879 -2.46809,0.84882 -2.59694,2.14791 -0.12882,1.29916 0.80474,2.42163 2.104,2.55266 127.51771,12.01854 227.31873,119.34661 227.31873,249.99706 0,126.53864 -93.62022,231.21948 -215.36397,248.60853 -1.29368,0.17619 -2.19005,1.39132 -2.01384,2.68489 0.17619,1.29358 1.34734,2.19184 2.64102,2.01567 0.10331,-0.0144 0.21665,-0.0637 0.31461,-0.0902 0.0555,-0.0151 0.12475,-0.0253 0.17834,-0.0441 116.5754,-16.84884 207.73254,-112.22364 218.00299,-230.7901 0.93712,-11.95037 11.37709,-20.90539 23.32842,-19.96835 11.95135,0.93704 20.90507,11.42023 19.96801,23.37054 -12.05748,141.35083 -122.38861,254.65085 -262.37346,271.35194 -1.29737,0.14667 -2.20662,1.34355 -2.05993,2.6408 0.14668,1.29727 1.29962,2.20643 2.59695,2.05976 150.75216,-17.98698 267.65752,-146.25944 267.65752,-301.83943 0,-160.28723 -124.10053,-291.565123 -281.44778,-303.137803 -11.93839,-0.83373 -21.00249,-11.15936 -20.19444,-23.10405 0.75857,-11.212216 9.91316,-19.863662 20.9098,-20.234832 0.73311,-0.02478 1.49077,-0.0064 2.23826,0.04408 179.94883,13.086211 321.88076,163.158235 321.88076,346.430595 0,187.87973 -149.17228,340.90663 -335.53674,347.19399 -11.64157,-0.0682 -21.19931,-9.35875 -21.535,-21.08638 -0.006,-0.18333 6.8e-4,-0.3566 0,-0.53899 h -0.0461 l 0.0401,-96.43354 c -0.006,-11.50289 8.98711,-21.09261 20.60121,-21.66943 101.47305,-5.28053 183.72123,-83.37431 195.39396,-183.02115 0.003,-0.0295 -0.003,-0.0586 0,-0.0881 0.001,-0.0148 -10e-4,-0.0316 0,-0.0461 0.11289,-1.28029 -0.82051,-2.45971 -2.10401,-2.59673 -1.29826,-0.13854 -2.45833,0.80769 -2.59693,2.10583 -11.28231,96.50469 -90.53889,172.35381 -188.45476,178.77141 -11.8474,0.62993 -22.00758,-8.3694 -22.78938,-20.24084 -0.0311,-0.47307 -0.0435,-0.92101 -0.0441,-1.38852 h -0.0461 v -117.0731 -16.43191 -0.13424 c 0,-1.3961 -1.11126,-2.50657 -2.50677,-2.50657 -1.23835,0 -2.28928,0.90737 -2.50677,2.10383 -0.11219,0.68767 -0.23629,1.34813 -0.40277,2.01566 h -2.4627 c -1.39688,0 -2.50677,1.11047 -2.50677,2.50657 0,1.39605 1.10989,2.55264 2.50677,2.55264 h 0.58112 c -4.05616,8.09467 -12.42842,13.65486 -22.07202,13.65486 -13.61121,0 -24.62688,-11.05987 -24.62688,-24.6689 0,-9.54938 5.44902,-17.80665 13.38748,-21.89186 l 0.58312,1.47671 c 0.46593,1.21956 1.82451,1.85428 3.04379,1.38851 1.22001,-0.46577 1.85443,-1.87001 1.38864,-3.08962 l -0.53702,-1.34244 1.34256,-0.4929 c 1.21914,-0.46575 1.85456,-1.82592 1.38863,-3.04555 -0.46564,-1.21966 -1.87006,-1.85225 -3.08987,-1.38651 l -1.29848,0.49289 -0.53702,-1.34445 c -0.46594,-1.21964 -1.82594,-1.80821 -3.0458,-1.34243 -1.21985,0.46575 -1.85243,1.82387 -1.38663,3.04353 l 0.35668,0.98579 c -1.93324,0.48768 -3.95784,0.76139 -6.04351,0.76139 -13.60821,0 -24.67096,-11.01575 -24.67096,-24.62483 0,-13.60907 11.06275,-24.6669 24.67096,-24.6669 4.31133,0 8.34247,1.13893 11.86458,3.08763 l -0.49292,0.7173 c -0.74919,1.06924 -0.48703,2.56305 0.5831,3.31203 1.06936,0.74912 2.5634,0.48863 3.3123,-0.58106 l 0.85163,-1.16411 1.1642,0.80546 c 1.06913,0.74885 2.56341,0.48854 3.31231,-0.58106 0.74921,-1.06938 0.48845,-2.51905 -0.5811,-3.26795 l -1.2083,-0.85155 0.84962,-1.16412 c 0.7489,-1.06938 0.48844,-2.56306 -0.58111,-3.31203 -1.0697,-0.74896 -2.56526,-0.48847 -3.31431,0.58107 l -1.02996,1.47668 c -5.03928,-4.50699 -8.23768,-11.01211 -8.23768,-18.31134 0,-13.60906 11.01467,-24.66689 24.62487,-24.66689 12.54296,0 22.85938,9.40801 24.40246,21.53319 h -1.2083 c -1.30568,0 -2.37452,1.06876 -2.37452,2.37432 0,1.30558 1.06884,2.37233 2.37452,2.37233 h 1.43273 v 1.4326 c 0,1.30543 1.06671,2.37232 2.37251,2.37232 1.30549,0 2.37253,-1.06689 2.37253,-2.37232 v -1.4326 h 1.43272 c 1.30567,0 2.37251,-1.06675 2.37251,-2.37233 0,-1.30556 -1.06684,-2.37432 -2.37251,-2.37432 h -1.2083 c 1.5449,-12.12518 11.85751,-21.53319 24.40044,-21.53319 3.40254,0 6.63151,0.67607 9.58224,1.9255 0.73774,0.31238 1.45106,0.6939 2.1501,1.07396 0.0474,0.0252 0.087,0.0649 0.13426,0.0902 7.61252,4.20333 12.80437,12.28045 12.80437,21.57926 0,7.29957 -3.23345,13.80235 -8.28377,18.30934 l -1.02996,-1.47668 c -0.74876,-1.06951 -2.24319,-1.33201 -3.31231,-0.58307 -1.06999,0.74897 -1.33,2.24465 -0.5811,3.31403 l 0.84962,1.16412 -1.2083,0.84955 c -1.06956,0.7489 -1.33187,2.20057 -0.58311,3.26995 0.74933,1.0696 2.24489,1.3299 3.3143,0.58106 l 1.16422,-0.80546 0.84962,1.16411 c 0.74891,1.06972 2.2449,1.33018 3.31431,0.58106 1.07013,-0.74896 1.32986,-2.24279 0.5811,-3.31203 l -0.80553,-1.16412 c 3.31795,-1.67037 7.04525,-2.64081 11.01496,-2.64081 13.60878,0 24.66898,11.05783 24.66898,24.6669 0,13.60908 -11.06049,24.62483 -24.66898,24.62483 -1.72084,0 -3.39537,-0.20194 -5.01554,-0.53698 l 0.44886,-1.2102 c 0.46593,-1.21963 -0.169,-2.57778 -1.38864,-3.04353 -1.22,-0.46577 -2.578,0.12267 -3.0438,1.34243 l -0.49294,1.34244 -1.34456,-0.49088 c -1.21953,-0.46574 -2.62208,0.16679 -3.08788,1.38652 -0.46579,1.21964 0.16736,2.57981 1.38664,3.04554 l 1.34456,0.4929 -0.53703,1.34244 c -0.46564,1.21961 0.16666,2.62385 1.38665,3.08962 1.21942,0.46577 2.58001,-0.16903 3.04579,-1.38851 l 0.58112,-1.52278 c 7.98087,4.07553 13.47765,12.36693 13.47765,21.93793 0,6.71391 -2.71328,12.78642 -7.07547,17.23737 -0.0589,0.06 -0.11887,0.11887 -0.17833,0.17833 -0.28384,0.26513 -0.56393,0.54429 -0.85163,0.80547 -0.296,0.26938 -0.58465,0.55048 -0.89371,0.80546 -0.0958,0.0845 -0.21832,0.14024 -0.3146,0.22441 -4.22059,3.37494 -9.54207,5.41786 -15.35723,5.41786 -9.61051,0 -17.91957,-5.53297 -21.98384,-13.56669 h 0.53702 c 1.40563,0 2.55286,-1.19126 2.55286,-2.59673 0,-1.40548 -1.14723,-2.50657 -2.55286,-2.50657 h -2.46268 c -0.15924,-0.63543 -0.29359,-1.27166 -0.40277,-1.9255 -0.14937,-1.28435 -1.19049,-2.28216 -2.50677,-2.28216 -1.41328,0 -2.55286,1.1375 -2.55286,2.55066 0,0.0877 -0.0144,0.18304 0,0.26848 v 16.29767 117.02902 c -9.2e-4,0.0635 -0.004,0.11385 0,0.17832 0.0859,1.30271 1.20397,2.32587 2.50677,2.24008 88.50958,-5.81015 159.97117,-74.36788 170.27614,-161.57611 1.2727,-11.9193 11.94313,-20.52358 23.86342,-19.25105 11.92029,1.2726 20.48685,11.94213 19.20857,23.86144 -12.62285,109.0982 -102.55363,194.59553 -213.61664,200.34669 -1.27176,0.0632 -2.25026,1.11057 -2.23826,2.37231 2.9e-4,0.0319 -10e-4,0.058 0,0.0902 v 96.34537 c 0.0375,1.305 1.09111,2.36559 2.4186,2.32824 175.59745,-6.39273 316.01357,-150.73091 316.01357,-327.85278 0,-173.02202 -133.97184,-314.710323 -303.83639,-327.135483 -1.30267,-0.0881 -2.41865,0.89147 -2.50677,2.194 -0.0881,1.30251 0.8915,2.46454 2.19417,2.55265 167.39743,12.26677 299.44804,151.875773 299.44804,322.388833 0,165.52999 -124.41378,302.02699 -284.85225,321.09248 -11.91676,1.3203 -22.65255,-7.22048 -23.99769,-19.1168 -1.3468,-11.91116 7.25038,-22.69508 19.16248,-24.04177 130.77536,-15.71141 233.87163,-121.60775 245.22683,-253.66774 0.10197,-1.30154 -0.89255,-2.45058 -2.19418,-2.55264 -1.30165,-0.10197 -2.4508,0.89245 -2.55286,2.19399 -10.99791,127.82065 -109.36372,230.6442 -235.10756,248.52038 v 0.0441 c -11.87837,1.6178 -22.87272,-6.70248 -24.49062,-18.57981 -1.61792,-11.87738 6.74709,-22.82672 18.62546,-24.44451 112.29862,-16.1097 198.6181,-112.70264 198.6181,-229.44764 0,-120.60788 -92.13163,-219.63527 -209.8555,-230.69994 -11.9295,-1.18316 -20.66031,-11.84476 -19.47706,-23.77327 1.18318,-11.928523 11.8017,-20.658593 23.73115,-19.475463 v 0.0461 C 523.06395,103.583 627.8179,208.99897 639.17136,341.15712 c 0.11233,1.30071 1.25204,2.26015 2.55286,2.14792 1.3008,-0.11233 2.30643,-1.24995 2.19418,-2.55066 C 631.62273,197.50647 511.42135,85.070877 364.9774,85.070877 c -147.08076,0 -267.585449,113.424723 -278.987089,257.562833 -0.92527,11.95128 -11.37411,20.89353 -23.3264,19.96835 -11.95228,-0.9252 -20.94216,-11.37517 -20.0141,-23.32646 C 55.151341,180.60355 182.17114,54.178657 341.11198,42.585547 c 1.30154,-0.10831 2.25336,-1.20724 2.15009,-2.50857 -0.10331,-1.30135 -1.25132,-2.29727 -2.55286,-2.194 C 170.84573,50.309237 36.874821,191.99723 36.874821,365.01846 c 0,160.31924 115.011299,293.73181 267.030319,322.34676 0.14572,0.0586 0.3324,0.10516 0.49294,0.13425 1.28434,0.23483 2.49635,-0.5972 2.7312,-1.88142 0.23486,-1.28425 -0.59727,-2.54022 -1.88158,-2.77506 -0.16053,-0.0293 -0.33389,-0.0494 -0.49094,-0.0461 C 163.15709,656.11983 54.167171,537.10928 42.649811,390.71726 c -0.89338,-11.9541 8.10304,-22.39266 20.05819,-23.28038 11.94019,-0.88658 22.37186,8.05834 23.28231,20.01244 9.8338,123.67658 100.003939,224.72958 218.317599,250.89269 1.27575,0.27771 2.54364,-0.51563 2.82137,-1.79127 0.27481,-1.26216 -0.53899,-2.52562 -1.7914,-2.84317 C 182.00776,606.44118 89.751471,496.53409 89.751471,365.01846 c 0,-143.16272 109.308849,-260.76294 249.032069,-273.948663 11.93073,-1.17402 22.56077,7.59179 23.73118,19.521533 1.17038,11.92979 -7.5463,22.55687 -19.47708,23.72719 -109.72259,10.29641 -197.1688,96.9965 -208.55702,206.38969 -0.12937,1.29911 0.80479,2.46739 2.104,2.59674 1.29922,0.12935 2.4676,-0.84881 2.59695,-2.14792 11.92492,-114.19164 108.43735,-203.21189 225.79583,-203.21189 116.43621,0 212.46602,87.62714 225.61549,200.525 1.36639,11.9092 -7.20814,22.6783 -19.1184,24.04175 -11.91023,1.3635 -22.68021,-7.20753 -24.04376,-19.11679 -9.76082,-83.23264 -75.19428,-149.41931 -158.05288,-160.41199 -1.2955,-0.16224 -2.47875,0.76436 -2.64102,2.05975 -0.16226,1.2954 0.76442,2.48055 2.05991,2.6428 87.56458,11.65191 155.14134,86.5906 155.14134,177.3328 0,84.70431 -58.85016,155.65372 -137.90251,174.2011 -11.675,2.72146 -23.33791,-4.53149 -26.05961,-16.2055 -2.72173,-11.67401 4.53391,-23.33872 16.20885,-26.05744 52.00842,-12.25396 92.46002,-54.49352 102.12842,-107.44758 0.22457,-1.28606 -0.63949,-2.50641 -1.92568,-2.73097 -1.27141,-0.22197 -2.48663,0.61753 -2.73119,1.90147 -8.49031,46.45614 -41.5022,84.3262 -85.11402,99.72552 -11.26844,4.0906 -23.75812,-1.71418 -27.84902,-12.98162 -4.08619,-11.2544 1.74201,-23.74345 12.98473,-27.8487 0.0128,-0.004 0.0309,0.004 0.0441,0 10.60757,-3.68967 20.2591,-9.38362 28.56638,-16.60823 0.49702,-0.39597 0.9625,-0.82752 1.43273,-1.25429 0.54732,-0.49683 1.10257,-0.98639 1.61107,-1.52277 16.64847,-15.91168 27.04348,-38.3243 27.04348,-63.17099 0,-3.51415 -0.22387,-6.97921 -0.62719,-10.3849 -0.001,-0.0144 10e-4,-0.0316 0,-0.0461 -0.003,-0.0438 0.006,-0.0906 0,-0.13424 -3.45526,-28.67502 -20.82331,-53.05449 -45.13193,-66.25861 -0.21032,-0.11418 -0.4159,-0.24603 -0.62718,-0.35866 -0.15724,-0.0854 -0.33405,-0.14181 -0.49294,-0.2244 -6.63151,-3.47922 -13.77542,-6.14096 -21.26648,-7.83425 -11.66533,-2.67497 -18.99596,-14.29239 -16.34312,-25.96727 2.6561,-11.68912 14.32341,-19.04733 26.01352,-16.38583 50.73201,11.46164 90.28181,52.44532 99.73386,103.91114 0.24269,1.28679 1.46634,2.14584 2.75324,1.92551 1.28692,-0.22033 2.14601,-1.44418 1.92567,-2.73097 -11.53157,-63.15774 -66.84331,-111.0301 -133.33582,-111.0301 -67.83624,0 -123.98032,49.83045 -133.91893,114.88111 -1.8878,11.83749 -13.05693,19.88439 -24.89539,17.99676 -11.83847,-1.88759 -19.89427,-13.00975 -17.99826,-24.84723 12.04751,-78.03736 74.4832,-139.45825 153.03733,-149.89085 1.29473,-0.16839 2.22831,-1.34618 2.05992,-2.64081 -0.16842,-1.29461 -1.3483,-2.22814 -2.64303,-2.05974 -89.92836,11.91223 -159.30526,88.9027 -159.30526,182.08145 0,80.07033 51.24691,148.16504 122.72562,173.30345 1.234,0.42088 2.57323,-0.19871 2.99971,-1.43261 0.42188,-1.22057 -0.22446,-2.55535 -1.43272,-2.99946 -61.29092,-21.57349 -107.35752,-75.62735 -117.48566,-141.47347 -1.84231,-11.84509 6.28646,-22.91771 18.13252,-24.75708 11.84607,-1.83931 22.96572,6.24183 24.80522,18.08692 6.69966,43.6803 34.21216,80.52445 72.13132,99.97199 0.2084,0.10945 0.3535,0.17373 0.53701,0.26847 1.1601,0.59903 2.57899,0.13009 3.17806,-1.02986 0.59906,-1.15999 0.17617,-2.57876 -0.98388,-3.17779 -42.55518,-21.58683 -71.72854,-65.77612 -71.72854,-116.76052 0,-62.14149 43.35077,-114.13967 101.45714,-127.46203 11.6175,-2.89668 23.40677,4.14814 26.32812,15.75869 2.9213,11.61057 -4.15328,23.38317 -15.76201,26.32592 -7.68539,1.6861 -14.97822,4.41074 -21.75943,7.9685 -0.2844,0.14773 -0.57094,0.29212 -0.84961,0.44882 -0.0877,0.0473 -0.18083,0.0867 -0.26851,0.13424 -24.30847,13.20412 -41.67852,37.67587 -45.13392,66.39486 -0.40318,3.44961 -0.62519,6.91483 -0.62519,10.42898 0,24.84669 10.39485,47.25931 27.04348,63.17099 0.50835,0.53638 1.06375,1.02594 1.61106,1.52277 0.47009,0.42677 0.93557,0.85832 1.43273,1.25429 8.22815,7.15585 17.80109,12.78297 28.29788,16.47398 8.98207,3.10528 14.64371,11.54291 14.63986,20.5494 v 99.16652 c 0.003,1.36961 -0.13448,2.72457 -0.40276,4.11949 -2.19747,11.42664 -13.00362,19.00373 -24.40245,17.36962 -99.05228,-17.22429 -176.08378,-98.55005 -186.66135,-199.74157 -0.11762,-1.32256 -1.25253,-2.28764 -2.55286,-2.16996 -1.30031,0.11763 -2.26577,1.29451 -2.14809,2.59473 11.00619,105.66357 92.99846,190.21147 197.45188,205.13739 10.86807,1.51769 18.73415,10.86174 18.71563,21.53521 v 96.12096 5.10329 c 4.47081,0 8.05935,3.63438 8.05935,8.10475 0,1.39698 -0.3215,2.7009 -0.9398,3.84902 1.87717,0.0367 3.75671,0.0383 5.64075,0.0461 -0.50526,-0.99525 -0.84347,-2.08157 -0.89371,-3.26795 -0.18912,-4.46636 3.27801,-8.27472 7.74474,-8.4634 4.46694,-0.1894 8.27297,3.27973 8.46211,7.7461 0.0571,1.34539 -0.22737,2.61602 -0.76145,3.76085 1.87904,-0.0655 3.77111,-0.0843 5.64274,-0.17832 -0.59195,-0.99413 -1.00025,-2.09056 -1.12012,-3.31404 -0.43585,-4.44903 2.84844,-8.38381 7.29789,-8.82005 0.27811,-0.0265 0.53187,-0.0456 0.80552,-0.0441 4.10287,0.0144 7.60663,3.12585 8.01526,7.29729 0.13139,1.34123 -0.0676,2.63301 -0.53701,3.80491 1.88151,-0.16922 3.76763,-0.33927 5.64073,-0.53697 -0.63176,-0.954 -1.11308,-2.02159 -1.29847,-3.22387 -0.68141,-4.41828 2.34227,-8.54143 6.76087,-9.22279 0.2761,-0.0427 0.57854,-0.0738 0.85162,-0.0881 4.09757,-0.21231 7.7793,2.7067 8.41803,6.84847 0.21062,1.36617 0.0763,2.67276 -0.35868,3.89509 1.8856,-0.27507 3.7646,-0.58977 5.64073,-0.89363 -0.68741,-0.91332 -1.22416,-1.94074 -1.47681,-3.13571 -0.92471,-4.37372 1.84976,-8.6548 6.22385,-9.57943 0.5469,-0.11547 1.07321,-0.17675 1.61106,-0.18033 3.76532,-0.0245 7.15994,2.57625 7.96917,6.40365 0.28897,1.36646 0.23282,2.68949 -0.13425,3.93918 1.87206,-0.38022 3.73513,-0.79947 5.59665,-1.20821 -0.74691,-0.88251 -1.33474,-1.90325 -1.65514,-3.08962 -1.16528,-4.31608 1.36852,-8.77449 5.68481,-9.94009 0.80922,-0.21805 1.62286,-0.29887 2.41862,-0.2685 3.44846,0.13023 6.57555,2.49268 7.52231,5.99893 0.36026,1.33451 0.38045,2.68174 0.0902,3.94118 1.85595,-0.48553 3.7063,-0.96437 5.55055,-1.4787 -0.81145,-0.84555 -1.48701,-1.85515 -1.87957,-3.04354 -1.40211,-4.24474 0.90252,-8.80645 5.14779,-10.20858 0.79605,-0.26289 1.62229,-0.38884 2.41861,-0.40274 3.45052,-0.0604 6.65149,2.10274 7.79084,5.55211 0.43818,1.3262 0.54466,2.65668 0.31259,3.93918 1.82672,-0.5891 3.6484,-1.17295 5.4624,-1.78927 -0.85692,-0.80366 -1.55613,-1.79025 -2.01383,-2.95537 -1.63493,-4.1604 0.40551,-8.84258 4.56669,-10.47707 0.78029,-0.30689 1.57819,-0.47953 2.37251,-0.53698 3.44179,-0.25143 6.77713,1.72282 8.10543,5.10329 0.51092,1.30056 0.69655,2.64261 0.53702,3.94117 1.78632,-0.68767 3.55553,-1.38865 5.32815,-2.10384 -0.89785,-0.74869 -1.6752,-1.68905 -2.19417,-2.82113 -1.8626,-4.06436 -0.0808,-8.83703 3.98358,-10.69948 1.01597,-0.46554 2.08489,-0.73028 3.13596,-0.76137 3.15338,-0.0937 6.2134,1.69697 7.6105,4.74464 0.57561,1.25629 0.79784,2.56606 0.71737,3.851 1.75098,-0.78925 3.5018,-1.55671 5.23795,-2.37232 -0.92961,-0.6987 -1.75016,-1.58977 -2.32842,-2.68689 -2.08449,-3.95476 -0.59676,-8.83957 3.35839,-10.92388 1.23589,-0.65142 2.59017,-0.95548 3.89542,-0.93971 2.87149,0.0364 5.64027,1.62302 7.07346,4.3419 0.63694,1.20843 0.94414,2.48522 0.93979,3.76085 1.67819,-0.87178 3.35282,-1.74412 5.01554,-2.64081 -0.94355,-0.64039 -1.79321,-1.4668 -2.4186,-2.50856 -2.3003,-3.83376 -1.05632,-8.80268 2.77729,-11.10222 1.19808,-0.71904 2.50114,-1.10797 3.80525,-1.16413 2.86911,-0.12248 5.71655,1.30412 7.29789,3.93919 0.70307,1.17205 1.09589,2.44157 1.16421,3.71676 1.62494,-0.96202 3.22657,-1.96905 4.83521,-2.95537 -0.9727,-0.59024 -1.87141,-1.36981 -2.55086,-2.37233 -2.50876,-3.69995 -1.50652,-8.72789 2.19418,-11.23645 1.38763,-0.94068 2.96146,-1.3871 4.52061,-1.38852 2.59859,-0.004 5.14895,1.26751 6.71677,3.58051 0.7658,1.12921 1.20792,2.359 1.34257,3.62661 1.56273,-1.04597 3.11133,-2.10804 4.65686,-3.1778 -1.00002,-0.52992 -1.90858,-1.27719 -2.64103,-2.23807 -2.7095,-3.55625 -2.03532,-8.6192 1.5209,-11.32862 1.33346,-1.01603 2.87774,-1.56604 4.43444,-1.65501 2.59445,-0.14756 5.24582,0.95533 6.93921,3.17778 0.82743,1.08575 1.36234,2.27929 1.56698,3.53644 1.50613,-1.13394 2.98862,-2.29018 4.47653,-3.44627 -1.02557,-0.47908 -1.99387,-1.14415 -2.77528,-2.05975 -2.90207,-3.40047 -2.5051,-8.46874 0.8957,-11.3707 1.48788,-1.26961 3.28974,-1.94165 5.1037,-1.97159 2.33241,-0.0383 4.68168,0.95236 6.31403,2.86521 0.87458,1.02478 1.46185,2.17571 1.74532,3.4042 1.42662,-1.20198 2.84632,-2.40289 4.25411,-3.62659 -1.04891,-0.41719 -2.03646,-1.05647 -2.86547,-1.92552 -3.08587,-3.23471 -2.96651,-8.33163 0.26852,-11.41677 1.41543,-1.35027 3.20397,-2.10756 5.01355,-2.23807 2.32662,-0.16726 4.71261,0.68725 6.44826,2.50656 0.92995,0.97515 1.57544,2.10678 1.92568,3.31402 1.3682,-1.28833 2.72554,-2.58622 4.07375,-3.89509 -1.06596,-0.35974 -2.07979,-0.92499 -2.95563,-1.74718 -3.25996,-3.05879 -3.4623,-8.15712 -0.40277,-11.41678 1.52977,-1.62991 3.61605,-2.48459 5.68683,-2.55064 2.07063,-0.0653 4.14694,0.66436 5.777,2.19399 0.99227,0.93108 1.6898,2.02447 2.104,3.22388 1.29519,-1.36102 2.5751,-2.73873 3.84932,-4.11951 -1.08634,-0.29627 -2.12525,-0.79608 -3.04378,-1.56685 -3.42416,-2.8746 -3.86044,-7.99277 -0.98588,-11.41679 1.61673,-1.92599 3.93726,-2.92891 6.26994,-2.90928 1.81417,0.0144 3.60562,0.66606 5.10371,1.9235 1.0315,0.86575 1.79637,1.92989 2.28235,3.08963 1.21941,-1.43151 2.42939,-2.89151 3.6269,-4.34192 -1.09947,-0.24068 -2.17426,-0.66961 -3.13396,-1.38852 -3.57819,-2.68048 -4.29173,-7.74887 -1.61107,-11.32662 1.50784,-2.01243 3.75948,-3.11427 6.08959,-3.22387 1.81216,-0.0853 3.67253,0.44033 5.23797,1.61294 1.079,0.8083 1.9191,1.81701 2.46269,2.95338 1.13037,-1.4855 2.25044,-2.97292 3.3584,-4.47614 -1.11426,-0.1789 -2.22487,-0.58868 -3.22414,-1.25429 -3.72089,-2.47833 -4.71681,-7.51595 -2.23826,-11.23646 1.5491,-2.32529 4.07209,-3.5664 6.6707,-3.58252 1.55926,-0.0103 3.17131,0.41503 4.56668,1.34445 1.13443,0.75565 2.03438,1.74351 2.64103,2.86521 1.04892,-1.54862 2.06431,-3.13706 3.08988,-4.70255 -1.13332,-0.1129 -2.2685,-0.45922 -3.31231,-1.07396 -3.85208,-2.26877 -5.13436,-7.25032 -2.86544,-11.10221 1.4181,-2.40747 3.89862,-3.77857 6.49236,-3.93917 1.55626,-0.0964 3.16626,0.22316 4.61077,1.07396 1.17293,0.69077 2.15264,1.59947 2.82137,2.68489 0.95897,-1.60033 1.88438,-3.21874 2.81937,-4.8348 -1.13666,-0.0485 -2.28092,-0.29389 -3.35639,-0.84955 -3.97186,-2.05226 -5.54508,-6.95237 -3.49265,-10.92389 1.41098,-2.73041 4.20235,-4.32854 7.07347,-4.38798 1.3051,-0.0271 2.61017,0.25431 3.85132,0.89563 1.21069,0.62555 2.22347,1.50287 2.95363,2.55063 0.87628,-1.66463 1.7458,-3.3334 2.59694,-5.01311 -1.1504,0.0192 -2.32762,-0.16945 -3.44656,-0.67122 -4.07972,-1.82941 -5.90325,-6.62257 -4.07375,-10.70149 1.25782,-2.80433 3.94143,-4.5706 6.80496,-4.78871 1.30146,-0.0993 2.62067,0.14371 3.8954,0.71529 1.25483,0.56267 2.3025,1.40219 3.08989,2.41841 0.79013,-1.72658 1.56464,-3.45255 2.32843,-5.19346 -1.13633,0.078 -2.31236,-0.0571 -3.44856,-0.49289 -4.17417,-1.60097 -6.25784,-6.30319 -4.65686,-10.47708 1.20093,-3.13044 4.10085,-5.08655 7.2538,-5.19345 1.05092,-0.0357 2.13442,0.1387 3.17805,0.53899 1.28361,0.49231 2.38231,1.26489 3.22414,2.23807 0.69109,-1.764 1.39567,-3.50634 2.05992,-5.28362 -1.14863,0.14988 -2.36372,0.0644 -3.53674,-0.31257 -4.25626,-1.36764 -6.5616,-5.95253 -5.19388,-10.20858 1.02586,-3.19207 3.84325,-5.31509 6.9853,-5.59619 1.04749,-0.0937 2.11393,0.0167 3.17805,0.35865 1.30888,0.42056 2.46273,1.13399 3.35838,2.05975 0.59339,-1.80577 1.22562,-3.59975 1.79142,-5.41786 -1.15201,0.22093 -2.37379,0.22573 -3.58282,-0.0902 -4.32565,-1.13009 -6.90517,-5.56876 -5.775,-9.894 0.91827,-3.51426 3.98477,-5.88434 7.43215,-6.04299 0.79548,-0.0365 1.60551,0.0566 2.4166,0.26847 1.33019,0.3475 2.49974,1.00568 3.44857,1.87943 0.49159,-1.83419 0.96917,-3.66056 1.43273,-5.50602 -1.11012,0.26461 -2.29964,0.33225 -3.49265,0.0902 -4.3814,-0.88915 -7.20119,-5.15621 -6.31202,-9.53736 0.778,-3.83344 4.15993,-6.48645 7.92509,-6.49182 0.53801,-9.2e-4 1.06346,0.0231 1.61107,0.13425 1.34702,0.27335 2.54718,0.83426 3.53673,1.65701 0.38106,-1.82439 0.72038,-3.67173 1.07404,-5.50602 -1.08196,0.31729 -2.25806,0.44188 -3.44656,0.26848 -4.42408,-0.6454 -7.49649,-4.75516 -6.85104,-9.17869 0.56476,-3.87066 3.80727,-6.72428 7.5664,-6.93864 0.53696,-0.0307 1.06003,0.009 1.61307,0.0902 1.34845,0.19671 2.59669,0.72556 3.62691,1.47668 0.28155,-1.8564 0.508,-3.73068 0.76144,-5.59618 -1.05398,0.36899 -2.21883,0.55324 -3.40447,0.44681 -4.45288,-0.39973 -7.74171,-4.36557 -7.34198,-8.81805 0.37476,-4.17424 3.86635,-7.29558 7.96917,-7.34337 0.27351,-0.003 0.57338,-0.025 0.85162,0 1.33423,0.11976 2.57512,0.53072 3.62691,1.20821 0.17571,-1.84545 0.34279,-3.69675 0.49093,-5.55012 -1.03284,0.42308 -2.16796,0.66779 -3.35639,0.62715 -4.46822,-0.15276 -7.98986,-3.90546 -7.83691,-8.37324 0.14327,-4.18861 3.47471,-7.51543 7.5684,-7.79018 0.27294,-0.0182 0.52615,-0.008 0.80554,0 1.3264,0.0452 2.58292,0.38152 3.67099,0.98579 0.0741,-1.84676 0.17785,-3.69836 0.22442,-5.5521 -1.00177,0.48266 -2.12703,0.78034 -3.31431,0.80546 -4.46974,0.0946 -8.18921,-3.45499 -8.28377,-7.92442 -0.0947,-4.46939 3.45534,-8.18652 7.92508,-8.28107 1.32698,-0.0281 2.60323,0.26252 3.71709,0.80546 -0.0264,-1.8519 -0.0363,-3.70699 -0.0902,-5.5521 -0.9767,0.54087 -2.08276,0.89493 -3.26822,0.98579 -4.45771,0.34163 -8.34482,-3.02024 -8.68653,-7.47761 -0.34171,-4.45737 2.97638,-8.34418 7.43415,-8.68582 0.27867,-0.0213 0.5761,-0.0513 0.84961,-0.0441 1.03898,0.0256 2.04407,0.19455 2.95563,0.58307 -0.12724,-1.84055 -0.29444,-3.6751 -0.44886,-5.50804 -0.95011,0.59005 -2.04352,1.00785 -3.22213,1.16413 -4.43212,0.58769 -8.50158,-2.50705 -9.08931,-6.93862 -0.58771,-4.43168 2.55138,-8.50088 6.9833,-9.08855 0.27695,-0.0367 0.53416,-0.0812 0.80754,-0.0902 1.04585,-0.0321 2.05825,0.15104 2.9997,0.4929 -0.23274,-1.86955 -0.45637,-3.73555 -0.71736,-5.59619 -0.91869,0.6533 -2.00009,1.16544 -3.17804,1.38853 -4.39271,0.83194 -8.61613,-2.05539 -9.44799,-6.44774 -0.83201,-4.39229 2.05542,-8.65934 6.44827,-9.49128 0.54905,-0.10399 1.07321,-0.1414 1.61107,-0.13423 0.76838,0.0102 1.52369,0.14088 2.23826,0.35865 -0.33276,-1.83612 -0.66976,-3.68161 -1.02995,-5.50803 -0.87964,0.69771 -1.92673,1.23551 -3.08789,1.52276 -4.33985,1.07363 -8.73295,-1.61527 -9.80666,-5.95483 -1.07372,-4.33961 1.57126,-8.68615 5.91126,-9.75977 0.54238,-0.1341 1.07363,-0.24664 1.61105,-0.26849 0.77006,-0.0314 1.5104,0.0869 2.23827,0.26849 -0.44315,-1.8514 -0.87126,-3.70978 -1.34256,-5.55009 -0.84564,0.75516 -1.84591,1.39096 -2.99971,1.74517 -4.27393,1.31203 -8.80704,-1.09822 -10.11926,-5.37178 -1.31212,-4.27352 1.09847,-8.7623 5.37222,-10.07433 0.53428,-0.16404 1.07779,-0.30709 1.61308,-0.35865 0.7702,-0.0742 1.54388,-0.0503 2.28234,0.0902 -0.542,-1.81078 -1.08584,-3.61703 -1.65515,-5.41585 -0.80763,0.81622 -1.8061,1.49972 -2.95563,1.9235 -4.1947,1.5464 -8.84111,-0.59629 -10.38777,-4.79073 -1.54653,-4.19443 0.59626,-8.83849 4.79111,-10.3849 0.78659,-0.28995 1.57734,-0.4517 2.37252,-0.49289 0.50752,-0.0264 1.02736,-0.0234 1.5229,0.0441 -0.63843,-1.76779 -1.30487,-3.52861 -1.96975,-5.28362 -0.75445,0.84098 -1.71721,1.5377 -2.82137,2.01568 -4.10282,1.77606 -8.8801,-0.10514 -10.65629,-4.20766 -1.77615,-4.10243 0.10515,-8.87938 4.20803,-10.6554 1.02571,-0.44402 2.08244,-0.66226 3.13395,-0.67122 0.23387,-10e-4 0.48541,0.0261 0.71737,0.0441 -0.74572,-1.75288 -1.46599,-3.49888 -2.23827,-5.23754 -0.71212,0.89664 -1.64177,1.69304 -2.73119,2.23807 -3.99836,2.00027 -8.83606,0.37136 -10.83664,-3.6266 -2.00043,-3.9979 -0.37136,-8.83349 3.62691,-10.83371 0.99965,-0.50006 2.04039,-0.78457 3.08989,-0.85155 0.21862,-0.0144 0.45365,-0.003 0.67127,0 -0.83033,-1.685 -1.6513,-3.38904 -2.50676,-5.05922 -0.66014,0.91535 -1.55615,1.73335 -2.59695,2.32824 -3.88149,2.21838 -8.79653,0.88173 -11.01497,-2.99946 -2.2185,-3.88119 -0.88178,-8.83975 2.99971,-11.05813 1.17168,-0.66968 2.45472,-1.02528 3.71708,-1.07395 -0.92242,-1.63594 -1.87454,-3.26081 -2.82137,-4.88088 -0.60577,0.93894 -1.41861,1.81636 -2.41661,2.46248 -3.75293,2.42964 -8.76338,1.33407 -11.1933,-2.41841 -2.42982,-3.75252 -1.33638,-8.76268 2.4166,-11.19237 1.12295,-0.72707 2.37711,-1.13063 3.6269,-1.25227 -1.00474,-1.57146 -2.01576,-3.1457 -3.04378,-4.70057 -0.55234,0.9715 -1.32476,1.85109 -2.28436,2.55064 -3.61253,2.63353 -8.69391,1.82114 -11.32756,-1.79125 -2.63372,-3.61241 -1.82131,-8.64708 1.7914,-11.28053 1.06793,-0.77844 2.27001,-1.27868 3.49266,-1.4787 -1.07616,-1.49423 -2.12602,-2.999 -3.22415,-4.47614 -0.49718,0.98388 -1.24076,1.89753 -2.15009,2.64081 -3.4614,2.82925 -8.54207,2.29706 -11.37165,-1.16413 -2.82957,-3.46119 -2.34327,-8.54142 1.11814,-11.3707 1.02345,-0.83656 2.19781,-1.3922 3.40448,-1.65701 -1.15254,-1.42723 -2.31914,-2.84439 -3.49265,-4.25374 -0.44228,1.00648 -1.1087,1.9438 -1.96975,2.73097 -3.29965,3.01639 -8.40106,2.76239 -11.41774,-0.53698 -3.01669,-3.29939 -2.80872,-8.40033 0.49094,-11.41678 0.97188,-0.8886 2.12774,-1.53924 3.3143,-1.87942 -1.22488,-1.35657 -2.47213,-2.69142 -3.71707,-4.02934 -0.38716,1.01613 -1.02784,1.99625 -1.83549,2.82114 -3.12773,3.19426 -8.22309,3.26402 -11.41774,0.13425 -3.1947,-3.12747 -3.26449,-8.26854 -0.13425,-11.46287 0.91581,-0.93533 2.02386,-1.6217 3.18005,-2.01367 -1.31598,-1.30564 -2.60387,-2.60953 -3.93949,-3.89509 -0.32543,1.04656 -0.88776,2.07728 -1.65717,2.95538 -2.9462,3.36245 -8.05503,3.70737 -11.41773,0.76139 -3.36265,-2.94598 -3.70763,-8.054353 -0.76144,-11.416793 0.87364,-0.99703 1.93822,-1.72616 3.08987,-2.19399 -1.37379,-1.2206 -2.72759,-2.47068 -4.11984,-3.67068 -0.26722,1.06525 -0.80077,2.12359 -1.52089,3.04354 -2.75565,3.52024 -7.85307,4.14401 -11.37366,1.38853 -3.52059,-2.75549 -4.14442,-7.85247 -1.38863,-11.37271 0.81885,-1.04622 1.87077,-1.85455 3.00171,-2.37231 -1.44693,-1.14984 -2.92366,-2.27408 -4.38836,-3.40219 -0.20899,1.07366 -0.6334,2.13568 -1.29847,3.08962 -2.55677,3.66728 -7.6159,4.57011 -11.28348,2.01367 -3.66775,-2.55655 -4.5706,-7.61532 -2.01383,-11.28254 0.76561,-1.09818 1.75865,-1.92746 2.86545,-2.50656 -1.52486,-1.08023 -3.07076,-2.12055 -4.61278,-3.1778 -0.15241,1.08626 -0.50511,2.18564 -1.11814,3.1778 -2.34987,3.80308 -7.30171,4.99056 -11.10513,2.6408 -3.80337,-2.34975 -4.991,-7.34321 -2.64103,-11.14629 0.7037,-1.13895 1.66347,-2.04992 2.7312,-2.68689 -1.57299,-0.98862 -3.15795,-1.99027 -4.74703,-2.95538 -0.0816,1.12293 -0.4128,2.26405 -0.98388,3.31403 -2.13596,3.92724 -7.04344,5.35966 -10.97088,3.22387 -3.92764,-2.13579 -5.4042,-7.04272 -3.26823,-10.96997 0.64244,-1.18125 1.55483,-2.15682 2.59695,-2.86521 -1.61656,-0.89524 -3.24782,-1.76959 -4.87929,-2.64081 -0.0228,1.10846 -0.30208,2.24608 -0.80754,3.31203 -1.91532,4.03937 -6.75086,5.76621 -10.79054,3.85101 -4.03962,-1.91528 -5.76479,-6.75033 -3.84932,-10.78964 0.58089,-1.22504 1.44546,-2.23864 2.46268,-2.99946 -1.67842,-0.81133 -3.36698,-1.58611 -5.05963,-2.37232 0.0393,1.10708 -0.18017,2.26064 -0.62719,3.35611 -1.6891,4.13913 -6.42659,6.12298 -10.56612,4.43407 -4.1395,-1.68889 -6.12152,-6.38201 -4.43243,-10.521143 0.51255,-1.256103 1.31338,-2.314573 2.28234,-3.135707 -1.74321,-0.725987 -3.48119,-1.44835 -5.23797,-2.14791 0.10946,1.122206 -0.0103,2.31132 -0.40277,3.446268 -1.45736,4.226212 -6.027,6.472422 -10.25352,5.015132 -4.2266,-1.45734 -6.4731,-6.070534 -5.01555,-10.296742 0.43658,-1.266037 1.20496,-2.355385 2.10602,-3.223869 -1.7712,-0.624355 -3.54456,-1.237717 -5.32814,-1.83534 0.16476,1.098562 0.0991,2.263073 -0.22444,3.402192 -1.22142,4.300373 -5.68443,6.817534 -9.98501,5.596187 -4.30068,-1.221346 -6.81808,-5.727909 -5.59664,-10.028254 0.36604,-1.288644 1.02615,-2.448029 1.88157,-3.358112 -1.78534,-0.518985 -3.5777,-1.030501 -5.37422,-1.522773 0.22846,1.101069 0.21686,2.278399 -0.0441,3.448278 -0.98173,4.361322 -5.30879,7.114749 -9.67041,6.133164 -4.36177,-0.981587 -7.07133,-5.308283 -6.08959,-9.669601 0.29902,-1.328845 0.917,-2.520542 1.74531,-3.492357 -1.82558,-0.422387 -3.67045,-0.813378 -5.50647,-1.2082 0.28937,1.084936 0.33457,2.265054 0.13426,3.446273 -0.73887,4.408945 -4.90441,7.364886 -9.31373,6.626062 -4.40929,-0.73883 -7.3655,-4.904014 -6.62661,-9.312952 0.22198,-1.324748 0.77201,-2.531285 1.52289,-3.536438 -1.82354,-0.3161 -3.67377,-0.606752 -5.50648,-0.89563 0.34156,1.057373 0.44307,2.230206 0.31259,3.404197 -0.49387,4.443051 -4.51166,7.610768 -8.95504,7.116955 -4.44343,-0.493819 -7.6133,-4.465159 -7.11956,-8.908216 0.14793,-1.330622 0.65087,-2.539532 1.34456,-3.582522 -1.84274,-0.215364 -3.70155,-0.439408 -5.55257,-0.627141 0.39126,1.028133 0.55756,2.191917 0.49294,3.358113 -0.24729,4.463552 -4.08836,7.859139 -8.55229,7.611856 -4.464,-0.24729 -7.85778,-4.043928 -7.61048,-8.507487 0.0729,-1.314604 0.50048,-2.557981 1.11813,-3.626601 -1.84848,-0.113322 -3.69674,-0.182759 -5.55257,-0.268489 0.43508,0.993292 0.67329,2.117409 0.67329,3.269953 0,4.47042 -3.63469,8.058668 -8.10543,8.058668 -4.4708,0 -8.10343,-3.588248 -8.10343,-8.058668 0,-1.310908 0.34137,-2.576302 0.89571,-3.67268501 -0.82206,-0.0057 -1.63939,-0.04408 -2.4627,-0.04408 z m 0,281.60459501 c 7.16393,0 14.09967,0.88471 20.72946,2.59673 -9.36838,2.02723 -17.04257,8.51256 -20.72946,17.14721 -3.68392,-8.62127 -11.33692,-15.10948 -20.68537,-17.14721 6.62936,-1.69817 13.55122,-2.59673 20.68537,-2.59673 z m -54.04287,19.87818 c -1.4863,3.51365 -2.32844,7.36178 -2.32844,11.41677 0,5.50794 1.52808,10.63639 4.16393,15.04138 -1.72992,-0.31783 -3.50508,-0.49288 -5.32814,-0.49288 -8.11069,0 -15.45829,3.28292 -20.77355,8.59764 4.9757,-13.51565 13.45532,-25.38294 24.2662,-34.56291 z m 108.218,0.31257 c 10.3309,8.95902 18.40018,20.44838 23.28433,33.48896 -5.23805,-4.84836 -12.22529,-7.83626 -19.92593,-7.83626 -1.82305,0 -3.59479,0.17502 -5.32815,0.49288 2.63844,-4.40499 4.16393,-9.53344 4.16394,-15.04138 0,-3.93493 -0.79008,-7.67465 -2.19419,-11.1042 z m -137.14106,69.6628 c 4.78022,8.27133 13.4615,14.00472 23.55083,14.64065 -5.54065,5.34182 -8.99913,12.82672 -8.99913,21.13047 0,1.52062 0.13375,3.01779 0.35668,4.47615 -8.24852,-11.58789 -13.59927,-25.33669 -14.90838,-40.24727 z m 165.2145,1.25428 c -1.43586,14.12771 -6.45752,27.1657 -14.10284,38.27768 0.15795,-1.23294 0.26851,-2.485 0.26851,-3.76084 0,-8.30375 -3.45854,-15.78865 -8.99913,-21.13047 9.57913,-0.60379 17.92428,-5.78472 22.83346,-13.38637 z m -96.62193,50.45586 v 22.4729 c -9.19815,-1.60389 -17.86552,-4.72589 -25.7891,-9.08655 0.36951,0.0144 0.74719,0.0441 1.12014,0.0441 10.34724,0 19.43699,-5.34584 24.66896,-13.43044 z m 28.79081,0.0441 c 5.23784,8.05578 14.2977,13.38637 24.62487,13.38637 0.3281,0 0.66036,-0.0334 0.98588,-0.0441 -7.84406,4.3469 -16.46876,7.47823 -25.61075,9.08655 z" />
  </g>
</svg>
